G04*
G04 #@! TF.GenerationSoftware,Altium Limited,Altium Designer,22.7.1 (60)*
G04*
G04 Layer_Color=16711935*
%FSAX44Y44*%
%MOMM*%
G71*
G04*
G04 #@! TF.SameCoordinates,3CFCEF84-9AD2-427F-86DD-3E0EAD2CE166*
G04*
G04*
G04 #@! TF.FilePolarity,Negative*
G04*
G01*
G75*
%ADD15R,1.4000X1.0000*%
%ADD26R,1.6000X1.6000*%
%ADD27C,1.6000*%
%ADD28R,1.6000X1.6000*%
%ADD29C,1.3700*%
%ADD30C,3.1000*%
%ADD48R,1.0000X1.4000*%
D15*
X00683000Y00970000D02*
D03*
Y00992000D02*
D03*
X00517000Y00971000D02*
D03*
Y00993000D02*
D03*
Y00868000D02*
D03*
Y00890000D02*
D03*
X00694000Y00761000D02*
D03*
Y00783000D02*
D03*
X00661000Y00740000D02*
D03*
Y00762000D02*
D03*
X00683000Y00871000D02*
D03*
Y00893000D02*
D03*
D26*
X00705400Y00715000D02*
D03*
X00540800Y01085000D02*
D03*
X00735400D02*
D03*
D27*
X00680000Y00715000D02*
D03*
X00654600D02*
D03*
X00629200D02*
D03*
X00603800D02*
D03*
X00465000Y00740400D02*
D03*
Y00765800D02*
D03*
Y00791200D02*
D03*
Y00845000D02*
D03*
Y00870400D02*
D03*
Y00895800D02*
D03*
Y00950000D02*
D03*
Y00975400D02*
D03*
Y01000800D02*
D03*
X00515400Y01085000D02*
D03*
X00490000D02*
D03*
X00464600D02*
D03*
X00710000D02*
D03*
X00684600D02*
D03*
X00659200D02*
D03*
X00735000Y00950000D02*
D03*
Y00975400D02*
D03*
Y01000800D02*
D03*
Y00844600D02*
D03*
Y00870000D02*
D03*
Y00895400D02*
D03*
Y00740000D02*
D03*
Y00765400D02*
D03*
Y00790800D02*
D03*
D28*
X00465000Y00715000D02*
D03*
Y00819600D02*
D03*
Y00924600D02*
D03*
X00735000D02*
D03*
Y00819200D02*
D03*
Y00714600D02*
D03*
D29*
X00599000Y00813000D02*
D03*
X00621000Y00823000D02*
D03*
X00698000Y00814000D02*
D03*
X00714000Y00826000D02*
D03*
X00535000Y00879000D02*
D03*
X00680000Y00819000D02*
D03*
X00695000Y00797000D02*
D03*
X00548000Y00849000D02*
D03*
X00628000Y00781000D02*
D03*
X00640000Y00735000D02*
D03*
X00525000Y01024000D02*
D03*
X00505000Y00813000D02*
D03*
X00508000Y00797000D02*
D03*
X00527000Y00919000D02*
D03*
X00560000Y00756110D02*
D03*
X00545011Y00746011D02*
D03*
X00530000Y00715000D02*
D03*
X00544764Y00782042D02*
D03*
X00618000Y00736000D02*
D03*
X00671000Y00792000D02*
D03*
X00714000Y00762000D02*
D03*
X00535000Y00956000D02*
D03*
X00640000Y00964000D02*
D03*
X00589000Y00981000D02*
D03*
X00542000Y00905000D02*
D03*
X00546000Y00818000D02*
D03*
X00625200Y01000800D02*
D03*
X00546000Y00799000D02*
D03*
X00526000Y00787000D02*
D03*
X00600000Y00784000D02*
D03*
X00543370Y00971000D02*
D03*
X00713000Y00862000D02*
D03*
X00661000Y00970000D02*
D03*
D30*
X00770000Y00680000D02*
D03*
X00430000D02*
D03*
Y01120000D02*
D03*
X00770000D02*
D03*
D48*
X00683000Y00950000D02*
D03*
X00705000D02*
D03*
X00517000D02*
D03*
X00495000D02*
D03*
X00517000Y00845000D02*
D03*
X00495000D02*
D03*
X00564000Y00825000D02*
D03*
X00586000D02*
D03*
X00564000Y00799000D02*
D03*
X00586000D02*
D03*
X00517000Y00762000D02*
D03*
X00495000D02*
D03*
X00517000Y00740000D02*
D03*
X00495000D02*
D03*
X00564000Y00774000D02*
D03*
X00586000D02*
D03*
X00638000Y00801000D02*
D03*
X00616000D02*
D03*
X00638000Y00765000D02*
D03*
X00616000D02*
D03*
X00689000Y00741000D02*
D03*
X00711000D02*
D03*
X00596000Y00738000D02*
D03*
X00574000D02*
D03*
X00683000Y00845000D02*
D03*
X00705000D02*
D03*
M02*
