M48
;Layer_Color=9474304
;FILE_FORMAT=4:4
METRIC
;TYPE=PLATED
T1F00S00C0.7112
T2F00S00C0.9000
T3F00S00C2.5000
%
T01
X00530000Y00715000
X00545011Y00746011
X00560000Y00756110
X00544764Y00782042
X00526000Y00787000
X00600000Y00784000
X00628000Y00781000
X00671000Y00792000
X00714000Y00762000
X00640000Y00735000
X00618000Y00736000
X00619000Y00822000
X00600000Y00809000
X00546000Y00818000
Y00799000
X00508000Y00797000
X00505000Y00813000
X00548000Y00849000
X00535000Y00879000
X00542000Y00905000
X00527000Y00919000
X00535000Y00956000
X00543370Y00971000
X00589000Y00981000
X00625200Y01000800
X00640000Y00964000
X00661000Y00970000
X00713000Y00862000
X00714000Y00826000
X00698000Y00814000
X00695000Y00797000
X00680000Y00819000
X00525000Y01024000
T02
X00465000Y00715000
Y00740400
Y00765800
Y00791200
X00603800Y00715000
X00629200
X00654600
X00680000
X00705400
X00735000Y00714600
Y00740000
Y00765400
Y00790800
Y00819200
Y00844600
Y00870000
Y00895400
Y00924600
Y00950000
Y00975400
Y01000800
X00735400Y01085000
X00710000
X00684600
X00659200
X00540800
X00515400
X00490000
X00464600
X00465000Y01000800
Y00975400
Y00950000
Y00924600
Y00895800
Y00870400
Y00845000
Y00819600
T03
X00430000Y00680000
X00770000
Y01120000
X00430000
M30
