G04*
G04 #@! TF.GenerationSoftware,Altium Limited,Altium Designer,22.7.1 (60)*
G04*
G04 Layer_Color=32896*
%FSAX44Y44*%
%MOMM*%
G71*
G04*
G04 #@! TF.SameCoordinates,EF7A3B51-B4F6-4626-86D8-2FC679187BC1*
G04*
G04*
G04 #@! TF.FilePolarity,Positive*
G04*
G01*
G75*
%ADD11C,0.1000*%
%ADD13C,0.2540*%
D11*
X00676250Y00975750D02*
Y00986250D01*
X00689750Y00975750D02*
Y00986250D01*
X00688750Y00956750D02*
X00699250D01*
X00688750Y00943250D02*
X00699250D01*
X00510250Y00976750D02*
Y00987250D01*
X00523750Y00976750D02*
Y00987250D01*
X00500750Y00943250D02*
X00511250D01*
X00500750Y00956750D02*
X00511250D01*
X00510250Y00873750D02*
Y00884250D01*
X00523750Y00873750D02*
Y00884250D01*
X00500750Y00838250D02*
X00511250D01*
X00500750Y00851750D02*
X00511250D01*
X00569750Y00831750D02*
X00580250D01*
X00569750Y00818250D02*
X00580250D01*
X00569750Y00805750D02*
X00580250D01*
X00569750Y00792250D02*
X00580250D01*
X00500750Y00755250D02*
X00511250D01*
X00500750Y00768750D02*
X00511250D01*
X00500750Y00733250D02*
X00511250D01*
X00500750Y00746750D02*
X00511250D01*
X00569750Y00780750D02*
X00580250D01*
X00569750Y00767250D02*
X00580250D01*
X00621750Y00794250D02*
X00632250D01*
X00621750Y00807750D02*
X00632250D01*
X00621750Y00758250D02*
X00632250D01*
X00621750Y00771750D02*
X00632250D01*
X00687250Y00766750D02*
Y00777250D01*
X00700750Y00766750D02*
Y00777250D01*
X00654250Y00745750D02*
Y00756250D01*
X00667750Y00745750D02*
Y00756250D01*
X00694750Y00747750D02*
X00705250D01*
X00694750Y00734250D02*
X00705250D01*
X00579750Y00731250D02*
X00590250D01*
X00579750Y00744750D02*
X00590250D01*
X00676250Y00876750D02*
Y00887250D01*
X00689750Y00876750D02*
Y00887250D01*
X00688750Y00851750D02*
X00699250D01*
X00688750Y00838250D02*
X00699250D01*
D13*
X00596646Y00752856D02*
Y00762853D01*
X00591648D01*
X00589981Y00761187D01*
Y00757854D01*
X00591648Y00756188D01*
X00596646D01*
X00593314D02*
X00589981Y00752856D01*
X00586649D02*
X00583317D01*
X00584983D01*
Y00762853D01*
X00586649Y00761187D01*
X00578319D02*
X00576652Y00762853D01*
X00573320D01*
X00571654Y00761187D01*
Y00759520D01*
X00573320Y00757854D01*
X00574986D01*
X00573320D01*
X00571654Y00756188D01*
Y00754522D01*
X00573320Y00752856D01*
X00576652D01*
X00578319Y00754522D01*
X00649600Y00763331D02*
X00639603D01*
Y00758332D01*
X00641270Y00756666D01*
X00644602D01*
X00646268Y00758332D01*
Y00763331D01*
Y00759998D02*
X00649600Y00756666D01*
X00639603Y00746669D02*
Y00753334D01*
X00644602D01*
X00642936Y00750002D01*
Y00748335D01*
X00644602Y00746669D01*
X00647934D01*
X00649600Y00748335D01*
Y00751668D01*
X00647934Y00753334D01*
X00575666Y00789332D02*
X00577332Y00790998D01*
X00580664D01*
X00582331Y00789332D01*
Y00782668D01*
X00580664Y00781002D01*
X00577332D01*
X00575666Y00782668D01*
X00572334Y00789332D02*
X00570668Y00790998D01*
X00567336D01*
X00565669Y00789332D01*
Y00787666D01*
X00567336Y00786000D01*
X00565669Y00784334D01*
Y00782668D01*
X00567336Y00781002D01*
X00570668D01*
X00572334Y00782668D01*
Y00784334D01*
X00570668Y00786000D01*
X00572334Y00787666D01*
Y00789332D01*
X00570668Y00786000D02*
X00567336D01*
X00573666Y00816332D02*
X00575332Y00817998D01*
X00578665D01*
X00580331Y00816332D01*
Y00809668D01*
X00578665Y00808002D01*
X00575332D01*
X00573666Y00809668D01*
X00570334Y00817998D02*
X00563669D01*
Y00816332D01*
X00570334Y00809668D01*
Y00808002D01*
X00657332Y00763334D02*
X00658998Y00761668D01*
Y00758335D01*
X00657332Y00756669D01*
X00650668D01*
X00649002Y00758335D01*
Y00761668D01*
X00650668Y00763334D01*
X00658998Y00773331D02*
X00657332Y00769998D01*
X00654000Y00766666D01*
X00650668D01*
X00649002Y00768332D01*
Y00771665D01*
X00650668Y00773331D01*
X00652334D01*
X00654000Y00771665D01*
Y00766666D01*
X00573666Y00841332D02*
X00575332Y00842998D01*
X00578665D01*
X00580331Y00841332D01*
Y00834668D01*
X00578665Y00833002D01*
X00575332D01*
X00573666Y00834668D01*
X00563669Y00842998D02*
X00570334D01*
Y00838000D01*
X00567002Y00839666D01*
X00565336D01*
X00563669Y00838000D01*
Y00834668D01*
X00565336Y00833002D01*
X00568668D01*
X00570334Y00834668D01*
X00657332Y00807334D02*
X00658998Y00805668D01*
Y00802335D01*
X00657332Y00800669D01*
X00650668D01*
X00649002Y00802335D01*
Y00805668D01*
X00650668Y00807334D01*
X00657332Y00810666D02*
X00658998Y00812332D01*
Y00815665D01*
X00657332Y00817331D01*
X00655666D01*
X00654000Y00815665D01*
Y00813998D01*
Y00815665D01*
X00652334Y00817331D01*
X00650668D01*
X00649002Y00815665D01*
Y00812332D01*
X00650668Y00810666D01*
X00506496Y00775002D02*
Y00784998D01*
X00501498D01*
X00499832Y00783332D01*
Y00780000D01*
X00501498Y00778334D01*
X00506496D01*
X00503164D02*
X00499832Y00775002D01*
X00496499D02*
X00493167D01*
X00494833D01*
Y00784998D01*
X00496499Y00783332D01*
X00481504Y00775002D02*
X00488168D01*
X00481504Y00781666D01*
Y00783332D01*
X00483170Y00784998D01*
X00486502D01*
X00488168Y00783332D01*
X00548830Y00882002D02*
Y00891998D01*
X00543831D01*
X00542165Y00890332D01*
Y00887000D01*
X00543831Y00885334D01*
X00548830D01*
X00545498D02*
X00542165Y00882002D01*
X00538833D02*
X00535501D01*
X00537167D01*
Y00891998D01*
X00538833Y00890332D01*
X00530502Y00882002D02*
X00527170D01*
X00528836D01*
Y00891998D01*
X00530502Y00890332D01*
X00529002Y00982504D02*
X00538998D01*
Y00987502D01*
X00537332Y00989168D01*
X00534000D01*
X00532334Y00987502D01*
Y00982504D01*
Y00985836D02*
X00529002Y00989168D01*
Y00992501D02*
Y00995833D01*
Y00994167D01*
X00538998D01*
X00537332Y00992501D01*
Y01000831D02*
X00538998Y01002497D01*
Y01005830D01*
X00537332Y01007496D01*
X00530668D01*
X00529002Y01005830D01*
Y01002497D01*
X00530668Y01000831D01*
X00537332D01*
X00512331Y00716002D02*
Y00725998D01*
X00507332D01*
X00505666Y00724332D01*
Y00721000D01*
X00507332Y00719334D01*
X00512331D01*
X00508998D02*
X00505666Y00716002D01*
X00502334Y00717668D02*
X00500668Y00716002D01*
X00497336D01*
X00495669Y00717668D01*
Y00724332D01*
X00497336Y00725998D01*
X00500668D01*
X00502334Y00724332D01*
Y00722666D01*
X00500668Y00721000D01*
X00495669D01*
X00499331Y00854002D02*
Y00863998D01*
X00494332D01*
X00492666Y00862332D01*
Y00859000D01*
X00494332Y00857334D01*
X00499331D01*
X00495998D02*
X00492666Y00854002D01*
X00489334Y00862332D02*
X00487668Y00863998D01*
X00484336D01*
X00482669Y00862332D01*
Y00860666D01*
X00484336Y00859000D01*
X00482669Y00857334D01*
Y00855668D01*
X00484336Y00854002D01*
X00487668D01*
X00489334Y00855668D01*
Y00857334D01*
X00487668Y00859000D01*
X00489334Y00860666D01*
Y00862332D01*
X00487668Y00859000D02*
X00484336D01*
X00497331Y00929002D02*
Y00938998D01*
X00492332D01*
X00490666Y00937332D01*
Y00934000D01*
X00492332Y00932334D01*
X00497331D01*
X00493998D02*
X00490666Y00929002D01*
X00487334Y00938998D02*
X00480669D01*
Y00937332D01*
X00487334Y00930668D01*
Y00929002D01*
X00672331Y00983002D02*
Y00992998D01*
X00667332D01*
X00665666Y00991332D01*
Y00988000D01*
X00667332Y00986334D01*
X00672331D01*
X00668998D02*
X00665666Y00983002D01*
X00655669Y00992998D02*
X00659002Y00991332D01*
X00662334Y00988000D01*
Y00984668D01*
X00660668Y00983002D01*
X00657336D01*
X00655669Y00984668D01*
Y00986334D01*
X00657336Y00988000D01*
X00662334D01*
X00694944Y00905510D02*
Y00915507D01*
X00689946D01*
X00688279Y00913841D01*
Y00910508D01*
X00689946Y00908842D01*
X00694944D01*
X00691612D02*
X00688279Y00905510D01*
X00679949D02*
Y00915507D01*
X00684947Y00910508D01*
X00678283D01*
X00707002Y00960669D02*
X00716998D01*
Y00965668D01*
X00715332Y00967334D01*
X00712000D01*
X00710334Y00965668D01*
Y00960669D01*
Y00964002D02*
X00707002Y00967334D01*
X00715332Y00970666D02*
X00716998Y00972332D01*
Y00975665D01*
X00715332Y00977331D01*
X00713666D01*
X00712000Y00975665D01*
Y00973998D01*
Y00975665D01*
X00710334Y00977331D01*
X00708668D01*
X00707002Y00975665D01*
Y00972332D01*
X00708668Y00970666D01*
X00697230Y00859790D02*
Y00869787D01*
X00692232D01*
X00690565Y00868121D01*
Y00864788D01*
X00692232Y00863122D01*
X00697230D01*
X00693898D02*
X00690565Y00859790D01*
X00680569D02*
X00687233D01*
X00680569Y00866454D01*
Y00868121D01*
X00682235Y00869787D01*
X00685567D01*
X00687233Y00868121D01*
X00766665Y00725002D02*
Y00734998D01*
X00761666D01*
X00760000Y00733332D01*
Y00730000D01*
X00761666Y00728334D01*
X00766665D01*
X00763332D02*
X00760000Y00725002D01*
X00756668D02*
X00753335D01*
X00755002D01*
Y00734998D01*
X00756668Y00733332D01*
X00714332Y00792334D02*
X00715998Y00790668D01*
Y00787336D01*
X00714332Y00785669D01*
X00707668D01*
X00706002Y00787336D01*
Y00790668D01*
X00707668Y00792334D01*
X00706002Y00800665D02*
X00715998D01*
X00711000Y00795666D01*
Y00802331D01*
M02*
