G04*
G04 #@! TF.GenerationSoftware,Altium Limited,Altium Designer,22.7.1 (60)*
G04*
G04 Layer_Physical_Order=2*
G04 Layer_Color=16711680*
%FSAX44Y44*%
%MOMM*%
G71*
G04*
G04 #@! TF.SameCoordinates,EF7A3B51-B4F6-4626-86D8-2FC679187BC1*
G04*
G04*
G04 #@! TF.FilePolarity,Positive*
G04*
G01*
G75*
%ADD13C,0.2540*%
%ADD31R,1.3000X0.9000*%
%ADD42R,1.5000X1.5000*%
%ADD43C,1.5000*%
%ADD44R,1.5000X1.5000*%
%ADD45C,1.2700*%
%ADD46C,3.0000*%
%ADD47R,0.9000X1.3000*%
G36*
X00764779Y01136181D02*
X00763463Y01135782D01*
X00760510Y01134203D01*
X00757921Y01132079D01*
X00755797Y01129490D01*
X00754218Y01126537D01*
X00753246Y01123333D01*
X00752918Y01120000D01*
X00753246Y01116667D01*
X00754218Y01113463D01*
X00755797Y01110510D01*
X00757921Y01107921D01*
X00760510Y01105797D01*
X00763463Y01104218D01*
X00766667Y01103246D01*
X00770000Y01102918D01*
X00773333Y01103246D01*
X00776537Y01104218D01*
X00779490Y01105797D01*
X00782079Y01107921D01*
X00784203Y01110510D01*
X00785782Y01113463D01*
X00786181Y01114779D01*
X00787451Y01114591D01*
Y00685409D01*
X00786181Y00685221D01*
X00785782Y00686537D01*
X00784203Y00689490D01*
X00782079Y00692079D01*
X00779490Y00694203D01*
X00776537Y00695782D01*
X00773333Y00696754D01*
X00770000Y00697082D01*
X00766667Y00696754D01*
X00763463Y00695782D01*
X00760510Y00694203D01*
X00757921Y00692079D01*
X00755797Y00689490D01*
X00754218Y00686537D01*
X00753246Y00683333D01*
X00752918Y00680000D01*
X00753246Y00676667D01*
X00754218Y00673463D01*
X00755797Y00670510D01*
X00757921Y00667921D01*
X00760510Y00665797D01*
X00763463Y00664218D01*
X00764779Y00663819D01*
X00764591Y00662549D01*
X00435409D01*
X00435221Y00663819D01*
X00436537Y00664218D01*
X00439490Y00665797D01*
X00442079Y00667921D01*
X00444203Y00670510D01*
X00445782Y00673463D01*
X00446754Y00676667D01*
X00447082Y00680000D01*
X00446754Y00683333D01*
X00445782Y00686537D01*
X00444203Y00689490D01*
X00442079Y00692079D01*
X00439490Y00694203D01*
X00436537Y00695782D01*
X00433333Y00696754D01*
X00430000Y00697082D01*
X00426667Y00696754D01*
X00423463Y00695782D01*
X00420510Y00694203D01*
X00417921Y00692079D01*
X00415797Y00689490D01*
X00414218Y00686537D01*
X00413819Y00685221D01*
X00412549Y00685409D01*
Y01114591D01*
X00413819Y01114779D01*
X00414218Y01113463D01*
X00415797Y01110510D01*
X00417921Y01107921D01*
X00420510Y01105797D01*
X00423463Y01104218D01*
X00426667Y01103246D01*
X00430000Y01102918D01*
X00433333Y01103246D01*
X00436537Y01104218D01*
X00439490Y01105797D01*
X00442079Y01107921D01*
X00444203Y01110510D01*
X00445782Y01113463D01*
X00446754Y01116667D01*
X00447082Y01120000D01*
X00446754Y01123333D01*
X00445782Y01126537D01*
X00444203Y01129490D01*
X00442079Y01132079D01*
X00439490Y01134203D01*
X00436537Y01135782D01*
X00435221Y01136181D01*
X00435409Y01137451D01*
X00764591D01*
X00764779Y01136181D01*
D02*
G37*
%LPC*%
G36*
X00519550Y01098354D02*
X00485850D01*
X00484574Y01098100D01*
X00483492Y01097377D01*
X00474642Y01088527D01*
X00473364Y01088667D01*
X00472898Y01089791D01*
X00471376Y01091775D01*
X00469391Y01093298D01*
X00467080Y01094255D01*
X00464600Y01094582D01*
X00462120Y01094255D01*
X00459809Y01093298D01*
X00457825Y01091775D01*
X00456302Y01089791D01*
X00455345Y01087480D01*
X00455018Y01085000D01*
X00455345Y01082520D01*
X00456302Y01080209D01*
X00457825Y01078224D01*
X00459809Y01076702D01*
X00462120Y01075744D01*
X00464600Y01075418D01*
X00467080Y01075744D01*
X00469391Y01076702D01*
X00471376Y01078224D01*
X00472898Y01080209D01*
X00473535Y01081746D01*
X00475910D01*
X00477186Y01082000D01*
X00478268Y01082723D01*
X00479418Y01083873D01*
X00480620Y01083465D01*
X00480745Y01082520D01*
X00481702Y01080209D01*
X00483225Y01078224D01*
X00485209Y01076702D01*
X00486666Y01076098D01*
Y00969564D01*
X00486920Y00968288D01*
X00487643Y00967206D01*
X00495176Y00959673D01*
X00494689Y00958500D01*
X00488500D01*
Y00953334D01*
X00473902D01*
X00473298Y00954791D01*
X00471776Y00956776D01*
X00469791Y00958298D01*
X00467480Y00959256D01*
X00465000Y00959582D01*
X00462520Y00959256D01*
X00460209Y00958298D01*
X00459453Y00957718D01*
X00458314Y00958280D01*
Y00967120D01*
X00459453Y00967682D01*
X00460209Y00967102D01*
X00462520Y00966144D01*
X00465000Y00965818D01*
X00467480Y00966144D01*
X00469791Y00967102D01*
X00471776Y00968625D01*
X00473298Y00970609D01*
X00474255Y00972920D01*
X00474582Y00975400D01*
X00474255Y00977880D01*
X00473298Y00980191D01*
X00471776Y00982176D01*
X00469791Y00983698D01*
X00467480Y00984656D01*
X00465000Y00984982D01*
X00462520Y00984656D01*
X00460209Y00983698D01*
X00459453Y00983118D01*
X00458314Y00983680D01*
Y00989399D01*
X00461063Y00992148D01*
X00462520Y00991544D01*
X00465000Y00991218D01*
X00467480Y00991544D01*
X00469791Y00992502D01*
X00471776Y00994025D01*
X00473298Y00996009D01*
X00474255Y00998320D01*
X00474582Y01000800D01*
X00474255Y01003280D01*
X00473298Y01005591D01*
X00471776Y01007576D01*
X00469791Y01009098D01*
X00467480Y01010055D01*
X00465000Y01010382D01*
X00462520Y01010055D01*
X00460209Y01009098D01*
X00458225Y01007576D01*
X00456702Y01005591D01*
X00455745Y01003280D01*
X00455418Y01000800D01*
X00455745Y00998320D01*
X00456348Y00996863D01*
X00452622Y00993138D01*
X00451900Y00992056D01*
X00451646Y00990780D01*
Y00905820D01*
X00451900Y00904544D01*
X00452622Y00903463D01*
X00456348Y00899737D01*
X00455745Y00898280D01*
X00455418Y00895800D01*
X00455745Y00893320D01*
X00456348Y00891863D01*
X00452622Y00888138D01*
X00451900Y00887056D01*
X00451646Y00885780D01*
Y00801220D01*
X00451900Y00799944D01*
X00452622Y00798863D01*
X00456348Y00795137D01*
X00455745Y00793680D01*
X00455418Y00791200D01*
X00455745Y00788720D01*
X00456702Y00786409D01*
X00458225Y00784425D01*
X00460209Y00782902D01*
X00462520Y00781945D01*
X00465000Y00781618D01*
X00467480Y00781945D01*
X00469791Y00782902D01*
X00471776Y00784425D01*
X00473298Y00786409D01*
X00474255Y00788720D01*
X00474582Y00791200D01*
X00474255Y00793680D01*
X00473298Y00795991D01*
X00471776Y00797975D01*
X00469791Y00799498D01*
X00467480Y00800455D01*
X00465000Y00800782D01*
X00462520Y00800455D01*
X00461063Y00799852D01*
X00458314Y00802601D01*
Y00810100D01*
X00463730D01*
Y00819600D01*
Y00829100D01*
X00458314D01*
Y00836720D01*
X00459453Y00837282D01*
X00460209Y00836702D01*
X00462520Y00835745D01*
X00465000Y00835418D01*
X00467480Y00835745D01*
X00469791Y00836702D01*
X00471776Y00838225D01*
X00473298Y00840209D01*
X00473902Y00841666D01*
X00488500D01*
Y00836500D01*
X00500856D01*
Y00828354D01*
X00501110Y00827078D01*
X00501832Y00825997D01*
X00505263Y00822566D01*
X00504656Y00821377D01*
X00502820Y00821135D01*
X00500789Y00820294D01*
X00499045Y00818955D01*
X00497706Y00817211D01*
X00496865Y00815180D01*
X00496578Y00813000D01*
X00496865Y00810820D01*
X00497706Y00808789D01*
X00499045Y00807045D01*
X00500789Y00805706D01*
X00502820Y00804865D01*
X00505000Y00804578D01*
X00507180Y00804865D01*
X00509211Y00805706D01*
X00509419Y00805866D01*
X00513666Y00801619D01*
Y00770500D01*
X00510500D01*
Y00753500D01*
X00513666D01*
Y00748500D01*
X00510500D01*
Y00731500D01*
X00519126D01*
X00519612Y00730327D01*
X00516642Y00727357D01*
X00515920Y00726276D01*
X00515666Y00725000D01*
Y00710000D01*
X00515920Y00708724D01*
X00516642Y00707643D01*
X00521662Y00702622D01*
X00522744Y00701900D01*
X00524020Y00701646D01*
X00658750D01*
X00660026Y00701900D01*
X00661108Y00702622D01*
X00669958Y00711473D01*
X00671236Y00711333D01*
X00671702Y00710209D01*
X00673225Y00708224D01*
X00675209Y00706702D01*
X00677520Y00705744D01*
X00680000Y00705418D01*
X00682480Y00705744D01*
X00684791Y00706702D01*
X00686776Y00708224D01*
X00688298Y00710209D01*
X00689256Y00712520D01*
X00689582Y00715000D01*
X00689256Y00717480D01*
X00688298Y00719791D01*
X00686776Y00721775D01*
X00684791Y00723298D01*
X00682480Y00724255D01*
X00680000Y00724582D01*
X00677520Y00724255D01*
X00675209Y00723298D01*
X00673225Y00721775D01*
X00671702Y00719791D01*
X00671065Y00718254D01*
X00668690D01*
X00667414Y00718000D01*
X00666332Y00717277D01*
X00665182Y00716127D01*
X00663980Y00716535D01*
X00663856Y00717480D01*
X00662898Y00719791D01*
X00661376Y00721775D01*
X00659391Y00723298D01*
X00657080Y00724255D01*
X00655870Y00724415D01*
Y00715000D01*
X00654600D01*
Y00713730D01*
X00645185D01*
X00645345Y00712520D01*
X00646302Y00710209D01*
X00646882Y00709453D01*
X00646320Y00708314D01*
X00637480D01*
X00636918Y00709453D01*
X00637498Y00710209D01*
X00638456Y00712520D01*
X00638782Y00715000D01*
X00638456Y00717480D01*
X00637498Y00719791D01*
X00635975Y00721775D01*
X00633991Y00723298D01*
X00631680Y00724255D01*
X00629200Y00724582D01*
X00626720Y00724255D01*
X00625263Y00723652D01*
X00621603Y00727312D01*
X00621851Y00728557D01*
X00622211Y00728706D01*
X00623955Y00730045D01*
X00625294Y00731789D01*
X00626135Y00733820D01*
X00626422Y00736000D01*
X00626135Y00738180D01*
X00625294Y00740211D01*
X00623955Y00741955D01*
X00622211Y00743294D01*
X00620180Y00744135D01*
X00618000Y00744422D01*
X00615820Y00744135D01*
X00613789Y00743294D01*
X00612045Y00741955D01*
X00610706Y00740211D01*
X00610343Y00739334D01*
X00602500D01*
Y00746500D01*
X00589500D01*
Y00730334D01*
X00580500D01*
Y00736730D01*
X00567500D01*
Y00730334D01*
X00552859D01*
X00546550Y00736643D01*
X00546958Y00737845D01*
X00547191Y00737876D01*
X00549222Y00738717D01*
X00550966Y00740056D01*
X00552305Y00741800D01*
X00553086Y00743686D01*
X00565020D01*
X00566230Y00743927D01*
X00566312Y00743930D01*
X00567500Y00743217D01*
Y00739270D01*
X00580500D01*
Y00746500D01*
X00576934D01*
X00576560Y00747241D01*
X00576485Y00747770D01*
X00587027Y00758312D01*
X00590646D01*
X00591922Y00758566D01*
X00593004Y00759288D01*
X00602357Y00768642D01*
X00603080Y00769724D01*
X00603334Y00771000D01*
Y00776343D01*
X00604211Y00776706D01*
X00605955Y00778045D01*
X00607294Y00779789D01*
X00608135Y00781820D01*
X00608422Y00784000D01*
X00608135Y00786180D01*
X00607294Y00788211D01*
X00605955Y00789955D01*
X00604211Y00791294D01*
X00602180Y00792135D01*
X00600000Y00792422D01*
X00597820Y00792135D01*
X00595789Y00791294D01*
X00594045Y00789955D01*
X00592706Y00788211D01*
X00591865Y00786180D01*
X00591604Y00784198D01*
X00590334Y00784282D01*
Y00790500D01*
X00592500D01*
Y00794666D01*
X00609500D01*
Y00792500D01*
X00612666D01*
Y00773500D01*
X00609500D01*
Y00756500D01*
X00622500D01*
Y00773500D01*
X00619334D01*
Y00792500D01*
X00622500D01*
Y00809500D01*
X00609500D01*
X00609500Y00809500D01*
X00608326Y00809731D01*
X00608135Y00811180D01*
X00607294Y00813211D01*
X00605955Y00814955D01*
X00604211Y00816294D01*
X00603334Y00816657D01*
Y00825564D01*
X00603080Y00826840D01*
X00602357Y00827921D01*
X00578921Y00851357D01*
X00577840Y00852080D01*
X00576564Y00852334D01*
X00555657D01*
X00555294Y00853211D01*
X00553955Y00854955D01*
X00552211Y00856294D01*
X00550588Y00856966D01*
X00550351Y00858112D01*
X00550396Y00858365D01*
X00550616Y00858512D01*
X00555812Y00863708D01*
X00556535Y00864790D01*
X00556789Y00866066D01*
Y00893545D01*
X00556535Y00894821D01*
X00555812Y00895903D01*
X00549772Y00901943D01*
X00550135Y00902820D01*
X00550422Y00905000D01*
X00550135Y00907180D01*
X00549772Y00908057D01*
X00554598Y00912883D01*
X00555320Y00913964D01*
X00555574Y00915240D01*
Y01014828D01*
X00555320Y01016104D01*
X00554598Y01017186D01*
X00534114Y01037669D01*
Y01075500D01*
X00539530D01*
Y01085000D01*
Y01094500D01*
X00531300D01*
Y01089645D01*
X00530127Y01089159D01*
X00521908Y01097377D01*
X00520826Y01098100D01*
X00519550Y01098354D01*
D02*
G37*
G36*
X00550300Y01094500D02*
X00542070D01*
Y01086270D01*
X00550300D01*
Y01094500D01*
D02*
G37*
G36*
X00744900D02*
X00725900D01*
Y01075500D01*
X00744900D01*
Y01094500D01*
D02*
G37*
G36*
X00550300Y01083730D02*
X00542070D01*
Y01075500D01*
X00550300D01*
Y01083730D01*
D02*
G37*
G36*
X00710000Y01094582D02*
X00707520Y01094255D01*
X00705209Y01093298D01*
X00703225Y01091775D01*
X00701702Y01089791D01*
X00700744Y01087480D01*
X00700418Y01085000D01*
X00700744Y01082520D01*
X00701702Y01080209D01*
X00703225Y01078224D01*
X00705209Y01076702D01*
X00707520Y01075744D01*
X00710000Y01075418D01*
X00712480Y01075744D01*
X00714791Y01076702D01*
X00716776Y01078224D01*
X00718298Y01080209D01*
X00719256Y01082520D01*
X00719582Y01085000D01*
X00719256Y01087480D01*
X00718298Y01089791D01*
X00716776Y01091775D01*
X00714791Y01093298D01*
X00712480Y01094255D01*
X00710000Y01094582D01*
D02*
G37*
G36*
X00684600D02*
X00682120Y01094255D01*
X00679809Y01093298D01*
X00677825Y01091775D01*
X00676302Y01089791D01*
X00675344Y01087480D01*
X00675018Y01085000D01*
X00675344Y01082520D01*
X00676302Y01080209D01*
X00677825Y01078224D01*
X00679809Y01076702D01*
X00682120Y01075744D01*
X00684600Y01075418D01*
X00687080Y01075744D01*
X00689391Y01076702D01*
X00691376Y01078224D01*
X00692898Y01080209D01*
X00693856Y01082520D01*
X00694182Y01085000D01*
X00693856Y01087480D01*
X00692898Y01089791D01*
X00691376Y01091775D01*
X00689391Y01093298D01*
X00687080Y01094255D01*
X00684600Y01094582D01*
D02*
G37*
G36*
X00659200D02*
X00656720Y01094255D01*
X00654409Y01093298D01*
X00652425Y01091775D01*
X00650902Y01089791D01*
X00649945Y01087480D01*
X00649618Y01085000D01*
X00649945Y01082520D01*
X00650902Y01080209D01*
X00652425Y01078224D01*
X00654409Y01076702D01*
X00656720Y01075744D01*
X00659200Y01075418D01*
X00661680Y01075744D01*
X00663991Y01076702D01*
X00665975Y01078224D01*
X00667498Y01080209D01*
X00668456Y01082520D01*
X00668782Y01085000D01*
X00668456Y01087480D01*
X00667498Y01089791D01*
X00665975Y01091775D01*
X00663991Y01093298D01*
X00661680Y01094255D01*
X00659200Y01094582D01*
D02*
G37*
G36*
X00735000Y01010382D02*
X00732520Y01010055D01*
X00730209Y01009098D01*
X00728225Y01007576D01*
X00726702Y01005591D01*
X00726098Y01004134D01*
X00632857D01*
X00632494Y01005011D01*
X00631155Y01006755D01*
X00629411Y01008094D01*
X00627380Y01008935D01*
X00625200Y01009222D01*
X00623020Y01008935D01*
X00620989Y01008094D01*
X00619245Y01006755D01*
X00617906Y01005011D01*
X00617065Y01002980D01*
X00616778Y01000800D01*
X00617065Y00998620D01*
X00617906Y00996589D01*
X00619245Y00994845D01*
X00620989Y00993506D01*
X00623020Y00992665D01*
X00625200Y00992378D01*
X00627380Y00992665D01*
X00629411Y00993506D01*
X00631155Y00994845D01*
X00632494Y00996589D01*
X00632857Y00997466D01*
X00674500D01*
Y00993270D01*
X00683000D01*
X00691500D01*
Y00997466D01*
X00726098D01*
X00726702Y00996009D01*
X00728225Y00994025D01*
X00730209Y00992502D01*
X00731746Y00991865D01*
Y00989490D01*
X00732000Y00988214D01*
X00732723Y00987132D01*
X00733873Y00985982D01*
X00733465Y00984780D01*
X00732520Y00984656D01*
X00730209Y00983698D01*
X00728225Y00982176D01*
X00726702Y00980191D01*
X00725744Y00977880D01*
X00725418Y00975400D01*
X00725744Y00972920D01*
X00726702Y00970609D01*
X00728225Y00968625D01*
X00730209Y00967102D01*
X00732520Y00966144D01*
X00735000Y00965818D01*
X00737480Y00966144D01*
X00739791Y00967102D01*
X00740547Y00967682D01*
X00741686Y00967120D01*
Y00958280D01*
X00740547Y00957718D01*
X00739791Y00958298D01*
X00737480Y00959256D01*
X00735000Y00959582D01*
X00732520Y00959256D01*
X00730209Y00958298D01*
X00728225Y00956776D01*
X00726702Y00954791D01*
X00726098Y00953334D01*
X00711500D01*
Y00958500D01*
X00698500D01*
Y00941500D01*
X00711500D01*
Y00946666D01*
X00726098D01*
X00726702Y00945209D01*
X00728225Y00943225D01*
X00730209Y00941702D01*
X00732520Y00940744D01*
X00735000Y00940418D01*
X00737480Y00940744D01*
X00739791Y00941702D01*
X00740547Y00942282D01*
X00741686Y00941720D01*
Y00934100D01*
X00736270D01*
Y00924600D01*
Y00915100D01*
X00741686D01*
Y00906801D01*
X00738937Y00904052D01*
X00737480Y00904656D01*
X00735000Y00904982D01*
X00732520Y00904656D01*
X00730209Y00903698D01*
X00728225Y00902176D01*
X00726702Y00900191D01*
X00725744Y00897880D01*
X00725418Y00895400D01*
X00725744Y00892920D01*
X00726702Y00890609D01*
X00728225Y00888625D01*
X00730209Y00887102D01*
X00731746Y00886465D01*
Y00884090D01*
X00732000Y00882814D01*
X00732723Y00881732D01*
X00733873Y00880582D01*
X00733465Y00879380D01*
X00732520Y00879256D01*
X00730209Y00878298D01*
X00728225Y00876776D01*
X00726702Y00874791D01*
X00725744Y00872480D01*
X00725418Y00870000D01*
X00725744Y00867520D01*
X00726702Y00865209D01*
X00728225Y00863225D01*
X00730209Y00861702D01*
X00732520Y00860745D01*
X00735000Y00860418D01*
X00737480Y00860745D01*
X00739791Y00861702D01*
X00740547Y00862282D01*
X00741686Y00861720D01*
Y00852880D01*
X00740547Y00852318D01*
X00739791Y00852898D01*
X00737480Y00853856D01*
X00735000Y00854182D01*
X00732520Y00853856D01*
X00730209Y00852898D01*
X00728225Y00851376D01*
X00726702Y00849391D01*
X00726098Y00847934D01*
X00711500D01*
Y00852495D01*
X00712723Y00853615D01*
X00713000Y00853578D01*
X00715180Y00853865D01*
X00717211Y00854706D01*
X00718955Y00856045D01*
X00720294Y00857789D01*
X00721135Y00859820D01*
X00721422Y00862000D01*
X00721135Y00864180D01*
X00720294Y00866211D01*
X00718955Y00867955D01*
X00717211Y00869294D01*
X00715180Y00870135D01*
X00713000Y00870422D01*
X00710820Y00870135D01*
X00709236Y00869479D01*
X00705358Y00873357D01*
X00704276Y00874080D01*
X00703000Y00874334D01*
X00691500D01*
Y00877500D01*
X00674500D01*
Y00864500D01*
X00679666D01*
Y00853500D01*
X00676500D01*
Y00836500D01*
X00689500D01*
Y00853500D01*
X00686334D01*
Y00864500D01*
X00691500D01*
Y00867666D01*
X00701619D01*
X00704935Y00864350D01*
X00704865Y00864180D01*
X00704578Y00862000D01*
X00704865Y00859820D01*
X00705706Y00857789D01*
X00707045Y00856045D01*
X00708706Y00854770D01*
X00708711Y00854634D01*
X00708018Y00853500D01*
X00698500D01*
Y00836500D01*
X00711500D01*
Y00841266D01*
X00726098D01*
X00726702Y00839809D01*
X00728225Y00837825D01*
X00730209Y00836302D01*
X00732520Y00835345D01*
X00735000Y00835018D01*
X00737480Y00835345D01*
X00739791Y00836302D01*
X00740547Y00836882D01*
X00741686Y00836320D01*
Y00828700D01*
X00736270D01*
Y00819200D01*
Y00809700D01*
X00741686D01*
Y00802201D01*
X00738937Y00799452D01*
X00737480Y00800055D01*
X00735000Y00800382D01*
X00732520Y00800055D01*
X00730209Y00799098D01*
X00728225Y00797575D01*
X00726702Y00795591D01*
X00725744Y00793280D01*
X00725418Y00790800D01*
X00725744Y00788320D01*
X00726702Y00786009D01*
X00728225Y00784025D01*
X00730209Y00782502D01*
X00732520Y00781544D01*
X00735000Y00781218D01*
X00737480Y00781544D01*
X00739791Y00782502D01*
X00741776Y00784025D01*
X00743298Y00786009D01*
X00744256Y00788320D01*
X00744582Y00790800D01*
X00744256Y00793280D01*
X00743652Y00794737D01*
X00747378Y00798463D01*
X00748100Y00799544D01*
X00748354Y00800820D01*
Y00874150D01*
X00748100Y00875426D01*
X00747378Y00876508D01*
X00738527Y00885358D01*
X00738667Y00886636D01*
X00739791Y00887102D01*
X00741776Y00888625D01*
X00743298Y00890609D01*
X00744256Y00892920D01*
X00744582Y00895400D01*
X00744256Y00897880D01*
X00743652Y00899337D01*
X00747378Y00903063D01*
X00748100Y00904144D01*
X00748354Y00905420D01*
Y00979550D01*
X00748100Y00980826D01*
X00747378Y00981908D01*
X00738527Y00990758D01*
X00738667Y00992036D01*
X00739791Y00992502D01*
X00741776Y00994025D01*
X00743298Y00996009D01*
X00744256Y00998320D01*
X00744582Y01000800D01*
X00744256Y01003280D01*
X00743298Y01005591D01*
X00741776Y01007576D01*
X00739791Y01009098D01*
X00737480Y01010055D01*
X00735000Y01010382D01*
D02*
G37*
G36*
X00691500Y00990730D02*
X00684270D01*
Y00985500D01*
X00691500D01*
Y00990730D01*
D02*
G37*
G36*
X00681730D02*
X00674500D01*
Y00985500D01*
X00681730D01*
Y00990730D01*
D02*
G37*
G36*
X00661000Y00978422D02*
X00658820Y00978135D01*
X00656789Y00977294D01*
X00655045Y00975955D01*
X00653706Y00974211D01*
X00652865Y00972180D01*
X00652578Y00970000D01*
X00652865Y00967820D01*
X00653706Y00965789D01*
X00655045Y00964045D01*
X00656789Y00962706D01*
X00658820Y00961865D01*
X00661000Y00961578D01*
X00663180Y00961865D01*
X00665211Y00962706D01*
X00666955Y00964045D01*
X00668294Y00965789D01*
X00668657Y00966666D01*
X00674500D01*
Y00963500D01*
X00679666D01*
Y00958500D01*
X00676500D01*
Y00941500D01*
X00689500D01*
Y00958500D01*
X00686334D01*
Y00963500D01*
X00691500D01*
Y00976500D01*
X00674500D01*
Y00973334D01*
X00668657D01*
X00668294Y00974211D01*
X00666955Y00975955D01*
X00665211Y00977294D01*
X00663180Y00978135D01*
X00661000Y00978422D01*
D02*
G37*
G36*
X00733730Y00934100D02*
X00725500D01*
Y00925870D01*
X00733730D01*
Y00934100D01*
D02*
G37*
G36*
Y00923330D02*
X00725500D01*
Y00915100D01*
X00733730D01*
Y00923330D01*
D02*
G37*
G36*
X00691500Y00899500D02*
X00684270D01*
Y00894270D01*
X00691500D01*
Y00899500D01*
D02*
G37*
G36*
X00681730D02*
X00674500D01*
Y00894270D01*
X00681730D01*
Y00899500D01*
D02*
G37*
G36*
X00691500Y00891730D02*
X00684270D01*
Y00886500D01*
X00691500D01*
Y00891730D01*
D02*
G37*
G36*
X00681730D02*
X00674500D01*
Y00886500D01*
X00681730D01*
Y00891730D01*
D02*
G37*
G36*
X00694130Y00831204D02*
X00627498D01*
X00626222Y00830950D01*
X00625141Y00830228D01*
X00623775Y00828861D01*
X00623211Y00829294D01*
X00621180Y00830135D01*
X00619000Y00830422D01*
X00616820Y00830135D01*
X00614789Y00829294D01*
X00613045Y00827955D01*
X00611706Y00826211D01*
X00610865Y00824180D01*
X00610578Y00822000D01*
X00610865Y00819820D01*
X00611706Y00817789D01*
X00613045Y00816045D01*
X00614789Y00814706D01*
X00616820Y00813865D01*
X00619000Y00813578D01*
X00621180Y00813865D01*
X00623211Y00814706D01*
X00624955Y00816045D01*
X00626294Y00817789D01*
X00627135Y00819820D01*
X00627422Y00822000D01*
X00627297Y00822953D01*
X00628879Y00824536D01*
X00672287D01*
X00672849Y00823397D01*
X00672706Y00823211D01*
X00671865Y00821180D01*
X00671578Y00819000D01*
X00671865Y00816820D01*
X00672706Y00814789D01*
X00674045Y00813045D01*
X00675143Y00812202D01*
Y00804709D01*
X00675397Y00803433D01*
X00676119Y00802352D01*
X00679666Y00798805D01*
Y00787945D01*
X00673643Y00781921D01*
X00672920Y00780840D01*
X00672666Y00779564D01*
Y00744268D01*
X00671724Y00744080D01*
X00671338Y00743822D01*
X00669500D01*
Y00746500D01*
X00652500D01*
Y00733500D01*
X00669500D01*
Y00737154D01*
X00673000D01*
X00674276Y00737408D01*
X00674662Y00737666D01*
X00682500D01*
Y00732500D01*
X00695500D01*
Y00732500D01*
X00696666Y00732249D01*
Y00724500D01*
X00695900D01*
Y00705500D01*
X00714900D01*
Y00724500D01*
X00703334D01*
Y00732249D01*
X00704500Y00732500D01*
X00704604Y00732500D01*
X00717500D01*
Y00736666D01*
X00726098D01*
X00726702Y00735209D01*
X00728225Y00733224D01*
X00730209Y00731702D01*
X00732520Y00730744D01*
X00735000Y00730418D01*
X00737480Y00730744D01*
X00739791Y00731702D01*
X00741776Y00733224D01*
X00743298Y00735209D01*
X00744256Y00737520D01*
X00744582Y00740000D01*
X00744256Y00742480D01*
X00743298Y00744791D01*
X00741776Y00746775D01*
X00739791Y00748298D01*
X00737480Y00749255D01*
X00735000Y00749582D01*
X00732520Y00749255D01*
X00730209Y00748298D01*
X00728225Y00746775D01*
X00726702Y00744791D01*
X00726098Y00743334D01*
X00717500D01*
Y00749500D01*
X00704604D01*
X00704500Y00749500D01*
X00703334Y00749751D01*
Y00750512D01*
X00703080Y00751788D01*
X00702357Y00752870D01*
X00701997Y00753230D01*
X00702500Y00754500D01*
X00702500D01*
Y00759730D01*
X00694000D01*
Y00761000D01*
X00692730D01*
Y00767500D01*
X00686334D01*
Y00772619D01*
X00690215Y00776500D01*
X00702500D01*
Y00789500D01*
X00701028D01*
X00700597Y00790770D01*
X00700955Y00791045D01*
X00702294Y00792789D01*
X00703135Y00794820D01*
X00703422Y00797000D01*
X00703135Y00799180D01*
X00702294Y00801211D01*
X00700955Y00802955D01*
X00699211Y00804294D01*
X00698913Y00804417D01*
X00699085Y00805721D01*
X00700180Y00805865D01*
X00702211Y00806706D01*
X00703955Y00808045D01*
X00705294Y00809789D01*
X00706135Y00811820D01*
X00706422Y00814000D01*
X00706135Y00816180D01*
X00705294Y00818211D01*
X00703955Y00819955D01*
X00702211Y00821294D01*
X00700180Y00822135D01*
X00699904Y00822171D01*
Y00825430D01*
X00699650Y00826706D01*
X00698928Y00827788D01*
X00696488Y00830228D01*
X00695406Y00830950D01*
X00694130Y00831204D01*
D02*
G37*
G36*
X00474500Y00829100D02*
X00466270D01*
Y00820870D01*
X00474500D01*
Y00829100D01*
D02*
G37*
G36*
X00733730Y00828700D02*
X00725500D01*
Y00820470D01*
X00733730D01*
Y00828700D01*
D02*
G37*
G36*
X00474500Y00818330D02*
X00466270D01*
Y00810100D01*
X00474500D01*
Y00818330D01*
D02*
G37*
G36*
X00733730Y00817930D02*
X00725500D01*
Y00809700D01*
X00733730D01*
Y00817930D01*
D02*
G37*
G36*
X00644500Y00809500D02*
X00639270D01*
Y00802270D01*
X00644500D01*
Y00809500D01*
D02*
G37*
G36*
X00636730D02*
X00631500D01*
Y00802270D01*
X00636730D01*
Y00809500D01*
D02*
G37*
G36*
X00644500Y00799730D02*
X00639270D01*
Y00792500D01*
X00644500D01*
Y00799730D01*
D02*
G37*
G36*
X00636730D02*
X00631500D01*
Y00792500D01*
X00636730D01*
Y00799730D01*
D02*
G37*
G36*
X00644500Y00773500D02*
X00639270D01*
Y00766270D01*
X00644500D01*
Y00773500D01*
D02*
G37*
G36*
X00636730D02*
X00631500D01*
Y00766270D01*
X00636730D01*
Y00773500D01*
D02*
G37*
G36*
X00669500Y00768500D02*
X00662270D01*
Y00763270D01*
X00669500D01*
Y00768500D01*
D02*
G37*
G36*
X00501500Y00770500D02*
X00496270D01*
Y00763270D01*
X00501500D01*
Y00770500D01*
D02*
G37*
G36*
X00493730D02*
X00488500D01*
Y00763270D01*
X00493730D01*
Y00770500D01*
D02*
G37*
G36*
X00659730Y00768500D02*
X00652500D01*
Y00763270D01*
X00659730D01*
Y00768500D01*
D02*
G37*
G36*
X00702500Y00767500D02*
X00695270D01*
Y00762270D01*
X00702500D01*
Y00767500D01*
D02*
G37*
G36*
X00644500Y00763730D02*
X00639270D01*
Y00756500D01*
X00644500D01*
Y00763730D01*
D02*
G37*
G36*
X00636730D02*
X00631500D01*
Y00756500D01*
X00636730D01*
Y00763730D01*
D02*
G37*
G36*
X00465000Y00775382D02*
X00462520Y00775055D01*
X00460209Y00774098D01*
X00458225Y00772575D01*
X00456702Y00770591D01*
X00455745Y00768280D01*
X00455418Y00765800D01*
X00455745Y00763320D01*
X00456702Y00761009D01*
X00458225Y00759025D01*
X00460209Y00757502D01*
X00462520Y00756544D01*
X00465000Y00756218D01*
X00467480Y00756544D01*
X00469791Y00757502D01*
X00471776Y00759025D01*
X00473298Y00761009D01*
X00474255Y00763320D01*
X00474582Y00765800D01*
X00474255Y00768280D01*
X00473298Y00770591D01*
X00471776Y00772575D01*
X00469791Y00774098D01*
X00467480Y00775055D01*
X00465000Y00775382D01*
D02*
G37*
G36*
X00735000Y00774982D02*
X00732520Y00774655D01*
X00730209Y00773698D01*
X00728225Y00772175D01*
X00726702Y00770191D01*
X00725744Y00767880D01*
X00725418Y00765400D01*
X00725744Y00762920D01*
X00726702Y00760609D01*
X00728225Y00758624D01*
X00730209Y00757102D01*
X00732520Y00756144D01*
X00735000Y00755818D01*
X00737480Y00756144D01*
X00739791Y00757102D01*
X00741776Y00758624D01*
X00743298Y00760609D01*
X00744256Y00762920D01*
X00744582Y00765400D01*
X00744256Y00767880D01*
X00743298Y00770191D01*
X00741776Y00772175D01*
X00739791Y00773698D01*
X00737480Y00774655D01*
X00735000Y00774982D01*
D02*
G37*
G36*
X00669500Y00760730D02*
X00662270D01*
Y00755500D01*
X00669500D01*
Y00760730D01*
D02*
G37*
G36*
X00659730D02*
X00652500D01*
Y00755500D01*
X00659730D01*
Y00760730D01*
D02*
G37*
G36*
X00501500D02*
X00496270D01*
Y00753500D01*
X00501500D01*
Y00760730D01*
D02*
G37*
G36*
X00493730D02*
X00488500D01*
Y00753500D01*
X00493730D01*
Y00760730D01*
D02*
G37*
G36*
X00465000Y00749982D02*
X00462520Y00749655D01*
X00460209Y00748698D01*
X00458225Y00747175D01*
X00456702Y00745191D01*
X00455745Y00742880D01*
X00455418Y00740400D01*
X00455745Y00737920D01*
X00456702Y00735609D01*
X00458225Y00733624D01*
X00460209Y00732102D01*
X00462520Y00731144D01*
X00465000Y00730818D01*
X00467480Y00731144D01*
X00469791Y00732102D01*
X00471776Y00733624D01*
X00473298Y00735609D01*
X00473902Y00737066D01*
X00488500D01*
Y00731500D01*
X00501500D01*
Y00748500D01*
X00488500D01*
Y00743734D01*
X00473902D01*
X00473298Y00745191D01*
X00471776Y00747175D01*
X00469791Y00748698D01*
X00467480Y00749655D01*
X00465000Y00749982D01*
D02*
G37*
G36*
X00653330Y00724415D02*
X00652120Y00724255D01*
X00649809Y00723298D01*
X00647825Y00721775D01*
X00646302Y00719791D01*
X00645345Y00717480D01*
X00645185Y00716270D01*
X00653330D01*
Y00724415D01*
D02*
G37*
G36*
X00474500Y00724500D02*
X00466270D01*
Y00716270D01*
X00474500D01*
Y00724500D01*
D02*
G37*
G36*
X00463730D02*
X00455500D01*
Y00716270D01*
X00463730D01*
Y00724500D01*
D02*
G37*
G36*
X00744500Y00724100D02*
X00736270D01*
Y00715870D01*
X00744500D01*
Y00724100D01*
D02*
G37*
G36*
X00733730D02*
X00725500D01*
Y00715870D01*
X00733730D01*
Y00724100D01*
D02*
G37*
G36*
X00474500Y00713730D02*
X00466270D01*
Y00705500D01*
X00474500D01*
Y00713730D01*
D02*
G37*
G36*
X00463730D02*
X00455500D01*
Y00705500D01*
X00463730D01*
Y00713730D01*
D02*
G37*
G36*
X00744500Y00713330D02*
X00736270D01*
Y00705100D01*
X00744500D01*
Y00713330D01*
D02*
G37*
G36*
X00733730D02*
X00725500D01*
Y00705100D01*
X00733730D01*
Y00713330D01*
D02*
G37*
%LPD*%
G36*
X00527446Y01082409D02*
Y01036288D01*
X00527700Y01035012D01*
X00528423Y01033931D01*
X00548906Y01013447D01*
Y00978713D01*
X00547767Y00978151D01*
X00547581Y00978294D01*
X00545550Y00979135D01*
X00543370Y00979422D01*
X00541190Y00979135D01*
X00539159Y00978294D01*
X00537415Y00976955D01*
X00536076Y00975211D01*
X00535713Y00974334D01*
X00525500D01*
Y00977500D01*
X00511314D01*
Y00986500D01*
X00515730D01*
Y00993000D01*
Y00999500D01*
X00511314D01*
Y01075044D01*
X00512280Y01076010D01*
X00512920Y01075744D01*
X00515400Y01075418D01*
X00517880Y01075744D01*
X00520191Y01076702D01*
X00522175Y01078224D01*
X00523698Y01080209D01*
X00524655Y01082520D01*
X00524780Y01083465D01*
X00525982Y01083873D01*
X00527446Y01082409D01*
D02*
G37*
G36*
X00488500Y00941500D02*
X00500856D01*
Y00853500D01*
X00488500D01*
Y00848334D01*
X00473902D01*
X00473298Y00849791D01*
X00471776Y00851776D01*
X00469791Y00853298D01*
X00467480Y00854256D01*
X00465000Y00854582D01*
X00462520Y00854256D01*
X00460209Y00853298D01*
X00459453Y00852718D01*
X00458314Y00853280D01*
Y00862120D01*
X00459453Y00862682D01*
X00460209Y00862102D01*
X00462520Y00861145D01*
X00465000Y00860818D01*
X00467480Y00861145D01*
X00469791Y00862102D01*
X00471776Y00863625D01*
X00473298Y00865609D01*
X00474255Y00867920D01*
X00474582Y00870400D01*
X00474255Y00872880D01*
X00473298Y00875191D01*
X00471776Y00877176D01*
X00469791Y00878698D01*
X00467480Y00879656D01*
X00465000Y00879982D01*
X00462520Y00879656D01*
X00460209Y00878698D01*
X00459453Y00878118D01*
X00458314Y00878680D01*
Y00884399D01*
X00461063Y00887148D01*
X00462520Y00886545D01*
X00465000Y00886218D01*
X00467480Y00886545D01*
X00469791Y00887502D01*
X00471776Y00889025D01*
X00473298Y00891009D01*
X00474255Y00893320D01*
X00474582Y00895800D01*
X00474255Y00898280D01*
X00473298Y00900591D01*
X00471776Y00902576D01*
X00469791Y00904098D01*
X00467480Y00905055D01*
X00465000Y00905382D01*
X00462520Y00905055D01*
X00461063Y00904452D01*
X00458314Y00907201D01*
Y00915100D01*
X00463730D01*
Y00924600D01*
Y00934100D01*
X00458314D01*
Y00941720D01*
X00459453Y00942282D01*
X00460209Y00941702D01*
X00462520Y00940744D01*
X00465000Y00940418D01*
X00467480Y00940744D01*
X00469791Y00941702D01*
X00471776Y00943225D01*
X00473298Y00945209D01*
X00473902Y00946666D01*
X00488500D01*
Y00941500D01*
D02*
G37*
G36*
X00536076Y00966789D02*
X00537415Y00965045D01*
X00539159Y00963706D01*
X00541190Y00962865D01*
X00543370Y00962578D01*
X00545550Y00962865D01*
X00547581Y00963706D01*
X00547767Y00963849D01*
X00548906Y00963287D01*
Y00916621D01*
X00545057Y00912772D01*
X00544180Y00913135D01*
X00542000Y00913422D01*
X00539820Y00913135D01*
X00537789Y00912294D01*
X00536045Y00910955D01*
X00534706Y00909211D01*
X00533865Y00907180D01*
X00533578Y00905000D01*
X00533865Y00902820D01*
X00534706Y00900789D01*
X00536045Y00899045D01*
X00537789Y00897706D01*
X00539820Y00896865D01*
X00542000Y00896578D01*
X00544180Y00896865D01*
X00545057Y00897228D01*
X00550121Y00892164D01*
Y00867447D01*
X00546878Y00864204D01*
X00542326D01*
X00541050Y00863950D01*
X00539968Y00863228D01*
X00534772Y00858032D01*
X00534050Y00856950D01*
X00533796Y00855674D01*
Y00826870D01*
X00534050Y00825594D01*
X00534772Y00824512D01*
X00538228Y00821057D01*
X00537865Y00820180D01*
X00537578Y00818000D01*
X00537865Y00815820D01*
X00538706Y00813789D01*
X00540045Y00812045D01*
X00541789Y00810706D01*
X00543820Y00809865D01*
X00546000Y00809578D01*
X00548180Y00809865D01*
X00550211Y00810706D01*
X00551955Y00812045D01*
X00553294Y00813789D01*
X00554135Y00815820D01*
X00554422Y00818000D01*
X00554135Y00820180D01*
X00553294Y00822211D01*
X00551955Y00823955D01*
X00551113Y00824602D01*
X00551002Y00826287D01*
X00556327Y00831612D01*
X00557500Y00831126D01*
Y00826270D01*
X00562730D01*
Y00833500D01*
X00559874D01*
X00559388Y00834673D01*
X00560381Y00835666D01*
X00575619D01*
X00579500Y00831785D01*
Y00816500D01*
X00583666D01*
Y00807500D01*
X00579500D01*
Y00790500D01*
X00583666D01*
Y00782500D01*
X00579500D01*
Y00771851D01*
X00579494Y00771850D01*
X00578413Y00771127D01*
X00575599Y00768314D01*
X00570500D01*
Y00772730D01*
X00557500D01*
Y00768314D01*
X00546076D01*
X00544800Y00768060D01*
X00543718Y00767337D01*
X00530717Y00754336D01*
X00529544Y00754822D01*
Y00761829D01*
X00541903Y00774189D01*
X00542584Y00773907D01*
X00544764Y00773620D01*
X00546944Y00773907D01*
X00548975Y00774748D01*
X00550719Y00776087D01*
X00552057Y00777831D01*
X00552899Y00779862D01*
X00553186Y00782042D01*
X00552899Y00784221D01*
X00552057Y00786253D01*
X00550719Y00787997D01*
X00548975Y00789335D01*
X00548328Y00789603D01*
X00548247Y00790294D01*
X00548390Y00790952D01*
X00550211Y00791706D01*
X00551955Y00793045D01*
X00553294Y00794789D01*
X00554135Y00796820D01*
X00554422Y00799000D01*
X00554135Y00801180D01*
X00553294Y00803211D01*
X00551955Y00804955D01*
X00550211Y00806294D01*
X00548180Y00807135D01*
X00546000Y00807422D01*
X00543820Y00807135D01*
X00542943Y00806772D01*
X00531923Y00817792D01*
X00530842Y00818514D01*
X00529566Y00818768D01*
X00523851D01*
X00511314Y00831305D01*
Y00836500D01*
X00523500D01*
Y00853500D01*
X00520334D01*
Y00861500D01*
X00525500D01*
Y00869785D01*
X00526648Y00870933D01*
X00527518D01*
X00528794Y00871187D01*
X00529875Y00871909D01*
X00530157Y00872191D01*
X00530789Y00871706D01*
X00532820Y00870865D01*
X00535000Y00870578D01*
X00537180Y00870865D01*
X00539211Y00871706D01*
X00540955Y00873045D01*
X00542294Y00874789D01*
X00543135Y00876820D01*
X00543422Y00879000D01*
X00543135Y00881180D01*
X00542294Y00883211D01*
X00540955Y00884955D01*
X00539211Y00886294D01*
X00537180Y00887135D01*
X00535000Y00887422D01*
X00532820Y00887135D01*
X00530789Y00886294D01*
X00529045Y00884955D01*
X00527706Y00883211D01*
X00526865Y00881180D01*
X00526578Y00879000D01*
X00526621Y00878670D01*
X00525653Y00877601D01*
X00525267D01*
X00523991Y00877347D01*
X00522910Y00876625D01*
X00520785Y00874500D01*
X00511314D01*
Y00883500D01*
X00515730D01*
Y00890000D01*
Y00896500D01*
X00511314D01*
Y00941500D01*
X00523500D01*
Y00958500D01*
X00520334D01*
Y00964500D01*
X00525500D01*
Y00967666D01*
X00535713D01*
X00536076Y00966789D01*
D02*
G37*
%LPC*%
G36*
X00525500Y00999500D02*
X00518270D01*
Y00994270D01*
X00525500D01*
Y00999500D01*
D02*
G37*
G36*
Y00991730D02*
X00518270D01*
Y00986500D01*
X00525500D01*
Y00991730D01*
D02*
G37*
G36*
X00474500Y00934100D02*
X00466270D01*
Y00925870D01*
X00474500D01*
Y00934100D01*
D02*
G37*
G36*
Y00923330D02*
X00466270D01*
Y00915100D01*
X00474500D01*
Y00923330D01*
D02*
G37*
G36*
X00525500Y00896500D02*
X00518270D01*
Y00891270D01*
X00525500D01*
Y00896500D01*
D02*
G37*
G36*
Y00888730D02*
X00518270D01*
Y00883500D01*
X00525500D01*
Y00888730D01*
D02*
G37*
G36*
X00570500Y00833500D02*
X00565270D01*
Y00826270D01*
X00570500D01*
Y00833500D01*
D02*
G37*
G36*
Y00823730D02*
X00565270D01*
Y00816500D01*
X00570500D01*
Y00823730D01*
D02*
G37*
G36*
X00562730D02*
X00557500D01*
Y00816500D01*
X00562730D01*
Y00823730D01*
D02*
G37*
G36*
X00570500Y00807500D02*
X00565270D01*
Y00800270D01*
X00570500D01*
Y00807500D01*
D02*
G37*
G36*
X00562730D02*
X00557500D01*
Y00800270D01*
X00562730D01*
Y00807500D01*
D02*
G37*
G36*
X00570500Y00797730D02*
X00565270D01*
Y00790500D01*
X00570500D01*
Y00797730D01*
D02*
G37*
G36*
X00562730D02*
X00557500D01*
Y00790500D01*
X00562730D01*
Y00797730D01*
D02*
G37*
G36*
X00570500Y00782500D02*
X00565270D01*
Y00775270D01*
X00570500D01*
Y00782500D01*
D02*
G37*
G36*
X00562730D02*
X00557500D01*
Y00775270D01*
X00562730D01*
Y00782500D01*
D02*
G37*
%LPD*%
D13*
X00696570Y00815430D02*
X00698000Y00814000D01*
X00694130Y00827870D02*
X00696570Y00825430D01*
Y00815430D02*
Y00825430D01*
X00525267Y00874267D02*
X00527518D01*
X00532251Y00879000D02*
X00535000D01*
X00527518Y00874267D02*
X00532251Y00879000D01*
X00519000Y00868000D02*
X00525267Y00874267D01*
X00600000Y00809000D02*
Y00825564D01*
X00576564Y00849000D02*
X00600000Y00825564D01*
X00678477Y00804709D02*
X00683000Y00800186D01*
X00678477Y00804709D02*
Y00817477D01*
X00683000Y00786564D02*
Y00800186D01*
X00678477Y00817477D02*
X00680000Y00819000D01*
X00627498Y00827870D02*
X00694130D01*
X00621628Y00822000D02*
X00627498Y00827870D01*
X00619000Y00822000D02*
X00621628D01*
X00695000Y00784000D02*
Y00797000D01*
X00694000Y00783000D02*
X00695000Y00784000D01*
X00546644Y00826644D02*
X00559000Y00839000D01*
X00577000D01*
X00546000Y00818000D02*
X00546644Y00818644D01*
Y00826644D01*
X00582846Y00828154D02*
Y00833154D01*
X00577000Y00839000D02*
X00582846Y00833154D01*
Y00828154D02*
X00586000Y00825000D01*
X00587000Y00799000D02*
Y00824349D01*
X00537130Y00826870D02*
X00546000Y00818000D01*
X00548000Y00849000D02*
X00576564D01*
X00517000Y00868000D02*
X00519000D01*
X00507000Y00813000D02*
X00517000Y00803000D01*
X00505000Y00813000D02*
X00507000D01*
X00576980Y00764980D02*
X00580770Y00768770D01*
X00546076Y00764980D02*
X00576980D01*
X00530000Y00748904D02*
X00546076Y00764980D01*
X00545011Y00746011D02*
X00546020Y00747020D01*
X00565020D02*
X00568000Y00750000D01*
X00558110Y00758000D02*
X00560000Y00756110D01*
X00544456Y00758000D02*
X00558110D01*
X00546020Y00747020D02*
X00565020D01*
X00568000Y00750000D02*
X00574000D01*
X00585646Y00761646D02*
X00590646D01*
X00574000Y00750000D02*
X00585646Y00761646D01*
X00590646D02*
X00600000Y00771000D01*
Y00784000D01*
X00551478Y00727000D02*
X00617200D01*
X00536141Y00742337D02*
X00551478Y00727000D01*
X00536141Y00742337D02*
Y00749685D01*
X00544456Y00758000D01*
X00582770Y00768770D02*
X00586000Y00772000D01*
Y00774000D01*
X00580770Y00768770D02*
X00582770D01*
X00587000Y00776000D02*
Y00798000D01*
X00519000Y00725000D02*
X00526210Y00732210D01*
Y00763210D02*
X00544764Y00781764D01*
X00526210Y00732210D02*
Y00763210D01*
X00530000Y00715000D02*
Y00748904D01*
X00524020Y00704980D02*
X00658750D01*
X00519000Y00710000D02*
Y00725000D01*
Y00710000D02*
X00524020Y00704980D01*
X00544764Y00781764D02*
Y00782042D01*
X00597000Y00738000D02*
X00599000Y00736000D01*
X00618000D01*
X00683000Y00755000D02*
X00686000Y00752000D01*
X00698512D01*
X00683000Y00755000D02*
Y00774000D01*
X00692000Y00783000D01*
X00676000Y00742000D02*
X00677000Y00741000D01*
X00689000D01*
X00673000D02*
X00676000D01*
X00677000D01*
X00676000Y00742000D02*
Y00779564D01*
X00683000Y00786564D01*
X00692000Y00783000D02*
X00694000D01*
X00700000Y00720400D02*
Y00750512D01*
X00698512Y00752000D02*
X00700000Y00750512D01*
Y00720400D02*
X00705400Y00715000D01*
X00552240Y00915240D02*
Y01014828D01*
X00542000Y00905000D02*
X00553455Y00893545D01*
X00542000Y00905000D02*
X00552240Y00915240D01*
X00553455Y00866066D02*
Y00893545D01*
X00537130Y00826870D02*
Y00855674D01*
X00542326Y00860870D01*
X00548259D01*
X00553455Y00866066D01*
X00625200Y01000800D02*
X00735000D01*
X00617200Y00727000D02*
X00629200Y00715000D01*
X00658750Y00704980D02*
X00668690Y00714920D01*
X00679920D01*
X00680000Y00715000D01*
X00507980Y00829924D02*
X00522470Y00815434D01*
X00529566D02*
X00546000Y00799000D01*
X00522470Y00815434D02*
X00529566D01*
X00504190Y00828354D02*
Y00955374D01*
X00507980Y00829924D02*
Y01076425D01*
X00504190Y00828354D02*
X00527944Y00804600D01*
X00526000Y00787000D02*
X00527944Y00788944D01*
Y00804600D01*
X00517000Y00762000D02*
Y00803000D01*
X00616000Y00770000D02*
Y00798178D01*
X00588000Y00798000D02*
X00616000D01*
X00587000Y00799000D02*
X00588000Y00798000D01*
X00517000Y00971000D02*
X00543370D01*
X00530780Y01036288D02*
Y01083790D01*
Y01036288D02*
X00552240Y01014828D01*
X00519550Y01095020D02*
X00530780Y01083790D01*
X00485850Y01095020D02*
X00519550D01*
X00475910Y01085080D02*
X00485850Y01095020D01*
X00464680Y01085080D02*
X00475910D01*
X00464600Y01085000D02*
X00464680Y01085080D01*
X00490000Y00969564D02*
Y01085000D01*
X00515400Y01083845D02*
Y01085000D01*
X00507980Y01076425D02*
X00515400Y01083845D01*
X00490000Y00969564D02*
X00504190Y00955374D01*
X00454980Y00990780D02*
X00465000Y01000800D01*
X00454980Y00905820D02*
Y00990780D01*
Y00905820D02*
X00465000Y00895800D01*
X00454980Y00885780D02*
X00465000Y00895800D01*
X00454980Y00801220D02*
Y00885780D01*
Y00801220D02*
X00465000Y00791200D01*
X00735000Y00895400D02*
X00735080Y00895320D01*
Y00884090D02*
Y00895320D01*
Y00884090D02*
X00745020Y00874150D01*
Y00800820D02*
Y00874150D01*
X00735000Y00790800D02*
X00745020Y00800820D01*
Y00905420D02*
Y00979550D01*
X00735000Y00895400D02*
X00745020Y00905420D01*
X00735000Y01000800D02*
X00735080Y01000720D01*
Y00989490D02*
Y01000720D01*
Y00989490D02*
X00745020Y00979550D01*
X00656398Y00739000D02*
X00657886Y00740488D01*
X00673000D01*
X00683000Y00845000D02*
Y00871000D01*
Y00843000D02*
Y00845000D01*
X00703000Y00871000D02*
X00711000Y00863000D01*
X00683000Y00871000D02*
X00703000D01*
X00661000Y00970000D02*
X00683000D01*
Y00950000D02*
Y00970000D01*
X00656000Y00741000D02*
X00658000Y00743000D01*
X00517000Y00950000D02*
Y00971000D01*
Y00845000D02*
Y00868000D01*
Y00740000D02*
Y00761000D01*
X00465000Y00740400D02*
X00494600D01*
X00495000Y00740000D01*
X00465000Y00845000D02*
X00495000D01*
X00465000Y00950000D02*
X00495000D01*
X00705000D02*
X00735000D01*
X00705400Y00844600D02*
X00735000D01*
X00705000Y00845000D02*
X00705400Y00844600D01*
X00712000Y00740000D02*
X00735000D01*
X00711000Y00741000D02*
X00712000Y00740000D01*
D31*
X00683000Y00970000D02*
D03*
Y00992000D02*
D03*
X00517000Y00971000D02*
D03*
Y00993000D02*
D03*
Y00868000D02*
D03*
Y00890000D02*
D03*
X00694000Y00761000D02*
D03*
Y00783000D02*
D03*
X00661000Y00740000D02*
D03*
Y00762000D02*
D03*
X00683000Y00871000D02*
D03*
Y00893000D02*
D03*
D42*
X00705400Y00715000D02*
D03*
X00540800Y01085000D02*
D03*
X00735400D02*
D03*
D43*
X00680000Y00715000D02*
D03*
X00654600D02*
D03*
X00629200D02*
D03*
X00603800D02*
D03*
X00465000Y00740400D02*
D03*
Y00765800D02*
D03*
Y00791200D02*
D03*
Y00845000D02*
D03*
Y00870400D02*
D03*
Y00895800D02*
D03*
Y00950000D02*
D03*
Y00975400D02*
D03*
Y01000800D02*
D03*
X00515400Y01085000D02*
D03*
X00490000D02*
D03*
X00464600D02*
D03*
X00710000D02*
D03*
X00684600D02*
D03*
X00659200D02*
D03*
X00735000Y00950000D02*
D03*
Y00975400D02*
D03*
Y01000800D02*
D03*
Y00844600D02*
D03*
Y00870000D02*
D03*
Y00895400D02*
D03*
Y00740000D02*
D03*
Y00765400D02*
D03*
Y00790800D02*
D03*
D44*
X00465000Y00715000D02*
D03*
Y00819600D02*
D03*
Y00924600D02*
D03*
X00735000D02*
D03*
Y00819200D02*
D03*
Y00714600D02*
D03*
D45*
X00698000Y00814000D02*
D03*
X00714000Y00826000D02*
D03*
X00535000Y00879000D02*
D03*
X00600000Y00809000D02*
D03*
X00680000Y00819000D02*
D03*
X00695000Y00797000D02*
D03*
X00548000Y00849000D02*
D03*
X00628000Y00781000D02*
D03*
X00640000Y00735000D02*
D03*
X00525000Y01024000D02*
D03*
X00505000Y00813000D02*
D03*
X00508000Y00797000D02*
D03*
X00527000Y00919000D02*
D03*
X00619000Y00822000D02*
D03*
X00560000Y00756110D02*
D03*
X00545011Y00746011D02*
D03*
X00530000Y00715000D02*
D03*
X00544764Y00782042D02*
D03*
X00618000Y00736000D02*
D03*
X00671000Y00792000D02*
D03*
X00714000Y00762000D02*
D03*
X00535000Y00956000D02*
D03*
X00640000Y00964000D02*
D03*
X00589000Y00981000D02*
D03*
X00542000Y00905000D02*
D03*
X00546000Y00818000D02*
D03*
X00625200Y01000800D02*
D03*
X00546000Y00799000D02*
D03*
X00526000Y00787000D02*
D03*
X00600000Y00784000D02*
D03*
X00543370Y00971000D02*
D03*
X00713000Y00862000D02*
D03*
X00661000Y00970000D02*
D03*
D46*
X00770000Y00680000D02*
D03*
X00430000D02*
D03*
Y01120000D02*
D03*
X00770000D02*
D03*
D47*
X00683000Y00950000D02*
D03*
X00705000D02*
D03*
X00517000D02*
D03*
X00495000D02*
D03*
X00517000Y00845000D02*
D03*
X00495000D02*
D03*
X00564000Y00825000D02*
D03*
X00586000D02*
D03*
X00564000Y00799000D02*
D03*
X00586000D02*
D03*
X00517000Y00762000D02*
D03*
X00495000D02*
D03*
X00517000Y00740000D02*
D03*
X00495000D02*
D03*
X00564000Y00774000D02*
D03*
X00586000D02*
D03*
X00638000Y00801000D02*
D03*
X00616000D02*
D03*
X00638000Y00765000D02*
D03*
X00616000D02*
D03*
X00689000Y00741000D02*
D03*
X00711000D02*
D03*
X00596000Y00738000D02*
D03*
X00574000D02*
D03*
X00683000Y00845000D02*
D03*
X00705000D02*
D03*
M02*
