G04*
G04 #@! TF.GenerationSoftware,Altium Limited,Altium Designer,22.7.1 (60)*
G04*
G04 Layer_Physical_Order=1*
G04 Layer_Color=255*
%FSAX44Y44*%
%MOMM*%
G71*
G04*
G04 #@! TF.SameCoordinates,3CFCEF84-9AD2-427F-86DD-3E0EAD2CE166*
G04*
G04*
G04 #@! TF.FilePolarity,Positive*
G04*
G01*
G75*
%ADD13C,0.2540*%
%ADD31R,1.3000X0.9000*%
G04:AMPARAMS|DCode=32|XSize=4.5mm|YSize=1.5mm|CornerRadius=0.375mm|HoleSize=0mm|Usage=FLASHONLY|Rotation=270.000|XOffset=0mm|YOffset=0mm|HoleType=Round|Shape=RoundedRectangle|*
%AMROUNDEDRECTD32*
21,1,4.5000,0.7500,0,0,270.0*
21,1,3.7500,1.5000,0,0,270.0*
1,1,0.7500,-0.3750,-1.8750*
1,1,0.7500,-0.3750,1.8750*
1,1,0.7500,0.3750,1.8750*
1,1,0.7500,0.3750,-1.8750*
%
%ADD32ROUNDEDRECTD32*%
G04:AMPARAMS|DCode=33|XSize=0.15mm|YSize=1.44mm|CornerRadius=0.0188mm|HoleSize=0mm|Usage=FLASHONLY|Rotation=180.000|XOffset=0mm|YOffset=0mm|HoleType=Round|Shape=RoundedRectangle|*
%AMROUNDEDRECTD33*
21,1,0.1500,1.4025,0,0,180.0*
21,1,0.1125,1.4400,0,0,180.0*
1,1,0.0375,-0.0563,0.7013*
1,1,0.0375,0.0563,0.7013*
1,1,0.0375,0.0563,-0.7013*
1,1,0.0375,-0.0563,-0.7013*
%
%ADD33ROUNDEDRECTD33*%
G04:AMPARAMS|DCode=34|XSize=1.44mm|YSize=0.18mm|CornerRadius=0.0225mm|HoleSize=0mm|Usage=FLASHONLY|Rotation=180.000|XOffset=0mm|YOffset=0mm|HoleType=Round|Shape=RoundedRectangle|*
%AMROUNDEDRECTD34*
21,1,1.4400,0.1350,0,0,180.0*
21,1,1.3950,0.1800,0,0,180.0*
1,1,0.0450,-0.6975,0.0675*
1,1,0.0450,0.6975,0.0675*
1,1,0.0450,0.6975,-0.0675*
1,1,0.0450,-0.6975,-0.0675*
%
%ADD34ROUNDEDRECTD34*%
G04:AMPARAMS|DCode=35|XSize=1.6mm|YSize=1.8mm|CornerRadius=0.16mm|HoleSize=0mm|Usage=FLASHONLY|Rotation=0.000|XOffset=0mm|YOffset=0mm|HoleType=Round|Shape=RoundedRectangle|*
%AMROUNDEDRECTD35*
21,1,1.6000,1.4800,0,0,0.0*
21,1,1.2800,1.8000,0,0,0.0*
1,1,0.3200,0.6400,-0.7400*
1,1,0.3200,-0.6400,-0.7400*
1,1,0.3200,-0.6400,0.7400*
1,1,0.3200,0.6400,0.7400*
%
%ADD35ROUNDEDRECTD35*%
%ADD36R,0.7000X1.2000*%
%ADD37R,2.0000X2.0000*%
G04:AMPARAMS|DCode=38|XSize=1.5mm|YSize=2.5mm|CornerRadius=0.15mm|HoleSize=0mm|Usage=FLASHONLY|Rotation=90.000|XOffset=0mm|YOffset=0mm|HoleType=Round|Shape=RoundedRectangle|*
%AMROUNDEDRECTD38*
21,1,1.5000,2.2000,0,0,90.0*
21,1,1.2000,2.5000,0,0,90.0*
1,1,0.3000,1.1000,0.6000*
1,1,0.3000,1.1000,-0.6000*
1,1,0.3000,-1.1000,-0.6000*
1,1,0.3000,-1.1000,0.6000*
%
%ADD38ROUNDEDRECTD38*%
G04:AMPARAMS|DCode=39|XSize=7mm|YSize=7mm|CornerRadius=0.35mm|HoleSize=0mm|Usage=FLASHONLY|Rotation=90.000|XOffset=0mm|YOffset=0mm|HoleType=Round|Shape=RoundedRectangle|*
%AMROUNDEDRECTD39*
21,1,7.0000,6.3000,0,0,90.0*
21,1,6.3000,7.0000,0,0,90.0*
1,1,0.7000,3.1500,3.1500*
1,1,0.7000,3.1500,-3.1500*
1,1,0.7000,-3.1500,-3.1500*
1,1,0.7000,-3.1500,3.1500*
%
%ADD39ROUNDEDRECTD39*%
G04:AMPARAMS|DCode=40|XSize=3.8mm|YSize=2mm|CornerRadius=0.2mm|HoleSize=0mm|Usage=FLASHONLY|Rotation=90.000|XOffset=0mm|YOffset=0mm|HoleType=Round|Shape=RoundedRectangle|*
%AMROUNDEDRECTD40*
21,1,3.8000,1.6000,0,0,90.0*
21,1,3.4000,2.0000,0,0,90.0*
1,1,0.4000,0.8000,1.7000*
1,1,0.4000,0.8000,-1.7000*
1,1,0.4000,-0.8000,-1.7000*
1,1,0.4000,-0.8000,1.7000*
%
%ADD40ROUNDEDRECTD40*%
G04:AMPARAMS|DCode=41|XSize=1.5mm|YSize=2mm|CornerRadius=0.15mm|HoleSize=0mm|Usage=FLASHONLY|Rotation=90.000|XOffset=0mm|YOffset=0mm|HoleType=Round|Shape=RoundedRectangle|*
%AMROUNDEDRECTD41*
21,1,1.5000,1.7000,0,0,90.0*
21,1,1.2000,2.0000,0,0,90.0*
1,1,0.3000,0.8500,0.6000*
1,1,0.3000,0.8500,-0.6000*
1,1,0.3000,-0.8500,-0.6000*
1,1,0.3000,-0.8500,0.6000*
%
%ADD41ROUNDEDRECTD41*%
%ADD42R,1.5000X1.5000*%
%ADD43C,1.5000*%
%ADD44R,1.5000X1.5000*%
%ADD45C,1.2700*%
%ADD46C,3.0000*%
G36*
X00764779Y01136181D02*
X00763463Y01135782D01*
X00760510Y01134203D01*
X00757921Y01132079D01*
X00755797Y01129490D01*
X00754218Y01126537D01*
X00753246Y01123333D01*
X00752918Y01120000D01*
X00753246Y01116667D01*
X00754218Y01113463D01*
X00755797Y01110510D01*
X00757921Y01107921D01*
X00760510Y01105797D01*
X00763463Y01104218D01*
X00766667Y01103246D01*
X00770000Y01102918D01*
X00773333Y01103246D01*
X00776537Y01104218D01*
X00779490Y01105797D01*
X00782079Y01107921D01*
X00784203Y01110510D01*
X00785782Y01113463D01*
X00786181Y01114779D01*
X00787451Y01114591D01*
Y00685409D01*
X00786181Y00685221D01*
X00785782Y00686537D01*
X00784203Y00689490D01*
X00782079Y00692079D01*
X00779490Y00694203D01*
X00776537Y00695782D01*
X00773333Y00696754D01*
X00770000Y00697082D01*
X00766667Y00696754D01*
X00763463Y00695782D01*
X00760510Y00694203D01*
X00757921Y00692079D01*
X00755797Y00689490D01*
X00754218Y00686537D01*
X00753246Y00683333D01*
X00752918Y00680000D01*
X00753246Y00676667D01*
X00754218Y00673463D01*
X00755797Y00670510D01*
X00757921Y00667921D01*
X00760510Y00665797D01*
X00763463Y00664218D01*
X00764779Y00663819D01*
X00764591Y00662549D01*
X00435409D01*
X00435221Y00663819D01*
X00436537Y00664218D01*
X00439490Y00665797D01*
X00442079Y00667921D01*
X00444203Y00670510D01*
X00445782Y00673463D01*
X00446754Y00676667D01*
X00447082Y00680000D01*
X00446754Y00683333D01*
X00445782Y00686537D01*
X00444203Y00689490D01*
X00442079Y00692079D01*
X00439490Y00694203D01*
X00436537Y00695782D01*
X00433333Y00696754D01*
X00430000Y00697082D01*
X00426667Y00696754D01*
X00423463Y00695782D01*
X00420510Y00694203D01*
X00417921Y00692079D01*
X00415797Y00689490D01*
X00414218Y00686537D01*
X00413819Y00685221D01*
X00412549Y00685409D01*
Y01114591D01*
X00413819Y01114779D01*
X00414218Y01113463D01*
X00415797Y01110510D01*
X00417921Y01107921D01*
X00420510Y01105797D01*
X00423463Y01104218D01*
X00426667Y01103246D01*
X00430000Y01102918D01*
X00433333Y01103246D01*
X00436537Y01104218D01*
X00439490Y01105797D01*
X00442079Y01107921D01*
X00444203Y01110510D01*
X00445782Y01113463D01*
X00446754Y01116667D01*
X00447082Y01120000D01*
X00446754Y01123333D01*
X00445782Y01126537D01*
X00444203Y01129490D01*
X00442079Y01132079D01*
X00439490Y01134203D01*
X00436537Y01135782D01*
X00435221Y01136181D01*
X00435409Y01137451D01*
X00764591D01*
X00764779Y01136181D01*
D02*
G37*
%LPC*%
G36*
X00550300Y01094500D02*
X00542070D01*
Y01086270D01*
X00550300D01*
Y01094500D01*
D02*
G37*
G36*
X00539530D02*
X00531300D01*
Y01086270D01*
X00539530D01*
Y01094500D01*
D02*
G37*
G36*
X00744900D02*
X00725900D01*
Y01075500D01*
X00744900D01*
Y01094500D01*
D02*
G37*
G36*
X00550300Y01083730D02*
X00542070D01*
Y01075500D01*
X00550300D01*
Y01083730D01*
D02*
G37*
G36*
X00539530D02*
X00531300D01*
Y01075500D01*
X00539530D01*
Y01083730D01*
D02*
G37*
G36*
X00710000Y01094582D02*
X00707520Y01094255D01*
X00705209Y01093298D01*
X00703225Y01091775D01*
X00701702Y01089791D01*
X00700744Y01087480D01*
X00700418Y01085000D01*
X00700744Y01082520D01*
X00701702Y01080209D01*
X00703225Y01078224D01*
X00705209Y01076702D01*
X00707520Y01075744D01*
X00710000Y01075418D01*
X00712480Y01075744D01*
X00714791Y01076702D01*
X00716776Y01078224D01*
X00718298Y01080209D01*
X00719256Y01082520D01*
X00719582Y01085000D01*
X00719256Y01087480D01*
X00718298Y01089791D01*
X00716776Y01091775D01*
X00714791Y01093298D01*
X00712480Y01094255D01*
X00710000Y01094582D01*
D02*
G37*
G36*
X00515400D02*
X00512920Y01094255D01*
X00510609Y01093298D01*
X00508625Y01091775D01*
X00507102Y01089791D01*
X00506145Y01087480D01*
X00505818Y01085000D01*
X00506145Y01082520D01*
X00507102Y01080209D01*
X00508625Y01078224D01*
X00510609Y01076702D01*
X00512920Y01075744D01*
X00515400Y01075418D01*
X00517880Y01075744D01*
X00520191Y01076702D01*
X00522175Y01078224D01*
X00523698Y01080209D01*
X00524655Y01082520D01*
X00524982Y01085000D01*
X00524655Y01087480D01*
X00523698Y01089791D01*
X00522175Y01091775D01*
X00520191Y01093298D01*
X00517880Y01094255D01*
X00515400Y01094582D01*
D02*
G37*
G36*
X00490000D02*
X00487520Y01094255D01*
X00485209Y01093298D01*
X00483225Y01091775D01*
X00481702Y01089791D01*
X00480745Y01087480D01*
X00480418Y01085000D01*
X00480745Y01082520D01*
X00481702Y01080209D01*
X00483225Y01078224D01*
X00485209Y01076702D01*
X00487520Y01075744D01*
X00490000Y01075418D01*
X00492480Y01075744D01*
X00494791Y01076702D01*
X00496776Y01078224D01*
X00498298Y01080209D01*
X00499255Y01082520D01*
X00499582Y01085000D01*
X00499255Y01087480D01*
X00498298Y01089791D01*
X00496776Y01091775D01*
X00494791Y01093298D01*
X00492480Y01094255D01*
X00490000Y01094582D01*
D02*
G37*
G36*
X00464600D02*
X00462120Y01094255D01*
X00459809Y01093298D01*
X00457825Y01091775D01*
X00456302Y01089791D01*
X00455345Y01087480D01*
X00455018Y01085000D01*
X00455345Y01082520D01*
X00456302Y01080209D01*
X00457825Y01078224D01*
X00459809Y01076702D01*
X00462120Y01075744D01*
X00464600Y01075418D01*
X00467080Y01075744D01*
X00469391Y01076702D01*
X00471376Y01078224D01*
X00472898Y01080209D01*
X00473856Y01082520D01*
X00474182Y01085000D01*
X00473856Y01087480D01*
X00472898Y01089791D01*
X00471376Y01091775D01*
X00469391Y01093298D01*
X00467080Y01094255D01*
X00464600Y01094582D01*
D02*
G37*
G36*
X00522000Y01062000D02*
X00511270D01*
Y01051270D01*
X00522000D01*
Y01062000D01*
D02*
G37*
G36*
X00508730D02*
X00498000D01*
Y01051270D01*
X00508730D01*
Y01062000D01*
D02*
G37*
G36*
X00684600Y01094582D02*
X00682120Y01094255D01*
X00679809Y01093298D01*
X00677825Y01091775D01*
X00676302Y01089791D01*
X00675344Y01087480D01*
X00675018Y01085000D01*
X00675344Y01082520D01*
X00676302Y01080209D01*
X00677825Y01078224D01*
X00679809Y01076702D01*
X00681266Y01076098D01*
Y01062000D01*
X00675800D01*
Y01038000D01*
X00699800D01*
Y01062000D01*
X00687934D01*
Y01076098D01*
X00689391Y01076702D01*
X00691376Y01078224D01*
X00692898Y01080209D01*
X00693856Y01082520D01*
X00694182Y01085000D01*
X00693856Y01087480D01*
X00692898Y01089791D01*
X00691376Y01091775D01*
X00689391Y01093298D01*
X00687080Y01094255D01*
X00684600Y01094582D01*
D02*
G37*
G36*
X00522000Y01048730D02*
X00511270D01*
Y01038000D01*
X00522000D01*
Y01048730D01*
D02*
G37*
G36*
X00508730D02*
X00498000D01*
Y01038000D01*
X00508730D01*
Y01048730D01*
D02*
G37*
G36*
X00735000Y01010382D02*
X00732520Y01010055D01*
X00730209Y01009098D01*
X00728225Y01007576D01*
X00726702Y01005591D01*
X00725744Y01003280D01*
X00725418Y01000800D01*
X00725744Y00998320D01*
X00726702Y00996009D01*
X00728225Y00994025D01*
X00730209Y00992502D01*
X00732520Y00991544D01*
X00735000Y00991218D01*
X00737480Y00991544D01*
X00739791Y00992502D01*
X00741776Y00994025D01*
X00743298Y00996009D01*
X00744256Y00998320D01*
X00744582Y01000800D01*
X00744256Y01003280D01*
X00743298Y01005591D01*
X00741776Y01007576D01*
X00739791Y01009098D01*
X00737480Y01010055D01*
X00735000Y01010382D01*
D02*
G37*
G36*
X00659200Y01094582D02*
X00656720Y01094255D01*
X00654409Y01093298D01*
X00652425Y01091775D01*
X00650902Y01089791D01*
X00649945Y01087480D01*
X00649618Y01085000D01*
X00649945Y01082520D01*
X00650902Y01080209D01*
X00652425Y01078224D01*
X00654409Y01076702D01*
X00655866Y01076098D01*
Y01039394D01*
X00656120Y01038118D01*
X00656842Y01037037D01*
X00684466Y01009413D01*
Y00971830D01*
X00676074D01*
X00675358Y00972902D01*
X00635082Y01013178D01*
X00634000Y01013900D01*
X00632724Y01014154D01*
X00460850D01*
X00459574Y01013900D01*
X00458492Y01013178D01*
X00452622Y01007308D01*
X00451900Y01006226D01*
X00451646Y01004950D01*
Y00996650D01*
X00451900Y00995374D01*
X00452622Y00994292D01*
X00461527Y00985387D01*
X00461279Y00984142D01*
X00460209Y00983698D01*
X00458225Y00982176D01*
X00456702Y00980191D01*
X00455745Y00977880D01*
X00455418Y00975400D01*
X00455745Y00972920D01*
X00456702Y00970609D01*
X00458225Y00968625D01*
X00460209Y00967102D01*
X00461333Y00966636D01*
X00461473Y00965358D01*
X00452622Y00956508D01*
X00451900Y00955426D01*
X00451646Y00954150D01*
Y00891650D01*
X00451900Y00890374D01*
X00452622Y00889292D01*
X00461172Y00880742D01*
X00461422Y00880575D01*
X00461281Y00879142D01*
X00460209Y00878698D01*
X00458225Y00877176D01*
X00456702Y00875191D01*
X00455745Y00872880D01*
X00455418Y00870400D01*
X00455745Y00867920D01*
X00456702Y00865609D01*
X00458225Y00863625D01*
X00460209Y00862102D01*
X00461333Y00861636D01*
X00461473Y00860358D01*
X00452622Y00851508D01*
X00451900Y00850426D01*
X00451646Y00849150D01*
Y00787050D01*
X00451900Y00785774D01*
X00452622Y00784692D01*
X00461527Y00775787D01*
X00461279Y00774542D01*
X00460209Y00774098D01*
X00458225Y00772575D01*
X00456702Y00770591D01*
X00455745Y00768280D01*
X00455418Y00765800D01*
X00455745Y00763320D01*
X00456348Y00761863D01*
X00451642Y00757158D01*
X00450920Y00756076D01*
X00450666Y00754800D01*
Y00707436D01*
X00450920Y00706160D01*
X00451642Y00705079D01*
X00454099Y00702622D01*
X00455180Y00701900D01*
X00456456Y00701646D01*
X00566512D01*
X00567788Y00701900D01*
X00568870Y00702622D01*
X00570358Y00704110D01*
X00571080Y00705192D01*
X00571334Y00706468D01*
Y00723796D01*
X00577500D01*
Y00708000D01*
X00588500D01*
Y00711666D01*
X00594898D01*
X00595502Y00710209D01*
X00597025Y00708224D01*
X00599009Y00706702D01*
X00601320Y00705744D01*
X00603800Y00705418D01*
X00606280Y00705744D01*
X00608591Y00706702D01*
X00610575Y00708224D01*
X00612098Y00710209D01*
X00613055Y00712520D01*
X00613382Y00715000D01*
X00613055Y00717480D01*
X00612098Y00719791D01*
X00610575Y00721775D01*
X00609597Y00722526D01*
X00610028Y00723796D01*
X00622971D01*
X00623403Y00722526D01*
X00622425Y00721775D01*
X00620902Y00719791D01*
X00619945Y00717480D01*
X00619618Y00715000D01*
X00619945Y00712520D01*
X00620902Y00710209D01*
X00622425Y00708224D01*
X00624409Y00706702D01*
X00626720Y00705744D01*
X00629200Y00705418D01*
X00631680Y00705744D01*
X00633991Y00706702D01*
X00635975Y00708224D01*
X00637498Y00710209D01*
X00638456Y00712520D01*
X00638782Y00715000D01*
X00638456Y00717480D01*
X00637498Y00719791D01*
X00635975Y00721775D01*
X00633991Y00723298D01*
X00631680Y00724255D01*
X00631325Y00724302D01*
X00630870Y00725643D01*
X00632357Y00727130D01*
X00633080Y00728212D01*
X00633334Y00729488D01*
Y00745147D01*
X00633080Y00746423D01*
X00632357Y00747505D01*
X00632080Y00747783D01*
X00632230Y00748064D01*
Y00758150D01*
X00634770D01*
Y00749048D01*
X00634916Y00749077D01*
X00635082Y00749188D01*
X00636000Y00749455D01*
X00636918Y00749188D01*
X00637084Y00749077D01*
X00637938Y00748907D01*
X00639062D01*
X00639916Y00749077D01*
X00640640Y00749560D01*
X00641123Y00750284D01*
X00641293Y00751137D01*
Y00763196D01*
X00642563Y00763722D01*
X00678662Y00727622D01*
X00679744Y00726900D01*
X00681020Y00726646D01*
X00739150D01*
X00740426Y00726900D01*
X00741508Y00727622D01*
X00747378Y00733492D01*
X00748100Y00734574D01*
X00748354Y00735850D01*
Y00954150D01*
X00748100Y00955426D01*
X00747378Y00956508D01*
X00738527Y00965358D01*
X00738667Y00966636D01*
X00739791Y00967102D01*
X00741776Y00968625D01*
X00743298Y00970609D01*
X00744256Y00972920D01*
X00744582Y00975400D01*
X00744256Y00977880D01*
X00743298Y00980191D01*
X00741776Y00982176D01*
X00739791Y00983698D01*
X00737480Y00984656D01*
X00735000Y00984982D01*
X00732520Y00984656D01*
X00730209Y00983698D01*
X00728225Y00982176D01*
X00726702Y00980191D01*
X00725744Y00977880D01*
X00725418Y00975400D01*
X00725744Y00972920D01*
X00726702Y00970609D01*
X00728225Y00968625D01*
X00730209Y00967102D01*
X00731746Y00966465D01*
Y00964090D01*
X00732000Y00962814D01*
X00732723Y00961732D01*
X00733873Y00960582D01*
X00733465Y00959380D01*
X00732520Y00959256D01*
X00730209Y00958298D01*
X00728225Y00956776D01*
X00726702Y00954791D01*
X00725744Y00952480D01*
X00725418Y00950000D01*
X00725744Y00947520D01*
X00726702Y00945209D01*
X00728225Y00943225D01*
X00730209Y00941702D01*
X00732520Y00940744D01*
X00735000Y00940418D01*
X00737480Y00940744D01*
X00739791Y00941702D01*
X00740547Y00942282D01*
X00741686Y00941720D01*
Y00934100D01*
X00736270D01*
Y00924600D01*
Y00915100D01*
X00741686D01*
Y00903680D01*
X00740547Y00903118D01*
X00739791Y00903698D01*
X00737480Y00904656D01*
X00735000Y00904982D01*
X00732520Y00904656D01*
X00730209Y00903698D01*
X00728225Y00902176D01*
X00726702Y00900191D01*
X00725744Y00897880D01*
X00725418Y00895400D01*
X00725744Y00892920D01*
X00726702Y00890609D01*
X00728225Y00888625D01*
X00730209Y00887102D01*
X00732520Y00886145D01*
X00735000Y00885818D01*
X00737480Y00886145D01*
X00739791Y00887102D01*
X00740547Y00887682D01*
X00741686Y00887120D01*
Y00878280D01*
X00740547Y00877718D01*
X00739791Y00878298D01*
X00737480Y00879256D01*
X00735000Y00879582D01*
X00732520Y00879256D01*
X00730209Y00878298D01*
X00728225Y00876776D01*
X00726702Y00874791D01*
X00726459Y00874204D01*
X00709421D01*
X00708464Y00875474D01*
X00708569Y00876000D01*
Y00880730D01*
X00694000D01*
X00679431D01*
Y00876000D01*
X00679703Y00874634D01*
X00680477Y00873477D01*
X00681634Y00872703D01*
X00683000Y00872431D01*
X00685087D01*
X00685573Y00871258D01*
X00648569Y00834254D01*
X00644738D01*
X00643462Y00834000D01*
X00642381Y00833277D01*
X00642134Y00833031D01*
X00642045Y00833024D01*
X00641493Y00833598D01*
X00641159Y00834163D01*
X00641293Y00834837D01*
Y00840144D01*
X00641580Y00840574D01*
X00641834Y00841850D01*
Y00864146D01*
X00658994D01*
X00660269Y00864400D01*
X00661351Y00865123D01*
X00664877Y00868649D01*
X00665600Y00869731D01*
X00665854Y00871006D01*
Y00963200D01*
X00666955Y00964045D01*
X00668294Y00965789D01*
X00668396Y00966036D01*
X00669666Y00965783D01*
Y00945482D01*
X00669920Y00944207D01*
X00670642Y00943125D01*
X00679487Y00934280D01*
X00679431Y00934000D01*
Y00922000D01*
X00679703Y00920634D01*
X00680477Y00919477D01*
X00681634Y00918703D01*
X00683000Y00918431D01*
X00705000D01*
X00706366Y00918703D01*
X00707523Y00919477D01*
X00708297Y00920634D01*
X00708569Y00922000D01*
Y00934000D01*
X00708297Y00935366D01*
X00707523Y00936523D01*
X00706366Y00937297D01*
X00705000Y00937569D01*
X00685510D01*
X00685269Y00937928D01*
X00676637Y00946560D01*
X00677067Y00947830D01*
X00699800D01*
Y00971830D01*
X00691134D01*
Y01010794D01*
X00690880Y01012070D01*
X00690157Y01013152D01*
X00662534Y01040775D01*
Y01076098D01*
X00663991Y01076702D01*
X00665975Y01078224D01*
X00667498Y01080209D01*
X00668456Y01082520D01*
X00668782Y01085000D01*
X00668456Y01087480D01*
X00667498Y01089791D01*
X00665975Y01091775D01*
X00663991Y01093298D01*
X00661680Y01094255D01*
X00659200Y01094582D01*
D02*
G37*
G36*
X00733730Y00934100D02*
X00725500D01*
Y00925870D01*
X00733730D01*
Y00934100D01*
D02*
G37*
G36*
Y00923330D02*
X00725500D01*
Y00915100D01*
X00733730D01*
Y00923330D01*
D02*
G37*
G36*
X00705000Y00891569D02*
X00695270D01*
Y00883270D01*
X00708569D01*
Y00888000D01*
X00708297Y00889366D01*
X00707523Y00890523D01*
X00706366Y00891297D01*
X00705000Y00891569D01*
D02*
G37*
G36*
X00692730D02*
X00683000D01*
X00681634Y00891297D01*
X00680477Y00890523D01*
X00679703Y00889366D01*
X00679431Y00888000D01*
Y00883270D01*
X00692730D01*
Y00891569D01*
D02*
G37*
G36*
X00655870Y00724415D02*
Y00716270D01*
X00664015D01*
X00663856Y00717480D01*
X00662898Y00719791D01*
X00661376Y00721775D01*
X00659391Y00723298D01*
X00657080Y00724255D01*
X00655870Y00724415D01*
D02*
G37*
G36*
X00653330D02*
X00652120Y00724255D01*
X00649809Y00723298D01*
X00647825Y00721775D01*
X00646302Y00719791D01*
X00645345Y00717480D01*
X00645185Y00716270D01*
X00653330D01*
Y00724415D01*
D02*
G37*
G36*
X00744500Y00724100D02*
X00736270D01*
Y00715870D01*
X00744500D01*
Y00724100D01*
D02*
G37*
G36*
X00733730D02*
X00725500D01*
Y00715870D01*
X00733730D01*
Y00724100D01*
D02*
G37*
G36*
X00664015Y00713730D02*
X00655870D01*
Y00705585D01*
X00657080Y00705744D01*
X00659391Y00706702D01*
X00661376Y00708224D01*
X00662898Y00710209D01*
X00663856Y00712520D01*
X00664015Y00713730D01*
D02*
G37*
G36*
X00653330D02*
X00645185D01*
X00645345Y00712520D01*
X00646302Y00710209D01*
X00647825Y00708224D01*
X00649809Y00706702D01*
X00652120Y00705744D01*
X00653330Y00705585D01*
Y00713730D01*
D02*
G37*
G36*
X00714900Y00724500D02*
X00695900D01*
Y00705500D01*
X00714900D01*
Y00724500D01*
D02*
G37*
G36*
X00680000Y00724582D02*
X00677520Y00724255D01*
X00675209Y00723298D01*
X00673225Y00721775D01*
X00671702Y00719791D01*
X00670745Y00717480D01*
X00670418Y00715000D01*
X00670745Y00712520D01*
X00671702Y00710209D01*
X00673225Y00708224D01*
X00675209Y00706702D01*
X00677520Y00705744D01*
X00680000Y00705418D01*
X00682480Y00705744D01*
X00684791Y00706702D01*
X00686776Y00708224D01*
X00688298Y00710209D01*
X00689256Y00712520D01*
X00689582Y00715000D01*
X00689256Y00717480D01*
X00688298Y00719791D01*
X00686776Y00721775D01*
X00684791Y00723298D01*
X00682480Y00724255D01*
X00680000Y00724582D01*
D02*
G37*
G36*
X00744500Y00713330D02*
X00736270D01*
Y00705100D01*
X00744500D01*
Y00713330D01*
D02*
G37*
G36*
X00733730D02*
X00725500D01*
Y00705100D01*
X00733730D01*
Y00713330D01*
D02*
G37*
%LPD*%
G36*
X00659461Y00979368D02*
X00659053Y00978166D01*
X00658820Y00978135D01*
X00656789Y00977294D01*
X00655045Y00975955D01*
X00653706Y00974211D01*
X00652865Y00972180D01*
X00652578Y00970000D01*
X00652865Y00967820D01*
X00653706Y00965789D01*
X00655045Y00964045D01*
X00656789Y00962706D01*
X00658820Y00961865D01*
X00659186Y00961817D01*
Y00942731D01*
X00657916Y00941826D01*
X00656500Y00942108D01*
X00628334D01*
Y00993060D01*
X00629411Y00993506D01*
X00631155Y00994845D01*
X00632494Y00996589D01*
X00633335Y00998620D01*
X00633622Y01000800D01*
X00633335Y01002980D01*
X00632827Y01004206D01*
X00633904Y01004925D01*
X00659461Y00979368D01*
D02*
G37*
G36*
X00498000Y00967115D02*
Y00947830D01*
X00517285D01*
X00539473Y00925642D01*
X00540554Y00924920D01*
X00541830Y00924666D01*
X00553931D01*
Y00922000D01*
X00554203Y00920634D01*
X00554977Y00919477D01*
X00556134Y00918703D01*
X00557500Y00918431D01*
X00574500D01*
X00575866Y00918703D01*
X00577023Y00919477D01*
X00577396Y00920034D01*
X00578666Y00919649D01*
Y00913351D01*
X00577396Y00912966D01*
X00577023Y00913523D01*
X00575866Y00914297D01*
X00574500Y00914569D01*
X00557500D01*
X00556134Y00914297D01*
X00554977Y00913523D01*
X00554203Y00912366D01*
X00553931Y00911000D01*
Y00908334D01*
X00549657D01*
X00549294Y00909211D01*
X00547955Y00910955D01*
X00546211Y00912294D01*
X00544180Y00913135D01*
X00542000Y00913422D01*
X00539820Y00913135D01*
X00537789Y00912294D01*
X00536045Y00910955D01*
X00534706Y00909211D01*
X00534343Y00908334D01*
X00515078D01*
Y00922000D01*
X00514768Y00923561D01*
X00513884Y00924884D01*
X00512561Y00925768D01*
X00511000Y00926078D01*
X00495000D01*
X00493439Y00925768D01*
X00492116Y00924884D01*
X00491232Y00923561D01*
X00490922Y00922000D01*
Y00888000D01*
X00491232Y00886439D01*
X00492116Y00885116D01*
X00493439Y00884232D01*
X00495000Y00883922D01*
X00511000D01*
X00512561Y00884232D01*
X00513884Y00885116D01*
X00514768Y00886439D01*
X00515078Y00888000D01*
Y00901666D01*
X00534343D01*
X00534706Y00900789D01*
X00536045Y00899045D01*
X00537789Y00897706D01*
X00539820Y00896865D01*
X00542000Y00896578D01*
X00544180Y00896865D01*
X00546211Y00897706D01*
X00547955Y00899045D01*
X00549294Y00900789D01*
X00549657Y00901666D01*
X00553931D01*
Y00899000D01*
X00554203Y00897634D01*
X00554977Y00896477D01*
X00556134Y00895703D01*
X00557500Y00895431D01*
X00574500D01*
X00575866Y00895703D01*
X00577023Y00896477D01*
X00577396Y00897034D01*
X00578666Y00896649D01*
Y00890351D01*
X00577396Y00889966D01*
X00577023Y00890523D01*
X00575866Y00891297D01*
X00574500Y00891569D01*
X00567270D01*
Y00882000D01*
Y00872431D01*
X00574500D01*
X00575866Y00872703D01*
X00577023Y00873477D01*
X00577797Y00874634D01*
X00577817Y00874738D01*
X00579141Y00874880D01*
X00579642Y00874129D01*
X00592559Y00861213D01*
X00592073Y00860039D01*
X00558676D01*
X00542772Y00875943D01*
X00543135Y00876820D01*
X00543422Y00879000D01*
X00543135Y00881180D01*
X00542294Y00883211D01*
X00540955Y00884955D01*
X00539211Y00886294D01*
X00537180Y00887135D01*
X00535000Y00887422D01*
X00532820Y00887135D01*
X00530789Y00886294D01*
X00529045Y00884955D01*
X00527706Y00883211D01*
X00526865Y00881180D01*
X00526578Y00879000D01*
X00526865Y00876820D01*
X00527706Y00874789D01*
X00529045Y00873045D01*
X00530789Y00871706D01*
X00532820Y00870865D01*
X00535000Y00870578D01*
X00537180Y00870865D01*
X00538057Y00871228D01*
X00551196Y00858089D01*
X00550477Y00857012D01*
X00550180Y00857135D01*
X00548000Y00857422D01*
X00545820Y00857135D01*
X00543789Y00856294D01*
X00542045Y00854955D01*
X00540706Y00853211D01*
X00540343Y00852334D01*
X00536613D01*
Y00863750D01*
X00536166Y00865993D01*
X00534896Y00867896D01*
X00532994Y00869166D01*
X00530750Y00869613D01*
X00523250D01*
X00521007Y00869166D01*
X00519104Y00867896D01*
X00517834Y00865993D01*
X00517387Y00863750D01*
Y00848334D01*
X00498500D01*
Y00850500D01*
X00481500D01*
Y00850500D01*
X00480334Y00850751D01*
Y00872570D01*
X00480080Y00873846D01*
X00479357Y00874928D01*
X00468828Y00885458D01*
X00468578Y00885625D01*
X00468719Y00887058D01*
X00469791Y00887502D01*
X00471776Y00889025D01*
X00473298Y00891009D01*
X00474255Y00893320D01*
X00474582Y00895800D01*
X00474255Y00898280D01*
X00473298Y00900591D01*
X00471776Y00902576D01*
X00469791Y00904098D01*
X00467480Y00905055D01*
X00465000Y00905382D01*
X00462520Y00905055D01*
X00460209Y00904098D01*
X00459453Y00903518D01*
X00458314Y00904080D01*
Y00915100D01*
X00463730D01*
Y00924600D01*
Y00934100D01*
X00458314D01*
Y00941720D01*
X00459453Y00942282D01*
X00460209Y00941702D01*
X00462520Y00940744D01*
X00465000Y00940418D01*
X00467480Y00940744D01*
X00469791Y00941702D01*
X00471776Y00943225D01*
X00473298Y00945209D01*
X00474255Y00947520D01*
X00474582Y00950000D01*
X00474255Y00952480D01*
X00473298Y00954791D01*
X00471776Y00956776D01*
X00469791Y00958298D01*
X00467480Y00959256D01*
X00466535Y00959380D01*
X00466127Y00960582D01*
X00467277Y00961732D01*
X00468000Y00962814D01*
X00468254Y00964090D01*
Y00966465D01*
X00469791Y00967102D01*
X00471776Y00968625D01*
X00473298Y00970609D01*
X00474255Y00972920D01*
X00474582Y00975400D01*
X00474255Y00977880D01*
X00473298Y00980191D01*
X00472718Y00980947D01*
X00473280Y00982086D01*
X00483029D01*
X00498000Y00967115D01*
D02*
G37*
G36*
X00617906Y00996589D02*
X00619245Y00994845D01*
X00620989Y00993506D01*
X00621666Y00993226D01*
Y00942108D01*
X00593500D01*
X00591354Y00941681D01*
X00589535Y00940465D01*
X00588319Y00938646D01*
X00587892Y00936500D01*
Y00876969D01*
X00586719Y00876482D01*
X00585334Y00877867D01*
Y00936000D01*
X00585080Y00937276D01*
X00584357Y00938357D01*
X00552187Y00970528D01*
X00551767Y00970809D01*
X00551792Y00971000D01*
X00551505Y00973180D01*
X00550664Y00975211D01*
X00549325Y00976955D01*
X00547581Y00978294D01*
X00545550Y00979135D01*
X00543370Y00979422D01*
X00541190Y00979135D01*
X00539159Y00978294D01*
X00537415Y00976955D01*
X00536076Y00975211D01*
X00535235Y00973180D01*
X00534948Y00971000D01*
X00535235Y00968820D01*
X00536076Y00966789D01*
X00537415Y00965045D01*
X00539159Y00963706D01*
X00541190Y00962865D01*
X00543370Y00962578D01*
X00545550Y00962865D01*
X00547581Y00963706D01*
X00548711Y00964574D01*
X00574446Y00938839D01*
X00573920Y00937569D01*
X00557500D01*
X00556134Y00937297D01*
X00554977Y00936523D01*
X00554203Y00935366D01*
X00553931Y00934000D01*
Y00931334D01*
X00543211D01*
X00522000Y00952545D01*
Y00971830D01*
X00502715D01*
X00486768Y00987778D01*
X00485686Y00988500D01*
X00484410Y00988754D01*
X00467591D01*
X00466127Y00990218D01*
X00466535Y00991420D01*
X00467480Y00991544D01*
X00469791Y00992502D01*
X00471776Y00994025D01*
X00473298Y00996009D01*
X00473984Y00997666D01*
X00617460D01*
X00617906Y00996589D01*
D02*
G37*
G36*
X00725744Y00867520D02*
X00726702Y00865209D01*
X00728225Y00863225D01*
X00730209Y00861702D01*
X00732520Y00860745D01*
X00735000Y00860418D01*
X00737480Y00860745D01*
X00739791Y00861702D01*
X00740547Y00862282D01*
X00741686Y00861720D01*
Y00852880D01*
X00740547Y00852318D01*
X00739791Y00852898D01*
X00737480Y00853856D01*
X00735000Y00854182D01*
X00732520Y00853856D01*
X00730209Y00852898D01*
X00728225Y00851376D01*
X00726702Y00849391D01*
X00725744Y00847080D01*
X00725418Y00844600D01*
X00725744Y00842120D01*
X00726702Y00839809D01*
X00728225Y00837825D01*
X00730209Y00836302D01*
X00732520Y00835345D01*
X00735000Y00835018D01*
X00737480Y00835345D01*
X00739791Y00836302D01*
X00740547Y00836882D01*
X00741686Y00836320D01*
Y00828700D01*
X00736270D01*
Y00819200D01*
Y00809700D01*
X00741686D01*
Y00799080D01*
X00740547Y00798518D01*
X00739791Y00799098D01*
X00737480Y00800055D01*
X00735000Y00800382D01*
X00732520Y00800055D01*
X00730209Y00799098D01*
X00728225Y00797575D01*
X00726702Y00795591D01*
X00725744Y00793280D01*
X00725606Y00792231D01*
X00724404Y00791823D01*
X00705629Y00810598D01*
X00706135Y00811820D01*
X00706422Y00814000D01*
X00706135Y00816180D01*
X00705294Y00818211D01*
X00703955Y00819955D01*
X00702211Y00821294D01*
X00700180Y00822135D01*
X00698000Y00822422D01*
X00695820Y00822135D01*
X00693789Y00821294D01*
X00692045Y00819955D01*
X00690706Y00818211D01*
X00689865Y00816180D01*
X00689578Y00814000D01*
X00689865Y00811820D01*
X00690706Y00809789D01*
X00692045Y00808045D01*
X00693789Y00806706D01*
X00694087Y00806583D01*
X00693915Y00805279D01*
X00692820Y00805135D01*
X00690789Y00804294D01*
X00690157Y00803809D01*
X00688820Y00805146D01*
X00687738Y00805869D01*
X00686462Y00806122D01*
X00662670D01*
X00662582Y00806230D01*
X00652850D01*
X00643725D01*
X00643779Y00805957D01*
X00644271Y00805221D01*
Y00804779D01*
X00643779Y00804043D01*
X00643606Y00803175D01*
Y00801825D01*
X00642509Y00800834D01*
X00613132D01*
X00605809Y00808157D01*
X00606294Y00808789D01*
X00607135Y00810820D01*
X00607422Y00813000D01*
X00607135Y00815180D01*
X00606294Y00817211D01*
X00604955Y00818955D01*
X00603211Y00820294D01*
X00601180Y00821135D01*
X00599000Y00821422D01*
X00596820Y00821135D01*
X00594789Y00820294D01*
X00593045Y00818955D01*
X00591706Y00817211D01*
X00590865Y00815180D01*
X00590578Y00813000D01*
X00590865Y00810820D01*
X00591706Y00808789D01*
X00593045Y00807045D01*
X00594789Y00805706D01*
X00596820Y00804865D01*
X00599000Y00804578D01*
X00599846Y00804689D01*
X00607507Y00797029D01*
X00607004Y00795735D01*
X00606224Y00795580D01*
X00605143Y00794857D01*
X00602350Y00792065D01*
X00602180Y00792135D01*
X00600000Y00792422D01*
X00597820Y00792135D01*
X00595789Y00791294D01*
X00594045Y00789955D01*
X00592706Y00788211D01*
X00591865Y00786180D01*
X00591578Y00784000D01*
X00591865Y00781820D01*
X00592706Y00779789D01*
X00594045Y00778045D01*
X00595789Y00776706D01*
X00597820Y00775865D01*
X00600000Y00775578D01*
X00602180Y00775865D01*
X00604211Y00776706D01*
X00605955Y00778045D01*
X00607294Y00779789D01*
X00608135Y00781820D01*
X00608422Y00784000D01*
X00608135Y00786180D01*
X00607479Y00787764D01*
X00608881Y00789166D01*
X00642509D01*
X00643606Y00788175D01*
Y00786825D01*
X00643779Y00785957D01*
X00644271Y00785221D01*
Y00784779D01*
X00643779Y00784043D01*
X00643606Y00783175D01*
Y00781825D01*
X00643779Y00780957D01*
X00644271Y00780221D01*
Y00779779D01*
X00643779Y00779043D01*
X00643606Y00778175D01*
Y00776825D01*
X00643779Y00775957D01*
X00644271Y00775221D01*
Y00774779D01*
X00643779Y00774043D01*
X00643606Y00773175D01*
Y00772508D01*
X00643159Y00771641D01*
X00642409Y00771334D01*
X00606946D01*
X00605670Y00771080D01*
X00604589Y00770358D01*
X00601684Y00767453D01*
X00600959Y00766958D01*
X00599916Y00767223D01*
X00599062Y00767393D01*
X00597938D01*
X00597084Y00767223D01*
X00596361Y00766740D01*
X00595640D01*
X00594916Y00767223D01*
X00594062Y00767393D01*
X00592938D01*
X00592084Y00767223D01*
X00591361Y00766740D01*
X00590639D01*
X00589916Y00767223D01*
X00589062Y00767393D01*
X00587938D01*
X00587084Y00767223D01*
X00586360Y00766740D01*
X00585639D01*
X00584916Y00767223D01*
X00584062Y00767393D01*
X00582938D01*
X00582084Y00767223D01*
X00581360Y00766740D01*
X00580877Y00766016D01*
X00580707Y00765163D01*
Y00759856D01*
X00580432Y00759444D01*
X00567657D01*
X00567294Y00760321D01*
X00565955Y00762065D01*
X00564211Y00763404D01*
X00562180Y00764245D01*
X00560000Y00764532D01*
X00557820Y00764245D01*
X00555789Y00763404D01*
X00554045Y00762065D01*
X00553475Y00761322D01*
X00553282Y00761228D01*
X00551824Y00761258D01*
X00534725Y00778357D01*
X00533643Y00779080D01*
X00532367Y00779334D01*
X00531812D01*
X00531381Y00780604D01*
X00531955Y00781045D01*
X00533294Y00782789D01*
X00534135Y00784820D01*
X00534422Y00787000D01*
X00534135Y00789180D01*
X00533294Y00791211D01*
X00532029Y00792859D01*
X00536632Y00797461D01*
X00537834Y00797053D01*
X00537865Y00796820D01*
X00538706Y00794789D01*
X00540045Y00793045D01*
X00541789Y00791706D01*
X00542436Y00791438D01*
X00542517Y00790747D01*
X00542373Y00790090D01*
X00540553Y00789335D01*
X00538809Y00787997D01*
X00537470Y00786253D01*
X00536629Y00784221D01*
X00536342Y00782042D01*
X00536629Y00779862D01*
X00537470Y00777831D01*
X00538809Y00776087D01*
X00540553Y00774748D01*
X00542584Y00773907D01*
X00544764Y00773620D01*
X00546944Y00773907D01*
X00548975Y00774748D01*
X00550719Y00776087D01*
X00552057Y00777831D01*
X00552507Y00778916D01*
X00559298D01*
X00559418Y00778770D01*
X00569150D01*
X00578275D01*
X00578221Y00779043D01*
X00577729Y00779779D01*
Y00780221D01*
X00578221Y00780957D01*
X00578394Y00781825D01*
Y00783175D01*
X00578221Y00784043D01*
X00577729Y00784779D01*
Y00785221D01*
X00578221Y00785957D01*
X00578394Y00786825D01*
Y00788175D01*
X00578221Y00789043D01*
X00577729Y00789779D01*
Y00790221D01*
X00578221Y00790957D01*
X00578394Y00791825D01*
Y00793175D01*
X00578221Y00794043D01*
X00577729Y00794779D01*
Y00795221D01*
X00578221Y00795957D01*
X00578394Y00796825D01*
Y00798175D01*
X00578221Y00799043D01*
X00577729Y00799779D01*
Y00800221D01*
X00578221Y00800957D01*
X00578394Y00801825D01*
Y00803175D01*
X00578221Y00804043D01*
X00577729Y00804779D01*
Y00805221D01*
X00578221Y00805957D01*
X00578394Y00806825D01*
Y00808175D01*
X00578221Y00809043D01*
X00577729Y00809779D01*
Y00810221D01*
X00578221Y00810957D01*
X00578394Y00811825D01*
Y00813175D01*
X00578221Y00814043D01*
X00577729Y00814779D01*
Y00815221D01*
X00578221Y00815957D01*
X00578394Y00816825D01*
Y00818175D01*
X00578221Y00819043D01*
X00577821Y00820000D01*
X00578221Y00820957D01*
X00578394Y00821825D01*
Y00823175D01*
X00578221Y00824043D01*
X00577729Y00824779D01*
Y00825221D01*
X00578221Y00825957D01*
X00578394Y00826825D01*
Y00828175D01*
X00578221Y00829043D01*
X00577729Y00829779D01*
X00576993Y00830271D01*
X00576125Y00830444D01*
X00564818D01*
X00564332Y00831617D01*
X00571231Y00838516D01*
X00580707D01*
Y00834837D01*
X00580877Y00833984D01*
X00581360Y00833260D01*
X00582084Y00832777D01*
X00582938Y00832607D01*
X00584062D01*
X00584916Y00832777D01*
X00585082Y00832888D01*
X00586000Y00833155D01*
X00586918Y00832888D01*
X00587084Y00832777D01*
X00587230Y00832748D01*
Y00841850D01*
X00589770D01*
Y00832748D01*
X00589916Y00832777D01*
X00590082Y00832888D01*
X00591000Y00833155D01*
X00591918Y00832888D01*
X00592084Y00832777D01*
X00592938Y00832607D01*
X00594062D01*
X00594916Y00832777D01*
X00595082Y00832888D01*
X00596000Y00833155D01*
X00596918Y00832888D01*
X00597084Y00832777D01*
X00597938Y00832607D01*
X00599062D01*
X00599916Y00832777D01*
X00600082Y00832888D01*
X00601000Y00833155D01*
X00601918Y00832888D01*
X00602084Y00832777D01*
X00602938Y00832607D01*
X00604062D01*
X00604916Y00832777D01*
X00605688Y00832769D01*
X00606376Y00832251D01*
Y00820290D01*
X00606630Y00819014D01*
X00607352Y00817933D01*
X00614642Y00810642D01*
X00615724Y00809920D01*
X00617000Y00809666D01*
X00626818D01*
X00628094Y00809920D01*
X00629176Y00810642D01*
X00642461Y00823928D01*
X00643632Y00823303D01*
X00643606Y00823175D01*
Y00821825D01*
X00643779Y00820957D01*
X00644179Y00820000D01*
X00643779Y00819043D01*
X00643606Y00818175D01*
Y00816825D01*
X00643779Y00815957D01*
X00644271Y00815221D01*
Y00814779D01*
X00643779Y00814043D01*
X00643606Y00813175D01*
Y00811825D01*
X00643779Y00810957D01*
X00644271Y00810221D01*
Y00809779D01*
X00643779Y00809043D01*
X00643725Y00808770D01*
X00652850D01*
X00661975D01*
X00661921Y00809043D01*
X00661429Y00809779D01*
Y00810221D01*
X00661921Y00810957D01*
X00662094Y00811825D01*
Y00813175D01*
X00661921Y00814043D01*
X00661429Y00814779D01*
Y00815221D01*
X00661921Y00815957D01*
X00662094Y00816825D01*
Y00818175D01*
X00663191Y00819166D01*
X00671432D01*
X00671578Y00819000D01*
X00671865Y00816820D01*
X00672706Y00814789D01*
X00674045Y00813045D01*
X00675789Y00811706D01*
X00677820Y00810865D01*
X00680000Y00810578D01*
X00682180Y00810865D01*
X00684211Y00811706D01*
X00685955Y00813045D01*
X00687294Y00814789D01*
X00688135Y00816820D01*
X00688422Y00819000D01*
X00688135Y00821180D01*
X00687324Y00823138D01*
X00687442Y00823415D01*
X00688071Y00824285D01*
X00688600Y00824180D01*
X00693730D01*
Y00833980D01*
X00684930D01*
Y00827850D01*
X00685049Y00827252D01*
X00684716Y00826871D01*
X00683920Y00826414D01*
X00682180Y00827135D01*
X00680000Y00827422D01*
X00677820Y00827135D01*
X00675789Y00826294D01*
X00674894Y00825607D01*
X00673751Y00825834D01*
X00663255D01*
X00662729Y00827104D01*
X00694291Y00858666D01*
X00705343D01*
X00705706Y00857789D01*
X00707045Y00856045D01*
X00708789Y00854706D01*
X00710820Y00853865D01*
X00713000Y00853578D01*
X00715180Y00853865D01*
X00717211Y00854706D01*
X00718955Y00856045D01*
X00720294Y00857789D01*
X00721135Y00859820D01*
X00721422Y00862000D01*
X00721135Y00864180D01*
X00720294Y00866211D01*
X00720151Y00866397D01*
X00720713Y00867536D01*
X00725742D01*
X00725744Y00867520D01*
D02*
G37*
G36*
X00517387Y00826250D02*
X00517834Y00824007D01*
X00519104Y00822104D01*
X00521007Y00820834D01*
X00523250Y00820387D01*
X00528013D01*
X00528499Y00819214D01*
X00524619Y00815334D01*
X00513071D01*
X00512294Y00817211D01*
X00510955Y00818955D01*
X00509211Y00820294D01*
X00507180Y00821135D01*
X00505000Y00821422D01*
X00502820Y00821135D01*
X00500789Y00820294D01*
X00499770Y00819512D01*
X00498500Y00820138D01*
Y00820730D01*
X00491270D01*
Y00815500D01*
X00495695D01*
X00496740Y00814230D01*
X00496578Y00813000D01*
X00496865Y00810820D01*
X00497706Y00808789D01*
X00499045Y00807045D01*
X00500789Y00805706D01*
X00502820Y00804865D01*
X00505000Y00804578D01*
X00507180Y00804865D01*
X00509211Y00805706D01*
X00510955Y00807045D01*
X00512199Y00808666D01*
X00526000D01*
X00527276Y00808920D01*
X00528358Y00809642D01*
X00536346Y00817631D01*
X00537687Y00817175D01*
X00537865Y00815820D01*
X00538706Y00813789D01*
X00540045Y00812045D01*
X00540211Y00811917D01*
X00540160Y00810356D01*
X00539968Y00810228D01*
X00525587Y00795846D01*
X00525236Y00795322D01*
X00523820Y00795135D01*
X00521789Y00794294D01*
X00520045Y00792955D01*
X00518706Y00791211D01*
X00517865Y00789180D01*
X00517578Y00787000D01*
X00517865Y00784820D01*
X00518706Y00782789D01*
X00520045Y00781045D01*
X00520619Y00780604D01*
X00520188Y00779334D01*
X00515837D01*
X00481064Y00814107D01*
X00481473Y00815494D01*
X00481500Y00815500D01*
Y00815500D01*
X00488730D01*
Y00822000D01*
Y00828500D01*
X00481500D01*
Y00828500D01*
X00480334Y00828751D01*
Y00837249D01*
X00481500Y00837500D01*
Y00837500D01*
X00498500D01*
Y00841666D01*
X00517387D01*
Y00826250D01*
D02*
G37*
G36*
X00466270Y00810100D02*
X00474500D01*
X00474500Y00810100D01*
Y00810100D01*
X00475732Y00810009D01*
X00512098Y00773643D01*
X00513180Y00772920D01*
X00514456Y00772666D01*
X00517604D01*
X00518203Y00771546D01*
X00517834Y00770994D01*
X00517387Y00768750D01*
Y00753334D01*
X00496500D01*
Y00755500D01*
X00479500D01*
X00479137Y00756620D01*
Y00763380D01*
X00479500Y00764500D01*
X00480407Y00764500D01*
X00486730D01*
Y00771000D01*
Y00777500D01*
X00479500D01*
Y00771806D01*
X00478230Y00771421D01*
X00478161Y00771525D01*
X00471508Y00778177D01*
X00470426Y00778900D01*
X00469150Y00779154D01*
X00467591D01*
X00466127Y00780618D01*
X00466535Y00781820D01*
X00467480Y00781945D01*
X00469791Y00782902D01*
X00471776Y00784425D01*
X00473298Y00786409D01*
X00474255Y00788720D01*
X00474582Y00791200D01*
X00474255Y00793680D01*
X00473298Y00795991D01*
X00471776Y00797975D01*
X00469791Y00799498D01*
X00467480Y00800455D01*
X00465000Y00800782D01*
X00462520Y00800455D01*
X00460209Y00799498D01*
X00459453Y00798918D01*
X00458314Y00799480D01*
Y00810100D01*
X00463730D01*
Y00819600D01*
X00466270D01*
Y00810100D01*
D02*
G37*
G36*
X00731404Y00775393D02*
X00731274Y00774139D01*
X00730209Y00773698D01*
X00728225Y00772175D01*
X00726702Y00770191D01*
X00725744Y00767880D01*
X00725418Y00765400D01*
X00725744Y00762920D01*
X00726702Y00760609D01*
X00728225Y00758624D01*
X00730209Y00757102D01*
X00732520Y00756144D01*
X00735000Y00755818D01*
X00737480Y00756144D01*
X00739791Y00757102D01*
X00740547Y00757682D01*
X00741686Y00757120D01*
Y00748280D01*
X00740547Y00747718D01*
X00739791Y00748298D01*
X00737480Y00749255D01*
X00735000Y00749582D01*
X00732520Y00749255D01*
X00730209Y00748298D01*
X00728225Y00746775D01*
X00726702Y00744791D01*
X00725744Y00742480D01*
X00725418Y00740000D01*
X00725744Y00737520D01*
X00726702Y00735209D01*
X00727282Y00734453D01*
X00726720Y00733314D01*
X00682401D01*
X00647332Y00768383D01*
X00647818Y00769556D01*
X00659825D01*
X00660693Y00769729D01*
X00661429Y00770221D01*
X00661921Y00770957D01*
X00662094Y00771825D01*
Y00773175D01*
X00661921Y00774043D01*
X00661429Y00774779D01*
Y00775221D01*
X00661921Y00775957D01*
X00662094Y00776825D01*
Y00778175D01*
X00661921Y00779043D01*
X00661429Y00779779D01*
Y00780221D01*
X00661921Y00780957D01*
X00662094Y00781825D01*
Y00783175D01*
X00661921Y00784043D01*
X00661429Y00784779D01*
Y00785221D01*
X00661921Y00785957D01*
X00662094Y00786825D01*
Y00788175D01*
X00661921Y00789043D01*
X00661429Y00789779D01*
Y00790221D01*
X00661921Y00790957D01*
X00662094Y00791825D01*
Y00793175D01*
X00661921Y00794043D01*
X00661429Y00794779D01*
Y00795221D01*
X00661921Y00795957D01*
X00662094Y00796825D01*
Y00798175D01*
X00662092Y00798184D01*
X00663057Y00799454D01*
X00685081D01*
X00686689Y00797846D01*
X00686578Y00797000D01*
X00686865Y00794820D01*
X00687706Y00792789D01*
X00689045Y00791045D01*
X00690789Y00789706D01*
X00691666Y00789343D01*
Y00775070D01*
X00688600D01*
X00687195Y00774791D01*
X00686005Y00773995D01*
X00685209Y00772805D01*
X00684930Y00771400D01*
Y00756600D01*
X00685209Y00755195D01*
X00686005Y00754005D01*
X00687195Y00753209D01*
X00688600Y00752930D01*
X00701400D01*
X00702805Y00753209D01*
X00703995Y00754005D01*
X00704791Y00755195D01*
X00705070Y00756600D01*
Y00771400D01*
X00704791Y00772805D01*
X00703995Y00773995D01*
X00702805Y00774791D01*
X00701400Y00775070D01*
X00698334D01*
Y00789343D01*
X00699211Y00789706D01*
X00700955Y00791045D01*
X00702294Y00792789D01*
X00703135Y00794820D01*
X00703422Y00797000D01*
X00703135Y00799180D01*
X00702294Y00801211D01*
X00700955Y00802955D01*
X00699211Y00804294D01*
X00698913Y00804417D01*
X00699085Y00805721D01*
X00700180Y00805865D01*
X00700711Y00806085D01*
X00731404Y00775393D01*
D02*
G37*
G36*
X00492663Y00722623D02*
X00493744Y00721900D01*
X00495020Y00721646D01*
X00522974D01*
X00523600Y00720376D01*
X00522706Y00719211D01*
X00521865Y00717180D01*
X00521578Y00715000D01*
X00521865Y00712820D01*
X00522706Y00710789D01*
X00523631Y00709584D01*
X00523005Y00708314D01*
X00474500D01*
Y00713730D01*
X00465000D01*
Y00715000D01*
X00463730D01*
Y00724500D01*
X00457334D01*
Y00732820D01*
X00458604Y00733333D01*
X00460209Y00732102D01*
X00462520Y00731144D01*
X00465000Y00730818D01*
X00467480Y00731144D01*
X00469791Y00732102D01*
X00471776Y00733624D01*
X00473298Y00735609D01*
X00474255Y00737920D01*
X00474408Y00739081D01*
X00475749Y00739536D01*
X00492663Y00722623D01*
D02*
G37*
%LPC*%
G36*
X00474500Y00934100D02*
X00466270D01*
Y00925870D01*
X00474500D01*
Y00934100D01*
D02*
G37*
G36*
Y00923330D02*
X00466270D01*
Y00915100D01*
X00474500D01*
Y00923330D01*
D02*
G37*
G36*
X00564730Y00891569D02*
X00557500D01*
X00556134Y00891297D01*
X00554977Y00890523D01*
X00554203Y00889366D01*
X00553931Y00888000D01*
Y00883270D01*
X00564730D01*
Y00891569D01*
D02*
G37*
G36*
Y00880730D02*
X00553931D01*
Y00876000D01*
X00554203Y00874634D01*
X00554977Y00873477D01*
X00556134Y00872703D01*
X00557500Y00872431D01*
X00564730D01*
Y00880730D01*
D02*
G37*
G36*
X00701400Y00846320D02*
X00696270D01*
Y00836520D01*
X00705070D01*
Y00842650D01*
X00704791Y00844055D01*
X00703995Y00845245D01*
X00702805Y00846041D01*
X00701400Y00846320D01*
D02*
G37*
G36*
X00693730D02*
X00688600D01*
X00687195Y00846041D01*
X00686005Y00845245D01*
X00685209Y00844055D01*
X00684930Y00842650D01*
Y00836520D01*
X00693730D01*
Y00846320D01*
D02*
G37*
G36*
X00705070Y00833980D02*
X00696270D01*
Y00824180D01*
X00701400D01*
X00702805Y00824459D01*
X00703995Y00825255D01*
X00704791Y00826445D01*
X00705070Y00827850D01*
Y00833980D01*
D02*
G37*
G36*
X00733730Y00828700D02*
X00725500D01*
Y00820470D01*
X00733730D01*
Y00828700D01*
D02*
G37*
G36*
Y00817930D02*
X00725500D01*
Y00809700D01*
X00733730D01*
Y00817930D01*
D02*
G37*
G36*
X00578275Y00776230D02*
X00569150D01*
X00560025D01*
X00560079Y00775957D01*
X00560571Y00775221D01*
Y00774779D01*
X00560079Y00774043D01*
X00559906Y00773175D01*
Y00771825D01*
X00560079Y00770957D01*
X00560571Y00770221D01*
X00561307Y00769729D01*
X00562175Y00769556D01*
X00576125D01*
X00576993Y00769729D01*
X00577729Y00770221D01*
X00578221Y00770957D01*
X00578394Y00771825D01*
Y00773175D01*
X00578221Y00774043D01*
X00577729Y00774779D01*
Y00775221D01*
X00578221Y00775957D01*
X00578275Y00776230D01*
D02*
G37*
G36*
X00498500Y00828500D02*
X00491270D01*
Y00823270D01*
X00498500D01*
Y00828500D01*
D02*
G37*
G36*
X00496500Y00777500D02*
X00489270D01*
Y00772270D01*
X00496500D01*
Y00777500D01*
D02*
G37*
G36*
Y00769730D02*
X00489270D01*
Y00764500D01*
X00496500D01*
Y00769730D01*
D02*
G37*
G36*
X00474500Y00724500D02*
X00466270D01*
Y00716270D01*
X00474500D01*
Y00724500D01*
D02*
G37*
%LPD*%
D13*
X00611751Y00797500D02*
X00652850D01*
X00599000Y00810251D02*
X00611751Y00797500D01*
X00599000Y00810251D02*
Y00813000D01*
X00617000D02*
X00626818D01*
X00609710Y00820290D02*
X00617000Y00813000D01*
X00626818D02*
X00644738Y00830920D01*
X00609710Y00820290D02*
Y00833912D01*
X00613500Y00830500D02*
Y00841850D01*
Y00830500D02*
X00621000Y00823000D01*
X00652850Y00802788D02*
X00686462D01*
X00698000Y00813511D02*
X00734801Y00776710D01*
X00698000Y00813511D02*
Y00814000D01*
X00557295Y00856705D02*
X00620409D01*
X00535000Y00879000D02*
X00557295Y00856705D01*
X00658780Y00822500D02*
X00673751D01*
X00677251Y00819000D02*
X00680000D01*
X00673751Y00822500D02*
X00677251Y00819000D01*
X00692251Y00797000D02*
X00695000D01*
X00686462Y00802788D02*
X00692251Y00797000D01*
X00695000Y00764000D02*
Y00797000D01*
X00531000Y00849000D02*
X00548000D01*
X00526000Y00812000D02*
X00565570Y00851570D01*
X00620184D01*
X00506000Y00812000D02*
X00526000D01*
X00542000Y00905000D02*
X00566000D01*
X00503000D02*
X00542000D01*
X00505000Y00813000D02*
X00506000Y00812000D01*
X00608500Y00835122D02*
Y00841850D01*
Y00835122D02*
X00609710Y00833912D01*
X00582980Y00756110D02*
X00583500Y00756630D01*
X00560000Y00756110D02*
X00582980D01*
X00583500Y00756630D02*
Y00758150D01*
X00567566Y00736000D02*
X00595000D01*
X00530989Y00746011D02*
X00545011D01*
X00527000Y00750000D02*
X00530989Y00746011D01*
X00514456Y00776000D02*
X00532367D01*
X00549967Y00753599D02*
X00567566Y00736000D01*
X00549967Y00753599D02*
Y00758401D01*
X00532367Y00776000D02*
X00549967Y00758401D01*
X00545000Y00715000D02*
X00546000Y00716000D01*
X00530000Y00715000D02*
X00545000D01*
X00544972Y00782250D02*
X00568900D01*
X00544764Y00782042D02*
X00544972Y00782250D01*
X00568900D02*
X00569150Y00782500D01*
X00618250Y00757900D02*
X00618500Y00758150D01*
X00618250Y00736250D02*
Y00757900D01*
X00618000Y00736000D02*
X00618250Y00736250D01*
X00546000Y00818000D02*
X00569850Y00841850D01*
X00583500D01*
X00527000Y00845000D02*
X00531000Y00849000D01*
X00682912Y00934212D02*
X00689125Y00928000D01*
X00673000Y00945482D02*
X00682912Y00935571D01*
Y00934212D02*
Y00935571D01*
X00673000Y00945482D02*
Y00970544D01*
X00689125Y00928000D02*
X00694000D01*
X00632724Y01010820D02*
X00673000Y00970544D01*
X00484410Y00985420D02*
X00510000Y00959830D01*
X00454980Y00996650D02*
Y01004950D01*
Y00996650D02*
X00466210Y00985420D01*
X00484410D01*
X00454980Y01004950D02*
X00460850Y01010820D01*
X00632724D01*
X00465000Y01000800D02*
X00465200Y01001000D01*
X00625000D01*
X00625200Y01000800D01*
X00625000Y00905000D02*
Y01001000D01*
X00543370Y00971000D02*
X00546119D01*
X00548949Y00968171D02*
X00549829D01*
X00582000Y00876486D02*
Y00936000D01*
X00546119Y00971000D02*
X00548949Y00968171D01*
X00549829D02*
X00582000Y00936000D01*
Y00876486D02*
X00597991Y00860495D01*
X00541830Y00928000D02*
X00566000D01*
X00510000Y00959830D02*
X00541830Y00928000D01*
X00568000Y00725642D02*
X00569488Y00727130D01*
X00627642D01*
X00630000Y00729488D01*
X00568000Y00706468D02*
Y00725642D01*
X00606770Y00748200D02*
X00607980Y00749410D01*
X00606770Y00747770D02*
Y00748200D01*
X00607980Y00749410D02*
Y00752220D01*
X00595000Y00736000D02*
X00606770Y00747770D01*
X00597000Y00732000D02*
X00612980Y00747980D01*
X00563989Y00732000D02*
X00597000D01*
X00612980Y00747980D02*
Y00758150D01*
X00556969Y00724980D02*
X00563989Y00732000D01*
X00606946Y00768000D02*
X00643000D01*
X00681020Y00729980D02*
X00739150D01*
X00643000Y00768000D02*
X00681020Y00729980D01*
X00526000Y00787000D02*
X00527944Y00788944D01*
Y00793488D02*
X00542326Y00807870D01*
X00550088D01*
X00546000Y00799000D02*
X00547130Y00797870D01*
X00568780D02*
X00569150Y00797500D01*
X00527944Y00788944D02*
Y00793488D01*
X00547130Y00797870D02*
X00568780D01*
X00550088Y00807870D02*
X00555458Y00802500D01*
X00569150D01*
X00477000Y00813456D02*
X00514456Y00776000D01*
X00630000Y00729488D02*
Y00745147D01*
X00623435Y00751712D02*
X00630000Y00745147D01*
X00491000Y00845000D02*
X00527000D01*
X00600000Y00784000D02*
Y00785000D01*
X00607500Y00792500D01*
X00652850D01*
X00489000Y00750000D02*
X00527000D01*
X00490000Y00844000D02*
X00491000Y00845000D01*
X00488000Y00749000D02*
X00489000Y00750000D01*
X00475803Y00744197D02*
Y00769167D01*
X00495020Y00724980D02*
X00556969D01*
X00475803Y00744197D02*
X00495020Y00724980D01*
X00734801Y00765599D02*
Y00776710D01*
Y00765599D02*
X00735000Y00765400D01*
X00684600Y01053200D02*
Y01085000D01*
Y01053200D02*
X00687800Y01050000D01*
Y00959830D02*
Y01010794D01*
X00659200Y01039394D02*
X00687800Y01010794D01*
X00659200Y01039394D02*
Y01085000D01*
X00603500Y00764554D02*
X00606946Y00768000D01*
X00603500Y00758150D02*
Y00764554D01*
X00739150Y00729980D02*
X00745020Y00735850D01*
Y00954150D01*
X00735080Y00964090D02*
Y00975320D01*
Y00964090D02*
X00745020Y00954150D01*
X00735000Y00975400D02*
X00735080Y00975320D01*
X00644738Y00830920D02*
X00649950D01*
X00689900Y00870870D01*
X00734130D01*
X00735000Y00870000D01*
X00477000Y00813456D02*
Y00872570D01*
X00466470Y00883100D02*
X00477000Y00872570D01*
X00454980Y00891650D02*
X00463530Y00883100D01*
X00454980Y00891650D02*
Y00954150D01*
X00464920Y00964090D01*
X00463530Y00883100D02*
X00466470D01*
X00464920Y00975320D02*
X00465000Y00975400D01*
X00464920Y00964090D02*
Y00975320D01*
X00469150Y00775820D02*
X00475803Y00769167D01*
X00454980Y00787050D02*
Y00849150D01*
X00464920Y00859090D01*
Y00870320D01*
X00454980Y00787050D02*
X00466210Y00775820D01*
X00464920Y00870320D02*
X00465000Y00870400D01*
X00466210Y00775820D02*
X00469150D01*
X00456456Y00704980D02*
X00566512D01*
X00568000Y00706468D01*
X00454000Y00707436D02*
X00456456Y00704980D01*
X00454000Y00707436D02*
Y00754800D01*
X00465000Y00765800D01*
X00584000Y00715000D02*
X00603800D01*
X00583000Y00716000D02*
X00584000Y00715000D01*
X00597991Y00860495D02*
X00621979D01*
X00620409Y00856705D02*
X00627980Y00849134D01*
Y00842370D02*
Y00849134D01*
Y00842370D02*
X00628500Y00841850D01*
X00621979Y00860495D02*
X00632980Y00849494D01*
Y00847780D02*
Y00849494D01*
X00623500Y00841850D02*
Y00847260D01*
X00621770Y00848990D02*
X00623500Y00847260D01*
X00620184Y00851570D02*
X00621770Y00849984D01*
Y00848990D02*
Y00849984D01*
X00658410Y00827500D02*
X00692910Y00862000D01*
X00652850Y00827500D02*
X00658410D01*
X00692910Y00862000D02*
X00713000D01*
X00661000Y00970000D02*
X00662520Y00968480D01*
Y00871006D02*
Y00968480D01*
X00639988Y00867480D02*
X00658994D01*
X00662520Y00871006D01*
X00638500Y00865992D02*
X00639988Y00867480D01*
X00638500Y00841850D02*
Y00865992D01*
D31*
X00490000Y00822000D02*
D03*
Y00844000D02*
D03*
X00488000Y00771000D02*
D03*
Y00749000D02*
D03*
D32*
X00527000Y00750000D02*
D03*
Y00845000D02*
D03*
D33*
X00638500Y00758150D02*
D03*
X00633500D02*
D03*
X00628500D02*
D03*
X00623500D02*
D03*
X00618500D02*
D03*
X00613500D02*
D03*
X00608500D02*
D03*
X00603500D02*
D03*
X00598500D02*
D03*
X00593500D02*
D03*
X00588500D02*
D03*
X00583500D02*
D03*
Y00841850D02*
D03*
X00588500D02*
D03*
X00593500D02*
D03*
X00598500D02*
D03*
X00603500D02*
D03*
X00608500D02*
D03*
X00613500D02*
D03*
X00618500D02*
D03*
X00623500D02*
D03*
X00628500D02*
D03*
X00633500D02*
D03*
X00638500D02*
D03*
D34*
X00569150Y00772500D02*
D03*
Y00777500D02*
D03*
Y00782500D02*
D03*
Y00787500D02*
D03*
Y00792500D02*
D03*
Y00797500D02*
D03*
Y00802500D02*
D03*
Y00807500D02*
D03*
Y00812500D02*
D03*
Y00817500D02*
D03*
Y00822500D02*
D03*
Y00827500D02*
D03*
X00652850D02*
D03*
Y00822500D02*
D03*
Y00817500D02*
D03*
Y00812500D02*
D03*
Y00807500D02*
D03*
Y00802500D02*
D03*
Y00797500D02*
D03*
Y00792500D02*
D03*
Y00787500D02*
D03*
Y00782500D02*
D03*
Y00777500D02*
D03*
Y00772500D02*
D03*
D35*
X00695000Y00764000D02*
D03*
Y00835250D02*
D03*
D36*
X00583000Y00716000D02*
D03*
X00546000D02*
D03*
D37*
X00687800Y00959830D02*
D03*
X00510000D02*
D03*
X00687800Y01050000D02*
D03*
X00510000D02*
D03*
D38*
X00694000Y00882000D02*
D03*
Y00928000D02*
D03*
D39*
X00625000Y00905000D02*
D03*
D40*
X00503000D02*
D03*
D41*
X00566000Y00928000D02*
D03*
Y00905000D02*
D03*
Y00882000D02*
D03*
D42*
X00705400Y00715000D02*
D03*
X00540800Y01085000D02*
D03*
X00735400D02*
D03*
D43*
X00680000Y00715000D02*
D03*
X00654600D02*
D03*
X00629200D02*
D03*
X00603800D02*
D03*
X00465000Y00740400D02*
D03*
Y00765800D02*
D03*
Y00791200D02*
D03*
Y00845000D02*
D03*
Y00870400D02*
D03*
Y00895800D02*
D03*
Y00950000D02*
D03*
Y00975400D02*
D03*
Y01000800D02*
D03*
X00515400Y01085000D02*
D03*
X00490000D02*
D03*
X00464600D02*
D03*
X00710000D02*
D03*
X00684600D02*
D03*
X00659200D02*
D03*
X00735000Y00950000D02*
D03*
Y00975400D02*
D03*
Y01000800D02*
D03*
Y00844600D02*
D03*
Y00870000D02*
D03*
Y00895400D02*
D03*
Y00740000D02*
D03*
Y00765400D02*
D03*
Y00790800D02*
D03*
D44*
X00465000Y00715000D02*
D03*
Y00819600D02*
D03*
Y00924600D02*
D03*
X00735000D02*
D03*
Y00819200D02*
D03*
Y00714600D02*
D03*
D45*
X00599000Y00813000D02*
D03*
X00621000Y00823000D02*
D03*
X00698000Y00814000D02*
D03*
X00714000Y00826000D02*
D03*
X00535000Y00879000D02*
D03*
X00680000Y00819000D02*
D03*
X00695000Y00797000D02*
D03*
X00548000Y00849000D02*
D03*
X00628000Y00781000D02*
D03*
X00640000Y00735000D02*
D03*
X00525000Y01024000D02*
D03*
X00505000Y00813000D02*
D03*
X00508000Y00797000D02*
D03*
X00527000Y00919000D02*
D03*
X00560000Y00756110D02*
D03*
X00545011Y00746011D02*
D03*
X00530000Y00715000D02*
D03*
X00544764Y00782042D02*
D03*
X00618000Y00736000D02*
D03*
X00671000Y00792000D02*
D03*
X00714000Y00762000D02*
D03*
X00535000Y00956000D02*
D03*
X00640000Y00964000D02*
D03*
X00589000Y00981000D02*
D03*
X00542000Y00905000D02*
D03*
X00546000Y00818000D02*
D03*
X00625200Y01000800D02*
D03*
X00546000Y00799000D02*
D03*
X00526000Y00787000D02*
D03*
X00600000Y00784000D02*
D03*
X00543370Y00971000D02*
D03*
X00713000Y00862000D02*
D03*
X00661000Y00970000D02*
D03*
D46*
X00770000Y00680000D02*
D03*
X00430000D02*
D03*
Y01120000D02*
D03*
X00770000D02*
D03*
M02*
