M48
;Layer_Color=9474304
;FILE_FORMAT=4:4
METRIC
;TYPE=PLATED
T1F00S00C0.7112
T2F00S00C0.9000
T3F00S00C2.5000
%
T01
X00870460Y00623300
X00962000Y00598000
X01095000Y00602000
X01115000Y00594870
X01140000Y00593000
X01083350Y00617570
X01062960Y00648300
Y00668300
X01082960Y00703300
X01070460Y00718970
X01063000Y00734000
X01051000Y00752000
X01075690Y00772160
X01103630Y00779780
X01104900Y00652780
X01024598Y00719938
X00978370Y00744710
X00893370Y00779710
X00921370Y00821710
Y00847710
Y00872710
X00915210Y00931050
X01046000Y00865000
T02
X00857960Y00657900
Y00683300
Y00708700
Y00734100
Y00762500
Y00787900
Y00813300
Y00838700
Y00867100
Y00892500
Y00917900
Y00943300
Y00968700
X01052160Y00968300
X01077560
X01102960
X01128360
T03
X00820000Y00570000
X01160000
Y01010000
X00820000
M30
