G04*
G04 #@! TF.GenerationSoftware,Altium Limited,Altium Designer,22.7.1 (60)*
G04*
G04 Layer_Color=8388736*
%FSAX44Y44*%
%MOMM*%
G71*
G04*
G04 #@! TF.SameCoordinates,EF1B45EE-5991-4E0F-B012-367B3C428A9F*
G04*
G04*
G04 #@! TF.FilePolarity,Negative*
G04*
G01*
G75*
G04:AMPARAMS|DCode=15|XSize=4.6mm|YSize=1.6mm|CornerRadius=0.425mm|HoleSize=0mm|Usage=FLASHONLY|Rotation=90.000|XOffset=0mm|YOffset=0mm|HoleType=Round|Shape=RoundedRectangle|*
%AMROUNDEDRECTD15*
21,1,4.6000,0.7500,0,0,90.0*
21,1,3.7500,1.6000,0,0,90.0*
1,1,0.8500,0.3750,1.8750*
1,1,0.8500,0.3750,-1.8750*
1,1,0.8500,-0.3750,-1.8750*
1,1,0.8500,-0.3750,1.8750*
%
%ADD15ROUNDEDRECTD15*%
%ADD16R,2.1000X2.1000*%
G04:AMPARAMS|DCode=17|XSize=1.6mm|YSize=2.1mm|CornerRadius=0.2mm|HoleSize=0mm|Usage=FLASHONLY|Rotation=180.000|XOffset=0mm|YOffset=0mm|HoleType=Round|Shape=RoundedRectangle|*
%AMROUNDEDRECTD17*
21,1,1.6000,1.7000,0,0,180.0*
21,1,1.2000,2.1000,0,0,180.0*
1,1,0.4000,-0.6000,0.8500*
1,1,0.4000,0.6000,0.8500*
1,1,0.4000,0.6000,-0.8500*
1,1,0.4000,-0.6000,-0.8500*
%
%ADD17ROUNDEDRECTD17*%
G04:AMPARAMS|DCode=18|XSize=3.9mm|YSize=2.1mm|CornerRadius=0.25mm|HoleSize=0mm|Usage=FLASHONLY|Rotation=180.000|XOffset=0mm|YOffset=0mm|HoleType=Round|Shape=RoundedRectangle|*
%AMROUNDEDRECTD18*
21,1,3.9000,1.6000,0,0,180.0*
21,1,3.4000,2.1000,0,0,180.0*
1,1,0.5000,-1.7000,0.8000*
1,1,0.5000,1.7000,0.8000*
1,1,0.5000,1.7000,-0.8000*
1,1,0.5000,-1.7000,-0.8000*
%
%ADD18ROUNDEDRECTD18*%
G04:AMPARAMS|DCode=19|XSize=0.38mm|YSize=1.54mm|CornerRadius=0.085mm|HoleSize=0mm|Usage=FLASHONLY|Rotation=0.000|XOffset=0mm|YOffset=0mm|HoleType=Round|Shape=RoundedRectangle|*
%AMROUNDEDRECTD19*
21,1,0.3800,1.3700,0,0,0.0*
21,1,0.2100,1.5400,0,0,0.0*
1,1,0.1700,0.1050,-0.6850*
1,1,0.1700,-0.1050,-0.6850*
1,1,0.1700,-0.1050,0.6850*
1,1,0.1700,0.1050,0.6850*
%
%ADD19ROUNDEDRECTD19*%
G04:AMPARAMS|DCode=20|XSize=1.54mm|YSize=0.38mm|CornerRadius=0.085mm|HoleSize=0mm|Usage=FLASHONLY|Rotation=0.000|XOffset=0mm|YOffset=0mm|HoleType=Round|Shape=RoundedRectangle|*
%AMROUNDEDRECTD20*
21,1,1.5400,0.2100,0,0,0.0*
21,1,1.3700,0.3800,0,0,0.0*
1,1,0.1700,0.6850,-0.1050*
1,1,0.1700,-0.6850,-0.1050*
1,1,0.1700,-0.6850,0.1050*
1,1,0.1700,0.6850,0.1050*
%
%ADD20ROUNDEDRECTD20*%
G04:AMPARAMS|DCode=21|XSize=7.1mm|YSize=7.1mm|CornerRadius=0.4mm|HoleSize=0mm|Usage=FLASHONLY|Rotation=180.000|XOffset=0mm|YOffset=0mm|HoleType=Round|Shape=RoundedRectangle|*
%AMROUNDEDRECTD21*
21,1,7.1000,6.3000,0,0,180.0*
21,1,6.3000,7.1000,0,0,180.0*
1,1,0.8000,-3.1500,3.1500*
1,1,0.8000,3.1500,3.1500*
1,1,0.8000,3.1500,-3.1500*
1,1,0.8000,-3.1500,-3.1500*
%
%ADD21ROUNDEDRECTD21*%
G04:AMPARAMS|DCode=22|XSize=1.6mm|YSize=2.6mm|CornerRadius=0.2mm|HoleSize=0mm|Usage=FLASHONLY|Rotation=180.000|XOffset=0mm|YOffset=0mm|HoleType=Round|Shape=RoundedRectangle|*
%AMROUNDEDRECTD22*
21,1,1.6000,2.2000,0,0,180.0*
21,1,1.2000,2.6000,0,0,180.0*
1,1,0.4000,-0.6000,1.1000*
1,1,0.4000,0.6000,1.1000*
1,1,0.4000,0.6000,-1.1000*
1,1,0.4000,-0.6000,-1.1000*
%
%ADD22ROUNDEDRECTD22*%
%ADD23R,1.0000X0.8000*%
%ADD24R,0.8000X1.2000*%
%ADD25R,1.4000X1.0000*%
G04:AMPARAMS|DCode=26|XSize=1.7mm|YSize=1.9mm|CornerRadius=0.21mm|HoleSize=0mm|Usage=FLASHONLY|Rotation=0.000|XOffset=0mm|YOffset=0mm|HoleType=Round|Shape=RoundedRectangle|*
%AMROUNDEDRECTD26*
21,1,1.7000,1.4800,0,0,0.0*
21,1,1.2800,1.9000,0,0,0.0*
1,1,0.4200,0.6400,-0.7400*
1,1,0.4200,-0.6400,-0.7400*
1,1,0.4200,-0.6400,0.7400*
1,1,0.4200,0.6400,0.7400*
%
%ADD26ROUNDEDRECTD26*%
%ADD27R,1.3000X0.8000*%
%ADD28C,1.6000*%
%ADD29R,1.6000X1.6000*%
%ADD30R,1.6000X1.6000*%
%ADD31C,1.3700*%
%ADD32C,3.1000*%
D15*
X00937960Y00613300D02*
D03*
Y00708300D02*
D03*
D16*
X00930200Y00791910D02*
D03*
Y00969710D02*
D03*
X01020370Y00791910D02*
D03*
Y00969710D02*
D03*
D17*
X01130440Y00809760D02*
D03*
X01107440D02*
D03*
X01084440D02*
D03*
D18*
X01107440Y00746760D02*
D03*
D19*
X01015370Y00616010D02*
D03*
X01020370D02*
D03*
X01025370D02*
D03*
X01030370D02*
D03*
X01035370D02*
D03*
X01040370D02*
D03*
X01045370D02*
D03*
X01050370D02*
D03*
X01055370D02*
D03*
X01060370D02*
D03*
X01065370D02*
D03*
X01070370D02*
D03*
Y00699710D02*
D03*
X01065370D02*
D03*
X01060370D02*
D03*
X01055370D02*
D03*
X01050370D02*
D03*
X01045370D02*
D03*
X01040370D02*
D03*
X01035370D02*
D03*
X01030370D02*
D03*
X01025370D02*
D03*
X01020370D02*
D03*
X01015370D02*
D03*
D20*
X01001020Y00685360D02*
D03*
Y00680360D02*
D03*
Y00675360D02*
D03*
Y00670360D02*
D03*
Y00665360D02*
D03*
Y00660360D02*
D03*
Y00655360D02*
D03*
Y00650360D02*
D03*
Y00645360D02*
D03*
Y00640360D02*
D03*
Y00635360D02*
D03*
Y00630360D02*
D03*
X01084720D02*
D03*
Y00635360D02*
D03*
Y00640360D02*
D03*
Y00645360D02*
D03*
Y00650360D02*
D03*
Y00655360D02*
D03*
Y00660360D02*
D03*
Y00665360D02*
D03*
Y00670360D02*
D03*
Y00675360D02*
D03*
Y00680360D02*
D03*
Y00685360D02*
D03*
D21*
X01097960Y00868300D02*
D03*
D22*
X01074960Y00937300D02*
D03*
X01120960D02*
D03*
D23*
X00991960Y00733300D02*
D03*
X01012960Y00742800D02*
D03*
Y00723800D02*
D03*
D24*
X00904120Y00871710D02*
D03*
X00884620D02*
D03*
X00904120Y00845710D02*
D03*
X00884620D02*
D03*
X00904120Y00820710D02*
D03*
X00884620D02*
D03*
D25*
X00897960Y00634300D02*
D03*
Y00612300D02*
D03*
Y00687300D02*
D03*
Y00709300D02*
D03*
X01035370Y00758710D02*
D03*
Y00736710D02*
D03*
D26*
X01122960Y00694550D02*
D03*
Y00623300D02*
D03*
D27*
X00892960Y00931300D02*
D03*
Y00968300D02*
D03*
D28*
X01052160D02*
D03*
X01077560D02*
D03*
X01102960D02*
D03*
X00857960Y00762500D02*
D03*
Y00787900D02*
D03*
Y00813300D02*
D03*
Y00657900D02*
D03*
Y00683300D02*
D03*
Y00708700D02*
D03*
Y00968700D02*
D03*
Y00943300D02*
D03*
Y00917900D02*
D03*
Y00892500D02*
D03*
D29*
X01128360Y00968300D02*
D03*
D30*
X00857960Y00838700D02*
D03*
Y00734100D02*
D03*
Y00867100D02*
D03*
D31*
X01051000Y00752000D02*
D03*
X01063000Y00734000D02*
D03*
X01115000Y00594870D02*
D03*
X00962000Y00598000D02*
D03*
X01046000Y00865000D02*
D03*
X01095000Y00602000D02*
D03*
X01140000Y00593000D02*
D03*
X01104900Y00652780D02*
D03*
X01083350Y00617570D02*
D03*
X01082960Y00703300D02*
D03*
X01070460Y00718970D02*
D03*
X01075690Y00772160D02*
D03*
X01103630Y00779780D02*
D03*
X00870460Y00623300D02*
D03*
X00915210Y00931050D02*
D03*
X01062960Y00648300D02*
D03*
Y00668300D02*
D03*
X00978370Y00744710D02*
D03*
X01024598Y00719938D02*
D03*
X00893370Y00779710D02*
D03*
X00921370Y00821710D02*
D03*
Y00847710D02*
D03*
Y00872710D02*
D03*
D32*
X01160000Y01010000D02*
D03*
Y00570000D02*
D03*
X00820000D02*
D03*
Y01010000D02*
D03*
M02*
