G04*
G04 #@! TF.GenerationSoftware,Altium Limited,Altium Designer,22.7.1 (60)*
G04*
G04 Layer_Color=16711935*
%FSAX44Y44*%
%MOMM*%
G71*
G04*
G04 #@! TF.SameCoordinates,EF1B45EE-5991-4E0F-B012-367B3C428A9F*
G04*
G04*
G04 #@! TF.FilePolarity,Negative*
G04*
G01*
G75*
%ADD25R,1.4000X1.0000*%
%ADD28C,1.6000*%
%ADD29R,1.6000X1.6000*%
%ADD30R,1.6000X1.6000*%
%ADD31C,1.3700*%
%ADD32C,3.1000*%
%ADD52R,1.0000X1.4000*%
D25*
X01010370Y00725710D02*
D03*
Y00747710D02*
D03*
X00977960Y00597300D02*
D03*
Y00619300D02*
D03*
X01002960Y00597300D02*
D03*
Y00619300D02*
D03*
X01027960Y00597300D02*
D03*
Y00619300D02*
D03*
X01052960Y00597300D02*
D03*
Y00619300D02*
D03*
X01127760Y00645160D02*
D03*
Y00623160D02*
D03*
X01077960Y00597300D02*
D03*
Y00619300D02*
D03*
D28*
X01052160Y00968300D02*
D03*
X01077560D02*
D03*
X01102960D02*
D03*
X00857960Y00762500D02*
D03*
Y00787900D02*
D03*
Y00813300D02*
D03*
Y00657900D02*
D03*
Y00683300D02*
D03*
Y00708700D02*
D03*
Y00968700D02*
D03*
Y00943300D02*
D03*
Y00917900D02*
D03*
Y00892500D02*
D03*
D29*
X01128360Y00968300D02*
D03*
D30*
X00857960Y00838700D02*
D03*
Y00734100D02*
D03*
Y00867100D02*
D03*
D31*
X01051000Y00752000D02*
D03*
X01063000Y00734000D02*
D03*
X01115000Y00594870D02*
D03*
X00962000Y00598000D02*
D03*
X01046000Y00865000D02*
D03*
X01095000Y00602000D02*
D03*
X01140000Y00593000D02*
D03*
X01104900Y00652780D02*
D03*
X01083350Y00617570D02*
D03*
X01082960Y00703300D02*
D03*
X01070460Y00718970D02*
D03*
X01075690Y00772160D02*
D03*
X01103630Y00779780D02*
D03*
X00870460Y00623300D02*
D03*
X00915210Y00931050D02*
D03*
X01062960Y00648300D02*
D03*
Y00668300D02*
D03*
X00978370Y00744710D02*
D03*
X01024598Y00719938D02*
D03*
X00893370Y00779710D02*
D03*
X00921370Y00821710D02*
D03*
Y00847710D02*
D03*
Y00872710D02*
D03*
D32*
X01160000Y01010000D02*
D03*
Y00570000D02*
D03*
X00820000D02*
D03*
Y01010000D02*
D03*
D52*
X00962370Y00821710D02*
D03*
X00940370D02*
D03*
X00962370Y00847710D02*
D03*
X00940370D02*
D03*
X01012370Y00700710D02*
D03*
X01034370D02*
D03*
X00962370Y00872710D02*
D03*
X00940370D02*
D03*
M02*
