G04*
G04 #@! TF.GenerationSoftware,Altium Limited,Altium Designer,22.7.1 (60)*
G04*
G04 Layer_Physical_Order=1*
G04 Layer_Color=255*
%FSAX44Y44*%
%MOMM*%
G71*
G04*
G04 #@! TF.SameCoordinates,EF1B45EE-5991-4E0F-B012-367B3C428A9F*
G04*
G04*
G04 #@! TF.FilePolarity,Positive*
G04*
G01*
G75*
%ADD12C,0.2540*%
G04:AMPARAMS|DCode=33|XSize=4.5mm|YSize=1.5mm|CornerRadius=0.375mm|HoleSize=0mm|Usage=FLASHONLY|Rotation=90.000|XOffset=0mm|YOffset=0mm|HoleType=Round|Shape=RoundedRectangle|*
%AMROUNDEDRECTD33*
21,1,4.5000,0.7500,0,0,90.0*
21,1,3.7500,1.5000,0,0,90.0*
1,1,0.7500,0.3750,1.8750*
1,1,0.7500,0.3750,-1.8750*
1,1,0.7500,-0.3750,-1.8750*
1,1,0.7500,-0.3750,1.8750*
%
%ADD33ROUNDEDRECTD33*%
%ADD34R,2.0000X2.0000*%
G04:AMPARAMS|DCode=35|XSize=1.5mm|YSize=2mm|CornerRadius=0.15mm|HoleSize=0mm|Usage=FLASHONLY|Rotation=180.000|XOffset=0mm|YOffset=0mm|HoleType=Round|Shape=RoundedRectangle|*
%AMROUNDEDRECTD35*
21,1,1.5000,1.7000,0,0,180.0*
21,1,1.2000,2.0000,0,0,180.0*
1,1,0.3000,-0.6000,0.8500*
1,1,0.3000,0.6000,0.8500*
1,1,0.3000,0.6000,-0.8500*
1,1,0.3000,-0.6000,-0.8500*
%
%ADD35ROUNDEDRECTD35*%
G04:AMPARAMS|DCode=36|XSize=3.8mm|YSize=2mm|CornerRadius=0.2mm|HoleSize=0mm|Usage=FLASHONLY|Rotation=180.000|XOffset=0mm|YOffset=0mm|HoleType=Round|Shape=RoundedRectangle|*
%AMROUNDEDRECTD36*
21,1,3.8000,1.6000,0,0,180.0*
21,1,3.4000,2.0000,0,0,180.0*
1,1,0.4000,-1.7000,0.8000*
1,1,0.4000,1.7000,0.8000*
1,1,0.4000,1.7000,-0.8000*
1,1,0.4000,-1.7000,-0.8000*
%
%ADD36ROUNDEDRECTD36*%
G04:AMPARAMS|DCode=37|XSize=0.28mm|YSize=1.44mm|CornerRadius=0.035mm|HoleSize=0mm|Usage=FLASHONLY|Rotation=0.000|XOffset=0mm|YOffset=0mm|HoleType=Round|Shape=RoundedRectangle|*
%AMROUNDEDRECTD37*
21,1,0.2800,1.3700,0,0,0.0*
21,1,0.2100,1.4400,0,0,0.0*
1,1,0.0700,0.1050,-0.6850*
1,1,0.0700,-0.1050,-0.6850*
1,1,0.0700,-0.1050,0.6850*
1,1,0.0700,0.1050,0.6850*
%
%ADD37ROUNDEDRECTD37*%
G04:AMPARAMS|DCode=38|XSize=1.44mm|YSize=0.28mm|CornerRadius=0.035mm|HoleSize=0mm|Usage=FLASHONLY|Rotation=0.000|XOffset=0mm|YOffset=0mm|HoleType=Round|Shape=RoundedRectangle|*
%AMROUNDEDRECTD38*
21,1,1.4400,0.2100,0,0,0.0*
21,1,1.3700,0.2800,0,0,0.0*
1,1,0.0700,0.6850,-0.1050*
1,1,0.0700,-0.6850,-0.1050*
1,1,0.0700,-0.6850,0.1050*
1,1,0.0700,0.6850,0.1050*
%
%ADD38ROUNDEDRECTD38*%
G04:AMPARAMS|DCode=39|XSize=7mm|YSize=7mm|CornerRadius=0.35mm|HoleSize=0mm|Usage=FLASHONLY|Rotation=180.000|XOffset=0mm|YOffset=0mm|HoleType=Round|Shape=RoundedRectangle|*
%AMROUNDEDRECTD39*
21,1,7.0000,6.3000,0,0,180.0*
21,1,6.3000,7.0000,0,0,180.0*
1,1,0.7000,-3.1500,3.1500*
1,1,0.7000,3.1500,3.1500*
1,1,0.7000,3.1500,-3.1500*
1,1,0.7000,-3.1500,-3.1500*
%
%ADD39ROUNDEDRECTD39*%
G04:AMPARAMS|DCode=40|XSize=1.5mm|YSize=2.5mm|CornerRadius=0.15mm|HoleSize=0mm|Usage=FLASHONLY|Rotation=180.000|XOffset=0mm|YOffset=0mm|HoleType=Round|Shape=RoundedRectangle|*
%AMROUNDEDRECTD40*
21,1,1.5000,2.2000,0,0,180.0*
21,1,1.2000,2.5000,0,0,180.0*
1,1,0.3000,-0.6000,1.1000*
1,1,0.3000,0.6000,1.1000*
1,1,0.3000,0.6000,-1.1000*
1,1,0.3000,-0.6000,-1.1000*
%
%ADD40ROUNDEDRECTD40*%
%ADD41R,0.9000X0.7000*%
%ADD42R,0.7000X1.1000*%
%ADD43R,1.3000X0.9000*%
G04:AMPARAMS|DCode=44|XSize=1.6mm|YSize=1.8mm|CornerRadius=0.16mm|HoleSize=0mm|Usage=FLASHONLY|Rotation=0.000|XOffset=0mm|YOffset=0mm|HoleType=Round|Shape=RoundedRectangle|*
%AMROUNDEDRECTD44*
21,1,1.6000,1.4800,0,0,0.0*
21,1,1.2800,1.8000,0,0,0.0*
1,1,0.3200,0.6400,-0.7400*
1,1,0.3200,-0.6400,-0.7400*
1,1,0.3200,-0.6400,0.7400*
1,1,0.3200,0.6400,0.7400*
%
%ADD44ROUNDEDRECTD44*%
%ADD45R,1.2000X0.7000*%
%ADD46C,1.5000*%
%ADD47R,1.5000X1.5000*%
%ADD48R,1.5000X1.5000*%
%ADD49C,1.2700*%
%ADD50C,3.0000*%
G36*
X01154779Y01026181D02*
X01153463Y01025782D01*
X01150510Y01024203D01*
X01147921Y01022079D01*
X01145797Y01019490D01*
X01144218Y01016537D01*
X01143246Y01013333D01*
X01142918Y01010000D01*
X01143246Y01006667D01*
X01144218Y01003463D01*
X01145797Y01000510D01*
X01147921Y00997921D01*
X01150510Y00995797D01*
X01153463Y00994218D01*
X01156667Y00993246D01*
X01160000Y00992918D01*
X01163333Y00993246D01*
X01166537Y00994218D01*
X01169490Y00995797D01*
X01172079Y00997921D01*
X01174203Y01000510D01*
X01175782Y01003463D01*
X01176181Y01004779D01*
X01177451Y01004591D01*
Y00575409D01*
X01176181Y00575221D01*
X01175782Y00576537D01*
X01174203Y00579490D01*
X01172079Y00582079D01*
X01169490Y00584203D01*
X01166537Y00585782D01*
X01163333Y00586754D01*
X01160000Y00587082D01*
X01156667Y00586754D01*
X01153463Y00585782D01*
X01150510Y00584203D01*
X01147921Y00582079D01*
X01145797Y00579490D01*
X01144218Y00576537D01*
X01143246Y00573333D01*
X01142918Y00570000D01*
X01143246Y00566667D01*
X01144218Y00563463D01*
X01145797Y00560510D01*
X01147921Y00557921D01*
X01150510Y00555797D01*
X01153463Y00554218D01*
X01154779Y00553819D01*
X01154591Y00552549D01*
X00825409D01*
X00825221Y00553819D01*
X00826537Y00554218D01*
X00829490Y00555797D01*
X00832079Y00557921D01*
X00834203Y00560510D01*
X00835782Y00563463D01*
X00836754Y00566667D01*
X00837082Y00570000D01*
X00836754Y00573333D01*
X00835782Y00576537D01*
X00834203Y00579490D01*
X00832079Y00582079D01*
X00829490Y00584203D01*
X00826537Y00585782D01*
X00823333Y00586754D01*
X00820000Y00587082D01*
X00816667Y00586754D01*
X00813463Y00585782D01*
X00810510Y00584203D01*
X00807921Y00582079D01*
X00805797Y00579490D01*
X00804218Y00576537D01*
X00803819Y00575221D01*
X00802549Y00575409D01*
Y01004591D01*
X00803819Y01004779D01*
X00804218Y01003463D01*
X00805797Y01000510D01*
X00807921Y00997921D01*
X00810510Y00995797D01*
X00813463Y00994218D01*
X00816667Y00993246D01*
X00820000Y00992918D01*
X00823333Y00993246D01*
X00826537Y00994218D01*
X00829490Y00995797D01*
X00832079Y00997921D01*
X00834203Y01000510D01*
X00835782Y01003463D01*
X00836754Y01006667D01*
X00837082Y01010000D01*
X00836754Y01013333D01*
X00835782Y01016537D01*
X00834203Y01019490D01*
X00832079Y01022079D01*
X00829490Y01024203D01*
X00826537Y01025782D01*
X00825221Y01026181D01*
X00825409Y01027451D01*
X01154591D01*
X01154779Y01026181D01*
D02*
G37*
%LPC*%
G36*
X00857960Y00978282D02*
X00855480Y00977955D01*
X00853169Y00976998D01*
X00851185Y00975475D01*
X00849662Y00973491D01*
X00848705Y00971180D01*
X00848378Y00968700D01*
X00848705Y00966220D01*
X00849662Y00963909D01*
X00851185Y00961925D01*
X00853169Y00960402D01*
X00855480Y00959445D01*
X00857960Y00959118D01*
X00860440Y00959445D01*
X00862751Y00960402D01*
X00864735Y00961925D01*
X00866258Y00963909D01*
X00866779Y00965166D01*
X00884960D01*
Y00962800D01*
X00900960D01*
Y00973800D01*
X00884960D01*
Y00971834D01*
X00866945D01*
X00866258Y00973491D01*
X00864735Y00975475D01*
X00862751Y00976998D01*
X00860440Y00977955D01*
X00857960Y00978282D01*
D02*
G37*
G36*
X01137860Y00977800D02*
X01118860D01*
Y00958800D01*
X01137860D01*
Y00977800D01*
D02*
G37*
G36*
X01102960Y00977882D02*
X01100480Y00977555D01*
X01098169Y00976598D01*
X01096184Y00975076D01*
X01094662Y00973091D01*
X01093705Y00970780D01*
X01093378Y00968300D01*
X01093705Y00965820D01*
X01094662Y00963509D01*
X01096184Y00961525D01*
X01098169Y00960002D01*
X01100480Y00959045D01*
X01102960Y00958718D01*
X01105440Y00959045D01*
X01107751Y00960002D01*
X01109735Y00961525D01*
X01111258Y00963509D01*
X01112215Y00965820D01*
X01112542Y00968300D01*
X01112215Y00970780D01*
X01111258Y00973091D01*
X01109735Y00975076D01*
X01107751Y00976598D01*
X01105440Y00977555D01*
X01102960Y00977882D01*
D02*
G37*
G36*
X01032370Y00981710D02*
X01008370D01*
Y00957710D01*
X01032370D01*
Y00964966D01*
X01043258D01*
X01043862Y00963509D01*
X01045385Y00961525D01*
X01047369Y00960002D01*
X01049680Y00959045D01*
X01052073Y00958729D01*
X01052338Y00958358D01*
X01052721Y00957581D01*
X01050434Y00955294D01*
X00945526D01*
X00942200Y00958620D01*
Y00981710D01*
X00918200D01*
Y00957710D01*
X00933680D01*
X00941787Y00949603D01*
X00942869Y00948880D01*
X00944145Y00948626D01*
X01051815D01*
X01053091Y00948880D01*
X01054172Y00949603D01*
X01067631Y00963061D01*
X01069605D01*
X01070785Y00961525D01*
X01072769Y00960002D01*
X01075080Y00959045D01*
X01077560Y00958718D01*
X01080040Y00959045D01*
X01082351Y00960002D01*
X01084335Y00961525D01*
X01085858Y00963509D01*
X01086815Y00965820D01*
X01087142Y00968300D01*
X01086815Y00970780D01*
X01085858Y00973091D01*
X01084335Y00975076D01*
X01082351Y00976598D01*
X01080040Y00977555D01*
X01077560Y00977882D01*
X01075080Y00977555D01*
X01072769Y00976598D01*
X01070785Y00975076D01*
X01069262Y00973091D01*
X01068305Y00970780D01*
X01068166Y00969729D01*
X01066250D01*
X01064974Y00969475D01*
X01063893Y00968753D01*
X01062879Y00967739D01*
X01062102Y00968122D01*
X01061730Y00968387D01*
X01061415Y00970780D01*
X01060458Y00973091D01*
X01058935Y00975076D01*
X01056951Y00976598D01*
X01054640Y00977555D01*
X01052160Y00977882D01*
X01049680Y00977555D01*
X01047369Y00976598D01*
X01045385Y00975076D01*
X01043862Y00973091D01*
X01043258Y00971634D01*
X01032370D01*
Y00981710D01*
D02*
G37*
G36*
X01126960Y00951869D02*
X01122230D01*
Y00938570D01*
X01130529D01*
Y00948300D01*
X01130257Y00949666D01*
X01129483Y00950823D01*
X01128326Y00951597D01*
X01126960Y00951869D01*
D02*
G37*
G36*
X01119690D02*
X01114960D01*
X01113594Y00951597D01*
X01112437Y00950823D01*
X01111663Y00949666D01*
X01111392Y00948300D01*
Y00938570D01*
X01119690D01*
Y00951869D01*
D02*
G37*
G36*
X00915210Y00939472D02*
X00913030Y00939185D01*
X00910999Y00938344D01*
X00909255Y00937005D01*
X00907916Y00935261D01*
X00907657Y00934634D01*
X00900960D01*
Y00936800D01*
X00884960D01*
Y00925800D01*
X00900960D01*
Y00927966D01*
X00907449D01*
X00907916Y00926839D01*
X00909255Y00925095D01*
X00910999Y00923756D01*
X00913030Y00922915D01*
X00915210Y00922628D01*
X00917390Y00922915D01*
X00919421Y00923756D01*
X00921165Y00925095D01*
X00922504Y00926839D01*
X00923345Y00928870D01*
X00923632Y00931050D01*
X00923345Y00933230D01*
X00922504Y00935261D01*
X00921165Y00937005D01*
X00919421Y00938344D01*
X00917390Y00939185D01*
X00915210Y00939472D01*
D02*
G37*
G36*
X00857960Y00952882D02*
X00855480Y00952555D01*
X00853169Y00951598D01*
X00851185Y00950076D01*
X00849662Y00948091D01*
X00848705Y00945780D01*
X00848378Y00943300D01*
X00848705Y00940820D01*
X00849662Y00938509D01*
X00851185Y00936525D01*
X00853169Y00935002D01*
X00855480Y00934045D01*
X00857960Y00933718D01*
X00860440Y00934045D01*
X00862751Y00935002D01*
X00864735Y00936525D01*
X00866258Y00938509D01*
X00867215Y00940820D01*
X00867542Y00943300D01*
X00867215Y00945780D01*
X00866258Y00948091D01*
X00864735Y00950076D01*
X00862751Y00951598D01*
X00860440Y00952555D01*
X00857960Y00952882D01*
D02*
G37*
G36*
X01130529Y00936030D02*
X01122230D01*
Y00922731D01*
X01126960D01*
X01128326Y00923003D01*
X01129483Y00923777D01*
X01130257Y00924934D01*
X01130529Y00926300D01*
Y00936030D01*
D02*
G37*
G36*
X01119690D02*
X01111392D01*
Y00926300D01*
X01111663Y00924934D01*
X01112437Y00923777D01*
X01113594Y00923003D01*
X01114960Y00922731D01*
X01119690D01*
Y00936030D01*
D02*
G37*
G36*
X00859230Y00927315D02*
Y00919170D01*
X00867375D01*
X00867215Y00920380D01*
X00866258Y00922691D01*
X00864735Y00924676D01*
X00862751Y00926198D01*
X00860440Y00927156D01*
X00859230Y00927315D01*
D02*
G37*
G36*
X00856690Y00927315D02*
X00855480Y00927156D01*
X00853169Y00926198D01*
X00851185Y00924676D01*
X00849662Y00922691D01*
X00848705Y00920380D01*
X00848545Y00919170D01*
X00856690D01*
Y00927315D01*
D02*
G37*
G36*
Y00916630D02*
X00848545D01*
X00848705Y00915420D01*
X00849662Y00913109D01*
X00851185Y00911125D01*
X00853169Y00909602D01*
X00855480Y00908645D01*
X00856690Y00908485D01*
Y00916630D01*
D02*
G37*
G36*
X00867375D02*
X00859230D01*
Y00908485D01*
X00860440Y00908645D01*
X00862751Y00909602D01*
X00864735Y00911125D01*
X00866258Y00913109D01*
X00867215Y00915420D01*
X00867375Y00916630D01*
D02*
G37*
G36*
X00857960Y00902082D02*
X00855480Y00901756D01*
X00853169Y00900798D01*
X00851185Y00899276D01*
X00849662Y00897291D01*
X00848705Y00894980D01*
X00848378Y00892500D01*
X00848705Y00890020D01*
X00849662Y00887709D01*
X00851185Y00885725D01*
X00853169Y00884202D01*
X00855480Y00883245D01*
X00857960Y00882918D01*
X00860440Y00883245D01*
X00862751Y00884202D01*
X00864735Y00885725D01*
X00866258Y00887709D01*
X00867215Y00890020D01*
X00867542Y00892500D01*
X00867215Y00894980D01*
X00866258Y00897291D01*
X00864735Y00899276D01*
X00862751Y00900798D01*
X00860440Y00901756D01*
X00857960Y00902082D01*
D02*
G37*
G36*
X00921370Y00881132D02*
X00919190Y00880845D01*
X00917159Y00880004D01*
X00915415Y00878665D01*
X00914076Y00876921D01*
X00913713Y00876044D01*
X00909620D01*
Y00879210D01*
X00898620D01*
Y00864210D01*
X00909620D01*
Y00869376D01*
X00913713D01*
X00914076Y00868499D01*
X00915415Y00866755D01*
X00917159Y00865416D01*
X00919190Y00864575D01*
X00921370Y00864288D01*
X00923550Y00864575D01*
X00925581Y00865416D01*
X00927325Y00866755D01*
X00928664Y00868499D01*
X00929505Y00870530D01*
X00929792Y00872710D01*
X00929505Y00874890D01*
X00928664Y00876921D01*
X00927325Y00878665D01*
X00925581Y00880004D01*
X00923550Y00880845D01*
X00921370Y00881132D01*
D02*
G37*
G36*
X00890120Y00879210D02*
X00885890D01*
Y00872980D01*
X00890120D01*
Y00879210D01*
D02*
G37*
G36*
X00883350D02*
X00879120D01*
Y00872980D01*
X00883350D01*
Y00879210D01*
D02*
G37*
G36*
X00890120Y00870440D02*
X00885890D01*
Y00864210D01*
X00890120D01*
Y00870440D01*
D02*
G37*
G36*
X00883350D02*
X00879120D01*
Y00864210D01*
X00883350D01*
Y00870440D01*
D02*
G37*
G36*
X00921370Y00856132D02*
X00919190Y00855845D01*
X00917159Y00855004D01*
X00915415Y00853665D01*
X00914076Y00851921D01*
X00913713Y00851044D01*
X00909620D01*
Y00853210D01*
X00898620D01*
Y00838210D01*
X00909620D01*
Y00844376D01*
X00913713D01*
X00914076Y00843499D01*
X00915415Y00841755D01*
X00917159Y00840416D01*
X00919190Y00839575D01*
X00921370Y00839288D01*
X00923550Y00839575D01*
X00925581Y00840416D01*
X00927325Y00841755D01*
X00928664Y00843499D01*
X00929505Y00845530D01*
X00929792Y00847710D01*
X00929505Y00849890D01*
X00928664Y00851921D01*
X00927325Y00853665D01*
X00925581Y00855004D01*
X00923550Y00855845D01*
X00921370Y00856132D01*
D02*
G37*
G36*
X00890120Y00853210D02*
X00885890D01*
Y00846980D01*
X00890120D01*
Y00853210D01*
D02*
G37*
G36*
X00883350D02*
X00879120D01*
Y00846980D01*
X00883350D01*
Y00853210D01*
D02*
G37*
G36*
X00867460Y00848200D02*
X00859230D01*
Y00839970D01*
X00867460D01*
Y00848200D01*
D02*
G37*
G36*
X00890120Y00844440D02*
X00885890D01*
Y00838210D01*
X00890120D01*
Y00844440D01*
D02*
G37*
G36*
X00883350D02*
X00879120D01*
Y00838210D01*
X00883350D01*
Y00844440D01*
D02*
G37*
G36*
X00867460Y00837430D02*
X00859230D01*
Y00829200D01*
X00867460D01*
Y00837430D01*
D02*
G37*
G36*
X00921370Y00830132D02*
X00919190Y00829845D01*
X00917159Y00829004D01*
X00915415Y00827665D01*
X00914076Y00825921D01*
X00913713Y00825044D01*
X00909620D01*
Y00828210D01*
X00898620D01*
Y00813210D01*
X00909620D01*
Y00818376D01*
X00913713D01*
X00914076Y00817499D01*
X00915415Y00815755D01*
X00917159Y00814416D01*
X00919190Y00813575D01*
X00921370Y00813288D01*
X00923550Y00813575D01*
X00925581Y00814416D01*
X00927325Y00815755D01*
X00928664Y00817499D01*
X00929505Y00819530D01*
X00929792Y00821710D01*
X00929505Y00823890D01*
X00928664Y00825921D01*
X00927325Y00827665D01*
X00925581Y00829004D01*
X00923550Y00829845D01*
X00921370Y00830132D01*
D02*
G37*
G36*
X00890120Y00828210D02*
X00885890D01*
Y00821980D01*
X00890120D01*
Y00828210D01*
D02*
G37*
G36*
X00883350D02*
X00879120D01*
Y00821980D01*
X00883350D01*
Y00828210D01*
D02*
G37*
G36*
X00890120Y00819440D02*
X00885890D01*
Y00813210D01*
X00890120D01*
Y00819440D01*
D02*
G37*
G36*
X00883350D02*
X00879120D01*
Y00813210D01*
X00883350D01*
Y00819440D01*
D02*
G37*
G36*
X01136440Y00821829D02*
X01131710D01*
Y00811030D01*
X01140009D01*
Y00818260D01*
X01139737Y00819626D01*
X01138963Y00820783D01*
X01137806Y00821557D01*
X01136440Y00821829D01*
D02*
G37*
G36*
X01129170D02*
X01124440D01*
X01123074Y00821557D01*
X01121917Y00820783D01*
X01121143Y00819626D01*
X01120871Y00818260D01*
Y00811030D01*
X01129170D01*
Y00821829D01*
D02*
G37*
G36*
X01140009Y00808490D02*
X01131710D01*
Y00797691D01*
X01136440D01*
X01137806Y00797963D01*
X01138963Y00798737D01*
X01139737Y00799894D01*
X01140009Y00801260D01*
Y00808490D01*
D02*
G37*
G36*
X01129170D02*
X01120871D01*
Y00801260D01*
X01121143Y00799894D01*
X01121917Y00798737D01*
X01123074Y00797963D01*
X01124440Y00797691D01*
X01129170D01*
Y00808490D01*
D02*
G37*
G36*
X01080960Y00951869D02*
X01068960D01*
X01067594Y00951597D01*
X01066437Y00950823D01*
X01065663Y00949666D01*
X01065391Y00948300D01*
Y00926300D01*
X01065663Y00924934D01*
X01066437Y00923777D01*
X01067594Y00923003D01*
X01068960Y00922731D01*
X01069880D01*
X01070406Y00921461D01*
X01020602Y00871657D01*
X01019880Y00870576D01*
X01019626Y00869300D01*
Y00813300D01*
Y00803910D01*
X01008370D01*
Y00779910D01*
X01032370D01*
Y00803910D01*
X01026294D01*
Y00809966D01*
X01074871D01*
Y00801260D01*
X01075143Y00799894D01*
X01075917Y00798737D01*
X01077074Y00797963D01*
X01078440Y00797691D01*
X01089630D01*
X01090156Y00796421D01*
X01088279Y00794544D01*
X01053306D01*
X01052030Y00794290D01*
X01050949Y00793568D01*
X01021263Y00763881D01*
X01020540Y00762800D01*
X01020286Y00761524D01*
Y00749228D01*
X01019460Y00748300D01*
X01012175D01*
X00952408Y00808067D01*
X00951326Y00808790D01*
X00950050Y00809044D01*
X00875770D01*
X00874494Y00808790D01*
X00873412Y00808067D01*
X00861897Y00796552D01*
X00860440Y00797156D01*
X00857960Y00797482D01*
X00855480Y00797156D01*
X00853169Y00796198D01*
X00852413Y00795618D01*
X00851274Y00796180D01*
Y00805020D01*
X00852413Y00805582D01*
X00853169Y00805002D01*
X00855480Y00804044D01*
X00857960Y00803718D01*
X00860440Y00804044D01*
X00862751Y00805002D01*
X00864735Y00806525D01*
X00866258Y00808509D01*
X00867215Y00810820D01*
X00867542Y00813300D01*
X00867215Y00815780D01*
X00866258Y00818091D01*
X00864735Y00820075D01*
X00862751Y00821598D01*
X00860440Y00822555D01*
X00857960Y00822882D01*
X00855480Y00822555D01*
X00853169Y00821598D01*
X00852413Y00821018D01*
X00851274Y00821580D01*
Y00829200D01*
X00856690D01*
Y00838700D01*
Y00848200D01*
X00851274D01*
Y00855699D01*
X00853175Y00857600D01*
X00867460D01*
Y00876600D01*
X00848460D01*
Y00862315D01*
X00845583Y00859437D01*
X00844860Y00858356D01*
X00844606Y00857080D01*
Y00628320D01*
X00844860Y00627044D01*
X00845583Y00625962D01*
X00887903Y00583643D01*
X00888984Y00582920D01*
X00890260Y00582666D01*
X01133000D01*
X01134276Y00582920D01*
X01135358Y00583643D01*
X01136943Y00585228D01*
X01137820Y00584865D01*
X01140000Y00584578D01*
X01142180Y00584865D01*
X01144211Y00585706D01*
X01145955Y00587045D01*
X01147294Y00588789D01*
X01148135Y00590820D01*
X01148422Y00593000D01*
X01148135Y00595180D01*
X01147294Y00597211D01*
X01145955Y00598955D01*
X01144211Y00600294D01*
X01142180Y00601135D01*
X01140000Y00601422D01*
X01137820Y00601135D01*
X01136943Y00600772D01*
X01131424Y00606291D01*
Y00612949D01*
X01131955Y00613305D01*
X01132751Y00614495D01*
X01133030Y00615900D01*
Y00630700D01*
X01132751Y00632105D01*
X01131955Y00633295D01*
X01130765Y00634091D01*
X01129360Y00634370D01*
X01118837D01*
X01118351Y00635544D01*
X01122438Y00639630D01*
X01123160Y00640712D01*
X01123414Y00641988D01*
Y00663000D01*
X01123160Y00664276D01*
X01122438Y00665358D01*
X01113314Y00674481D01*
Y00683462D01*
X01114584Y00684141D01*
X01115155Y00683759D01*
X01116560Y00683480D01*
X01121690D01*
Y00694550D01*
Y00705620D01*
X01116560D01*
X01115155Y00705341D01*
X01114584Y00704959D01*
X01113314Y00705638D01*
Y00734682D01*
X01124440D01*
X01126001Y00734992D01*
X01127324Y00735876D01*
X01128208Y00737199D01*
X01128518Y00738760D01*
Y00754760D01*
X01128208Y00756321D01*
X01127324Y00757644D01*
X01126001Y00758528D01*
X01124440Y00758838D01*
X01106964D01*
Y00772123D01*
X01107841Y00772486D01*
X01109585Y00773825D01*
X01110924Y00775569D01*
X01111765Y00777600D01*
X01112052Y00779780D01*
X01111765Y00781960D01*
X01110924Y00783991D01*
X01109585Y00785735D01*
X01107841Y00787074D01*
X01106964Y00787437D01*
Y00797691D01*
X01113440D01*
X01114806Y00797963D01*
X01115963Y00798737D01*
X01116737Y00799894D01*
X01117009Y00801260D01*
Y00818260D01*
X01116737Y00819626D01*
X01115963Y00820783D01*
X01114806Y00821557D01*
X01113440Y00821829D01*
X01101440D01*
X01100614Y00821664D01*
X01099344Y00822480D01*
Y00831192D01*
X01129460D01*
X01131606Y00831619D01*
X01133425Y00832835D01*
X01134641Y00834654D01*
X01135068Y00836800D01*
Y00899800D01*
X01134641Y00901946D01*
X01133425Y00903765D01*
X01131606Y00904981D01*
X01129460Y00905408D01*
X01066460D01*
X01065360Y00905189D01*
X01064734Y00906359D01*
X01077318Y00918942D01*
X01078040Y00920024D01*
X01078294Y00921300D01*
Y00922731D01*
X01080960D01*
X01082326Y00923003D01*
X01083483Y00923777D01*
X01084257Y00924934D01*
X01084529Y00926300D01*
Y00948300D01*
X01084257Y00949666D01*
X01083483Y00950823D01*
X01082326Y00951597D01*
X01080960Y00951869D01*
D02*
G37*
G36*
X01129360Y00705620D02*
X01124230D01*
Y00695820D01*
X01133030D01*
Y00701950D01*
X01132751Y00703355D01*
X01131955Y00704545D01*
X01130765Y00705341D01*
X01129360Y00705620D01*
D02*
G37*
G36*
X01133030Y00693280D02*
X01124230D01*
Y00683480D01*
X01129360D01*
X01130765Y00683759D01*
X01131955Y00684555D01*
X01132751Y00685745D01*
X01133030Y00687150D01*
Y00693280D01*
D02*
G37*
%LPD*%
G36*
X01061071Y00900900D02*
X01060852Y00899800D01*
Y00836800D01*
X01061279Y00834654D01*
X01062495Y00832835D01*
X01064314Y00831619D01*
X01066460Y00831192D01*
X01092676D01*
Y00822386D01*
X01091406Y00821636D01*
X01090440Y00821829D01*
X01078440D01*
X01077074Y00821557D01*
X01075917Y00820783D01*
X01075143Y00819626D01*
X01074871Y00818260D01*
Y00816634D01*
X01026294D01*
Y00867919D01*
X01059901Y00901526D01*
X01061071Y00900900D01*
D02*
G37*
G36*
X01006460Y00744585D02*
Y00737300D01*
X01005466Y00736634D01*
X00998460D01*
Y00738800D01*
X00990175D01*
X00986488Y00742488D01*
X00986505Y00742530D01*
X00986792Y00744710D01*
X00986505Y00746890D01*
X00985664Y00748921D01*
X00984325Y00750665D01*
X00982581Y00752004D01*
X00980550Y00752845D01*
X00978370Y00753132D01*
X00976190Y00752845D01*
X00974159Y00752004D01*
X00972415Y00750665D01*
X00971076Y00748921D01*
X00970235Y00746890D01*
X00969948Y00744710D01*
X00970235Y00742530D01*
X00971076Y00740499D01*
X00972415Y00738755D01*
X00974159Y00737416D01*
X00976190Y00736575D01*
X00978370Y00736288D01*
X00980550Y00736575D01*
X00982261Y00737284D01*
X00985460Y00734085D01*
Y00727800D01*
X00998460D01*
Y00729966D01*
X01005466D01*
X01006460Y00729300D01*
Y00718300D01*
X01016392D01*
X01016463Y00717758D01*
X01017304Y00715727D01*
X01018643Y00713983D01*
X01020387Y00712644D01*
X01022418Y00711803D01*
X01024598Y00711516D01*
X01026778Y00711803D01*
X01028809Y00712644D01*
X01030553Y00713983D01*
X01030766Y00714260D01*
X01032036Y00713829D01*
Y00709462D01*
X01031420Y00708956D01*
X01029320D01*
X01028403Y00708774D01*
X01027870Y00708418D01*
X01027337Y00708774D01*
X01026420Y00708956D01*
X01024320D01*
X01023403Y00708774D01*
X01022870Y00708418D01*
X01022337Y00708774D01*
X01021640Y00708912D01*
Y00699710D01*
Y00690508D01*
X01022337Y00690646D01*
X01022870Y00691003D01*
X01023403Y00690646D01*
X01024320Y00690464D01*
X01026420D01*
X01027337Y00690646D01*
X01027870Y00691003D01*
X01028403Y00690646D01*
X01029320Y00690464D01*
X01031420D01*
X01032337Y00690646D01*
X01032870Y00691003D01*
X01033403Y00690646D01*
X01034320Y00690464D01*
X01036420D01*
X01037337Y00690646D01*
X01037870Y00691003D01*
X01038403Y00690646D01*
X01039320Y00690464D01*
X01041420D01*
X01042337Y00690646D01*
X01042870Y00691003D01*
X01043403Y00690646D01*
X01044320Y00690464D01*
X01046420D01*
X01047337Y00690646D01*
X01047870Y00691003D01*
X01048403Y00690646D01*
X01049320Y00690464D01*
X01051420D01*
X01052337Y00690646D01*
X01052870Y00691003D01*
X01053403Y00690646D01*
X01054320Y00690464D01*
X01056420D01*
X01057337Y00690646D01*
X01057870Y00691003D01*
X01058403Y00690646D01*
X01059320Y00690464D01*
X01061420D01*
X01062337Y00690646D01*
X01062870Y00691003D01*
X01063403Y00690646D01*
X01064320Y00690464D01*
X01066420D01*
X01067337Y00690646D01*
X01067870Y00691003D01*
X01068403Y00690646D01*
X01069320Y00690464D01*
X01071046D01*
Y00677620D01*
X01071300Y00676344D01*
X01072022Y00675263D01*
X01074153Y00673132D01*
X01075234Y00672410D01*
X01075656Y00672326D01*
X01075474Y00671410D01*
Y00669310D01*
X01075656Y00668393D01*
X01076012Y00667860D01*
X01075656Y00667327D01*
X01075474Y00666410D01*
Y00664310D01*
X01075330Y00664134D01*
X01071841D01*
X01070732Y00665243D01*
X01071095Y00666120D01*
X01071382Y00668300D01*
X01071095Y00670480D01*
X01070254Y00672511D01*
X01068915Y00674255D01*
X01067171Y00675594D01*
X01065140Y00676435D01*
X01062960Y00676722D01*
X01060780Y00676435D01*
X01058749Y00675594D01*
X01057005Y00674255D01*
X01055666Y00672511D01*
X01054825Y00670480D01*
X01054538Y00668300D01*
X01054825Y00666120D01*
X01055666Y00664089D01*
X01057005Y00662345D01*
X01058749Y00661006D01*
X01060780Y00660165D01*
X01062960Y00659878D01*
X01065140Y00660165D01*
X01066017Y00660528D01*
X01067371Y00659174D01*
X01067406Y00659125D01*
Y00657475D01*
X01067371Y00657426D01*
X01066017Y00656072D01*
X01065140Y00656435D01*
X01062960Y00656722D01*
X01060780Y00656435D01*
X01058749Y00655594D01*
X01057005Y00654255D01*
X01055666Y00652511D01*
X01054825Y00650480D01*
X01054538Y00648300D01*
X01054825Y00646120D01*
X01055666Y00644089D01*
X01057005Y00642345D01*
X01058749Y00641006D01*
X01060780Y00640165D01*
X01062960Y00639878D01*
X01065140Y00640165D01*
X01067171Y00641006D01*
X01068915Y00642345D01*
X01070254Y00644089D01*
X01071095Y00646120D01*
X01071382Y00648300D01*
X01071095Y00650480D01*
X01070732Y00651357D01*
X01071841Y00652466D01*
X01074389D01*
X01075474Y00651410D01*
Y00649310D01*
X01075656Y00648393D01*
X01076012Y00647860D01*
X01075656Y00647327D01*
X01075474Y00646410D01*
Y00644310D01*
X01075656Y00643393D01*
X01076012Y00642860D01*
X01075656Y00642327D01*
X01075474Y00641410D01*
Y00639310D01*
X01075656Y00638393D01*
X01076013Y00637860D01*
X01075656Y00637327D01*
X01075474Y00636410D01*
Y00634310D01*
X01075656Y00633393D01*
X01076012Y00632860D01*
X01075656Y00632327D01*
X01075474Y00631410D01*
Y00629774D01*
X01043841D01*
X01042565Y00629520D01*
X01041484Y00628797D01*
X01039092Y00626406D01*
X01038370Y00625325D01*
X01037088Y00625123D01*
X01036420Y00625256D01*
X01034320D01*
X01033794Y00625688D01*
Y00668409D01*
X01033540Y00669685D01*
X01032818Y00670766D01*
X01014390Y00689194D01*
X01014916Y00690464D01*
X01016420D01*
X01017337Y00690646D01*
X01017870Y00691003D01*
X01018403Y00690646D01*
X01019100Y00690508D01*
Y00699710D01*
Y00708912D01*
X01018403Y00708774D01*
X01017870Y00708418D01*
X01017337Y00708774D01*
X01016420Y00708956D01*
X01014320D01*
X01013403Y00708774D01*
X01012626Y00708254D01*
X01012106Y00707477D01*
X01011924Y00706560D01*
Y00693456D01*
X01010654Y00692930D01*
X00976796Y00726787D01*
X00975715Y00727510D01*
X00974439Y00727764D01*
X00969578D01*
X00941685Y00755658D01*
X00940603Y00756380D01*
X00939327Y00756634D01*
X00921161D01*
X00901142Y00776653D01*
X00901505Y00777530D01*
X00901792Y00779710D01*
X00901505Y00781890D01*
X00900664Y00783921D01*
X00899325Y00785665D01*
X00897581Y00787004D01*
X00895550Y00787845D01*
X00893370Y00788132D01*
X00891190Y00787845D01*
X00889159Y00787004D01*
X00887415Y00785665D01*
X00886076Y00783921D01*
X00885235Y00781890D01*
X00884948Y00779710D01*
X00885235Y00777530D01*
X00886076Y00775499D01*
X00887415Y00773755D01*
X00889159Y00772416D01*
X00891190Y00771575D01*
X00893370Y00771288D01*
X00895550Y00771575D01*
X00896427Y00771938D01*
X00917422Y00750943D01*
X00918504Y00750220D01*
X00919780Y00749966D01*
X00937946D01*
X00965840Y00722073D01*
X00966921Y00721350D01*
X00968197Y00721096D01*
X00973058D01*
X01004174Y00689979D01*
X01003688Y00688806D01*
X00994170D01*
X00993253Y00688624D01*
X00992476Y00688104D01*
X00991956Y00687327D01*
X00991774Y00686410D01*
Y00684310D01*
X00991956Y00683393D01*
X00992312Y00682860D01*
X00991956Y00682327D01*
X00991774Y00681410D01*
Y00679310D01*
X00991956Y00678393D01*
X00992312Y00677860D01*
X00991956Y00677327D01*
X00991774Y00676410D01*
Y00674310D01*
X00991956Y00673393D01*
X00992312Y00672860D01*
X00991956Y00672327D01*
X00991774Y00671410D01*
Y00670997D01*
X00990504Y00670471D01*
X00950318Y00710658D01*
X00949236Y00711380D01*
X00947960Y00711634D01*
X00947573D01*
Y00727050D01*
X00947126Y00729294D01*
X00945855Y00731196D01*
X00943953Y00732466D01*
X00941710Y00732913D01*
X00934210D01*
X00931966Y00732466D01*
X00930064Y00731196D01*
X00928794Y00729294D01*
X00928347Y00727050D01*
Y00711634D01*
X00906460D01*
Y00715800D01*
X00889460D01*
Y00702800D01*
X00906460D01*
Y00704966D01*
X00928347D01*
Y00689550D01*
X00928794Y00687307D01*
X00930064Y00685405D01*
X00931966Y00684134D01*
X00934210Y00683687D01*
X00941710D01*
X00943953Y00684134D01*
X00945855Y00685405D01*
X00947126Y00687307D01*
X00947573Y00689550D01*
Y00702313D01*
X00948746Y00702799D01*
X00987371Y00664174D01*
X00987902Y00663436D01*
X00987383Y00662439D01*
X00948746Y00623801D01*
X00947573Y00624287D01*
Y00632050D01*
X00947126Y00634294D01*
X00945855Y00636195D01*
X00943953Y00637466D01*
X00941710Y00637913D01*
X00934210D01*
X00931966Y00637466D01*
X00930064Y00636195D01*
X00928794Y00634294D01*
X00928347Y00632050D01*
Y00616634D01*
X00906460D01*
Y00618800D01*
X00889460D01*
Y00605800D01*
X00906460D01*
Y00609966D01*
X00928347D01*
Y00594550D01*
X00928794Y00592307D01*
X00929931Y00590604D01*
X00929555Y00589334D01*
X00891641D01*
X00851274Y00629701D01*
Y00649620D01*
X00852413Y00650182D01*
X00853169Y00649602D01*
X00855480Y00648644D01*
X00857960Y00648318D01*
X00860440Y00648644D01*
X00862751Y00649602D01*
X00864735Y00651125D01*
X00866258Y00653109D01*
X00867215Y00655420D01*
X00867542Y00657900D01*
X00867215Y00660380D01*
X00866258Y00662691D01*
X00864735Y00664676D01*
X00862751Y00666198D01*
X00860440Y00667156D01*
X00857960Y00667482D01*
X00855480Y00667156D01*
X00853169Y00666198D01*
X00852413Y00665618D01*
X00851274Y00666180D01*
Y00675020D01*
X00852413Y00675582D01*
X00853169Y00675002D01*
X00855480Y00674044D01*
X00857960Y00673718D01*
X00860440Y00674044D01*
X00862751Y00675002D01*
X00864735Y00676525D01*
X00866258Y00678509D01*
X00867215Y00680820D01*
X00867542Y00683300D01*
X00867215Y00685780D01*
X00866258Y00688091D01*
X00864735Y00690076D01*
X00862751Y00691598D01*
X00860440Y00692555D01*
X00857960Y00692882D01*
X00855480Y00692555D01*
X00853169Y00691598D01*
X00852413Y00691018D01*
X00851274Y00691580D01*
Y00700420D01*
X00852413Y00700982D01*
X00853169Y00700402D01*
X00855480Y00699445D01*
X00857960Y00699118D01*
X00860440Y00699445D01*
X00862751Y00700402D01*
X00864735Y00701925D01*
X00866258Y00703909D01*
X00867215Y00706220D01*
X00867542Y00708700D01*
X00867215Y00711180D01*
X00866258Y00713491D01*
X00864735Y00715475D01*
X00862751Y00716998D01*
X00860440Y00717955D01*
X00857960Y00718282D01*
X00855480Y00717955D01*
X00853169Y00716998D01*
X00852413Y00716418D01*
X00851274Y00716980D01*
Y00724600D01*
X00856690D01*
Y00734100D01*
Y00743600D01*
X00851274D01*
Y00754220D01*
X00852413Y00754782D01*
X00853169Y00754202D01*
X00855480Y00753244D01*
X00857960Y00752918D01*
X00860440Y00753244D01*
X00862751Y00754202D01*
X00864735Y00755724D01*
X00866258Y00757709D01*
X00867215Y00760020D01*
X00867542Y00762500D01*
X00867215Y00764980D01*
X00866258Y00767291D01*
X00864735Y00769275D01*
X00862751Y00770798D01*
X00860440Y00771756D01*
X00857960Y00772082D01*
X00855480Y00771756D01*
X00853169Y00770798D01*
X00852413Y00770218D01*
X00851274Y00770780D01*
Y00779620D01*
X00852413Y00780182D01*
X00853169Y00779602D01*
X00855480Y00778644D01*
X00857960Y00778318D01*
X00860440Y00778644D01*
X00862751Y00779602D01*
X00864735Y00781124D01*
X00866258Y00783109D01*
X00867215Y00785420D01*
X00867542Y00787900D01*
X00867215Y00790380D01*
X00866612Y00791837D01*
X00877151Y00802376D01*
X00918200D01*
Y00793180D01*
X00930200D01*
X00942200D01*
Y00802376D01*
X00948669D01*
X01006460Y00744585D01*
D02*
G37*
G36*
X01100296Y00795415D02*
Y00787437D01*
X01099419Y00787074D01*
X01097675Y00785735D01*
X01096336Y00783991D01*
X01095495Y00781960D01*
X01095208Y00779780D01*
X01095495Y00777600D01*
X01096336Y00775569D01*
X01097675Y00773825D01*
X01099419Y00772486D01*
X01100296Y00772123D01*
Y00758838D01*
X01090440D01*
X01088879Y00758528D01*
X01087556Y00757644D01*
X01086672Y00756321D01*
X01086362Y00754760D01*
Y00738760D01*
X01086672Y00737199D01*
X01087556Y00735876D01*
X01088879Y00734992D01*
X01090440Y00734682D01*
X01106646D01*
Y00714558D01*
X01105473Y00714072D01*
X01070154Y00749391D01*
Y00761909D01*
X01072633Y00764388D01*
X01073510Y00764025D01*
X01075690Y00763738D01*
X01077870Y00764025D01*
X01079901Y00764866D01*
X01081645Y00766205D01*
X01082984Y00767949D01*
X01083825Y00769980D01*
X01084112Y00772160D01*
X01083825Y00774340D01*
X01082984Y00776371D01*
X01081645Y00778115D01*
X01079901Y00779454D01*
X01077870Y00780295D01*
X01075690Y00780582D01*
X01073510Y00780295D01*
X01071479Y00779454D01*
X01069735Y00778115D01*
X01068396Y00776371D01*
X01067555Y00774340D01*
X01067268Y00772160D01*
X01067555Y00769980D01*
X01067918Y00769103D01*
X01064463Y00765648D01*
X01063740Y00764566D01*
X01063486Y00763290D01*
Y00748010D01*
X01063740Y00746734D01*
X01064463Y00745652D01*
X01102666Y00707449D01*
Y00671720D01*
X01102920Y00670444D01*
X01103643Y00669363D01*
X01112956Y00660049D01*
Y00658084D01*
X01111686Y00657653D01*
X01110855Y00658735D01*
X01109111Y00660074D01*
X01107080Y00660915D01*
X01104900Y00661202D01*
X01102720Y00660915D01*
X01100689Y00660074D01*
X01098945Y00658735D01*
X01097606Y00656991D01*
X01096765Y00654960D01*
X01096598Y00653694D01*
X01094472D01*
X01093966Y00654310D01*
Y00656410D01*
X01093784Y00657327D01*
X01093428Y00657860D01*
X01093784Y00658393D01*
X01093966Y00659310D01*
Y00661410D01*
X01093784Y00662327D01*
X01093428Y00662860D01*
X01093784Y00663393D01*
X01093966Y00664310D01*
Y00666410D01*
X01093784Y00667327D01*
X01093428Y00667860D01*
X01093784Y00668393D01*
X01093966Y00669310D01*
Y00671410D01*
X01093784Y00672327D01*
X01093428Y00672860D01*
X01093784Y00673393D01*
X01093966Y00674310D01*
Y00676410D01*
X01093784Y00677327D01*
X01093428Y00677860D01*
X01093784Y00678393D01*
X01093922Y00679090D01*
X01084720D01*
Y00681630D01*
X01093922D01*
X01093784Y00682327D01*
X01093428Y00682860D01*
X01093784Y00683393D01*
X01093966Y00684310D01*
Y00686410D01*
X01093784Y00687327D01*
X01093264Y00688104D01*
X01092487Y00688624D01*
X01091570Y00688806D01*
X01077870D01*
X01077714Y00688934D01*
Y00693339D01*
X01079903Y00695528D01*
X01080780Y00695165D01*
X01082960Y00694878D01*
X01085140Y00695165D01*
X01087171Y00696006D01*
X01088915Y00697345D01*
X01090254Y00699089D01*
X01091095Y00701120D01*
X01091382Y00703300D01*
X01091095Y00705480D01*
X01090254Y00707511D01*
X01088915Y00709255D01*
X01087171Y00710594D01*
X01085140Y00711435D01*
X01082960Y00711722D01*
X01080780Y00711435D01*
X01078749Y00710594D01*
X01077005Y00709255D01*
X01075666Y00707511D01*
X01075086Y00706110D01*
X01073816Y00706363D01*
Y00706560D01*
X01073794Y00706670D01*
Y00711313D01*
X01074671Y00711676D01*
X01076415Y00713015D01*
X01077754Y00714759D01*
X01078595Y00716790D01*
X01078882Y00718970D01*
X01078595Y00721150D01*
X01077754Y00723181D01*
X01076415Y00724925D01*
X01074671Y00726264D01*
X01072640Y00727105D01*
X01070460Y00727392D01*
X01068280Y00727105D01*
X01066249Y00726264D01*
X01064505Y00724925D01*
X01063166Y00723181D01*
X01062325Y00721150D01*
X01062038Y00718970D01*
X01062325Y00716790D01*
X01063166Y00714759D01*
X01064505Y00713015D01*
X01066249Y00711676D01*
X01067126Y00711313D01*
Y00709535D01*
X01066420Y00708956D01*
X01064320D01*
X01063403Y00708774D01*
X01062870Y00708418D01*
X01062337Y00708774D01*
X01061420Y00708956D01*
X01059320D01*
X01058403Y00708774D01*
X01057870Y00708418D01*
X01057337Y00708774D01*
X01056420Y00708956D01*
X01054320D01*
X01053834Y00709355D01*
Y00744136D01*
X01055211Y00744706D01*
X01056955Y00746045D01*
X01058294Y00747789D01*
X01059135Y00749820D01*
X01059422Y00752000D01*
X01059135Y00754180D01*
X01058294Y00756211D01*
X01056955Y00757955D01*
X01055211Y00759294D01*
X01053180Y00760135D01*
X01051000Y00760422D01*
X01048820Y00760135D01*
X01046789Y00759294D01*
X01045140Y00758028D01*
X01044444Y00758159D01*
X01043870Y00758354D01*
Y00765210D01*
X01036640D01*
Y00758710D01*
Y00752210D01*
X01042394D01*
X01042578Y00752000D01*
X01042865Y00749820D01*
X01043706Y00747789D01*
X01045045Y00746045D01*
X01046789Y00744706D01*
X01047166Y00744550D01*
Y00709568D01*
X01046420Y00708956D01*
X01044320D01*
X01043403Y00708774D01*
X01042870Y00708418D01*
X01042337Y00708774D01*
X01041420Y00708956D01*
X01039320D01*
X01038704Y00709462D01*
Y00730210D01*
X01043870D01*
Y00743210D01*
X01026954D01*
Y00752210D01*
X01034100D01*
Y00758710D01*
Y00765210D01*
X01033680D01*
X01033195Y00766383D01*
X01054687Y00787876D01*
X01089660D01*
X01090936Y00788130D01*
X01092018Y00788852D01*
X01098367Y00795202D01*
X01099026Y00796188D01*
X01099118Y00796198D01*
X01100296Y00795415D01*
D02*
G37*
G36*
X01027126Y00667028D02*
Y00625835D01*
X01026420Y00625256D01*
X01024320D01*
X01023403Y00625074D01*
X01022870Y00624717D01*
X01022337Y00625074D01*
X01021420Y00625256D01*
X01019320D01*
X01018403Y00625074D01*
X01017870Y00624717D01*
X01017337Y00625074D01*
X01016420Y00625256D01*
X01014320D01*
X01013403Y00625074D01*
X01012626Y00624554D01*
X01012106Y00623777D01*
X01011924Y00622860D01*
Y00609160D01*
X01012106Y00608243D01*
X01012626Y00607466D01*
X01013403Y00606946D01*
X01014320Y00606764D01*
X01016420D01*
X01017337Y00606946D01*
X01017870Y00607303D01*
X01018403Y00606946D01*
X01019320Y00606764D01*
X01021420D01*
X01022337Y00606946D01*
X01022870Y00607303D01*
X01023403Y00606946D01*
X01024320Y00606764D01*
X01026420D01*
X01027337Y00606946D01*
X01027870Y00607303D01*
X01028403Y00606946D01*
X01029320Y00606764D01*
X01031420D01*
X01032337Y00606946D01*
X01032870Y00607303D01*
X01033403Y00606946D01*
X01034320Y00606764D01*
X01036420D01*
X01037337Y00606946D01*
X01037870Y00607303D01*
X01038403Y00606946D01*
X01039320Y00606764D01*
X01041420D01*
X01042166Y00606152D01*
Y00597500D01*
X01042420Y00596224D01*
X01043142Y00595143D01*
X01047681Y00590604D01*
X01047155Y00589334D01*
X00952334D01*
Y00609619D01*
X00990016Y00647301D01*
X00991606Y00647095D01*
X00991833Y00646707D01*
X00991774Y00646410D01*
Y00644310D01*
X00991956Y00643393D01*
X00992312Y00642860D01*
X00991956Y00642327D01*
X00991774Y00641410D01*
Y00639310D01*
X00991956Y00638393D01*
X00992312Y00637860D01*
X00991956Y00637327D01*
X00991774Y00636410D01*
Y00634310D01*
X00991956Y00633393D01*
X00992312Y00632860D01*
X00991956Y00632327D01*
X00991774Y00631410D01*
Y00629310D01*
X00991956Y00628393D01*
X00992476Y00627616D01*
X00993253Y00627096D01*
X00994170Y00626914D01*
X01007870D01*
X01008787Y00627096D01*
X01009564Y00627616D01*
X01010084Y00628393D01*
X01010266Y00629310D01*
Y00631410D01*
X01010084Y00632327D01*
X01009727Y00632860D01*
X01010084Y00633393D01*
X01010266Y00634310D01*
Y00636410D01*
X01010084Y00637327D01*
X01009727Y00637860D01*
X01010084Y00638393D01*
X01010266Y00639310D01*
Y00641410D01*
X01010084Y00642327D01*
X01009727Y00642860D01*
X01010084Y00643393D01*
X01010266Y00644310D01*
Y00646410D01*
X01010084Y00647327D01*
X01009727Y00647860D01*
X01010084Y00648393D01*
X01010222Y00649090D01*
X01001020D01*
Y00651630D01*
X01010222D01*
X01010084Y00652327D01*
X01009727Y00652860D01*
X01010084Y00653393D01*
X01010266Y00654310D01*
Y00656410D01*
X01010084Y00657327D01*
X01009727Y00657860D01*
X01010084Y00658393D01*
X01010266Y00659310D01*
Y00661410D01*
X01010084Y00662327D01*
X01009727Y00662860D01*
X01010084Y00663393D01*
X01010266Y00664310D01*
Y00666410D01*
X01010084Y00667327D01*
X01009727Y00667860D01*
X01010084Y00668393D01*
X01010266Y00669310D01*
Y00671410D01*
X01010084Y00672327D01*
X01009727Y00672860D01*
X01010084Y00673393D01*
X01010266Y00674310D01*
Y00676410D01*
X01010084Y00677327D01*
X01009727Y00677860D01*
X01010084Y00678393D01*
X01010266Y00679310D01*
Y00681410D01*
X01010097Y00682261D01*
X01010169Y00682367D01*
X01011267Y00682886D01*
X01027126Y00667028D01*
D02*
G37*
G36*
X01112889Y00628423D02*
Y00615900D01*
X01113169Y00614495D01*
X01113965Y00613305D01*
X01115155Y00612509D01*
X01116560Y00612229D01*
X01124756D01*
Y00604910D01*
X01125010Y00603634D01*
X01125732Y00602552D01*
X01132228Y00596057D01*
X01131865Y00595180D01*
X01131578Y00593000D01*
X01131865Y00590820D01*
X01132024Y00590436D01*
X01131178Y00589334D01*
X01122713D01*
X01122151Y00590473D01*
X01122294Y00590659D01*
X01123135Y00592690D01*
X01123422Y00594870D01*
X01123135Y00597050D01*
X01122294Y00599081D01*
X01120955Y00600825D01*
X01119211Y00602164D01*
X01117180Y00603005D01*
X01115000Y00603292D01*
X01112820Y00603005D01*
X01110789Y00602164D01*
X01109045Y00600825D01*
X01107706Y00599081D01*
X01106865Y00597050D01*
X01106639Y00595334D01*
X01052381D01*
X01048834Y00598881D01*
Y00606365D01*
X01049320Y00606764D01*
X01051420D01*
X01052337Y00606946D01*
X01052870Y00607303D01*
X01053403Y00606946D01*
X01054320Y00606764D01*
X01056420D01*
X01057337Y00606946D01*
X01057870Y00607303D01*
X01058403Y00606946D01*
X01059320Y00606764D01*
X01061420D01*
X01062337Y00606946D01*
X01062870Y00607303D01*
X01063403Y00606946D01*
X01064100Y00606808D01*
Y00616010D01*
X01066640D01*
Y00606808D01*
X01067337Y00606946D01*
X01067870Y00607303D01*
X01068403Y00606946D01*
X01069320Y00606764D01*
X01071420D01*
X01072337Y00606946D01*
X01073114Y00607466D01*
X01073634Y00608243D01*
X01073816Y00609160D01*
Y00614236D01*
X01075693D01*
X01076056Y00613359D01*
X01077395Y00611615D01*
X01079139Y00610276D01*
X01081170Y00609435D01*
X01083350Y00609148D01*
X01085530Y00609435D01*
X01087561Y00610276D01*
X01089305Y00611615D01*
X01090644Y00613359D01*
X01091309Y00614966D01*
X01096472D01*
X01097748Y00615220D01*
X01098830Y00615942D01*
X01100318Y00617430D01*
X01100479Y00617672D01*
X01111716Y00628909D01*
X01112889Y00628423D01*
D02*
G37*
%LPC*%
G36*
X00942200Y00790640D02*
X00931470D01*
Y00779910D01*
X00942200D01*
Y00790640D01*
D02*
G37*
G36*
X00928930D02*
X00918200D01*
Y00779910D01*
X00928930D01*
Y00790640D01*
D02*
G37*
G36*
X00867460Y00743600D02*
X00859230D01*
Y00735370D01*
X00867460D01*
Y00743600D01*
D02*
G37*
G36*
Y00732830D02*
X00859230D01*
Y00724600D01*
X00867460D01*
Y00732830D01*
D02*
G37*
G36*
X00906460Y00693800D02*
X00899230D01*
Y00688570D01*
X00906460D01*
Y00693800D01*
D02*
G37*
G36*
X00896690D02*
X00889460D01*
Y00688570D01*
X00896690D01*
Y00693800D01*
D02*
G37*
G36*
X00906460Y00686030D02*
X00899230D01*
Y00680800D01*
X00906460D01*
Y00686030D01*
D02*
G37*
G36*
X00896690D02*
X00889460D01*
Y00680800D01*
X00896690D01*
Y00686030D01*
D02*
G37*
G36*
X00906460Y00640800D02*
X00899230D01*
Y00635570D01*
X00906460D01*
Y00640800D01*
D02*
G37*
G36*
X00896690D02*
X00889460D01*
Y00635570D01*
X00896690D01*
Y00640800D01*
D02*
G37*
G36*
X00906460Y00633030D02*
X00899230D01*
Y00627800D01*
X00906460D01*
Y00633030D01*
D02*
G37*
G36*
X00896690D02*
X00889460D01*
Y00627800D01*
X00896690D01*
Y00633030D01*
D02*
G37*
%LPD*%
D12*
X01050500Y00751500D02*
X01051000Y00752000D01*
X01050370Y00699710D02*
X01050500Y00699840D01*
Y00751500D01*
X01035370Y00699710D02*
Y00736710D01*
X01112251Y00594870D02*
X01115000D01*
X00949000Y00586000D02*
X01133000D01*
X01140000Y00593000D01*
X01108488Y00592056D02*
X01109437D01*
X01112251Y00594870D01*
X00949000Y00586000D02*
Y00611000D01*
X00993230Y00655230D01*
X00890260Y00586000D02*
X00949000D01*
X01045500Y00597500D02*
Y00615880D01*
X01051000Y00592000D02*
X01108432D01*
X01045500Y00597500D02*
X01051000Y00592000D01*
X01108432D02*
X01108488Y00592056D01*
X01000720Y00655230D02*
X01000980Y00655490D01*
X00993230Y00655230D02*
X01000720D01*
X00947782Y00618122D02*
X00990460Y00660800D01*
X00937960Y00613300D02*
X00942782Y00618122D01*
X00990460Y00660800D02*
X01001110D01*
X00942782Y00618122D02*
X00947782D01*
X00902960Y00708300D02*
X00947960D01*
X01122960Y00623300D02*
X01128090Y00618170D01*
Y00604910D02*
Y00618170D01*
Y00604910D02*
X01140000Y00593000D01*
X01045370Y00616010D02*
X01045500Y00615880D01*
X01106000Y00671720D02*
X01116290Y00661430D01*
X01066820Y00748010D02*
X01106000Y00708830D01*
Y00671720D02*
Y00708830D01*
X01074380Y00677620D02*
X01076510Y00675490D01*
X01084590D01*
X01074380Y00677620D02*
Y00694720D01*
X01084590Y00675490D02*
X01084720Y00675360D01*
X00847940Y00628320D02*
X00890260Y00586000D01*
X01102151Y00652780D02*
X01104900D01*
X01084720Y00650360D02*
X01099731D01*
X01102151Y00652780D01*
X01097960Y00619788D02*
Y00619868D01*
X01083350Y00617570D02*
X01084080Y00618300D01*
X01096472D01*
X01097960Y00619788D01*
X01070500Y00617570D02*
X01083350D01*
X01043841Y00626440D02*
X01096164D01*
X01116290Y00646566D01*
Y00661430D01*
X01120080Y00641988D02*
Y00663000D01*
X01109980Y00673100D02*
X01120080Y00663000D01*
X01097960Y00619868D02*
X01120080Y00641988D01*
X01070460Y00617530D02*
X01070500Y00617570D01*
X01074380Y00694720D02*
X01082960Y00703300D01*
X01070460Y00700150D02*
Y00718970D01*
X01066820Y00763290D02*
X01075690Y00772160D01*
X01066820Y00748010D02*
Y00763290D01*
X01103630Y00749606D02*
Y00779780D01*
Y00749606D02*
X01109980Y00743256D01*
Y00673100D02*
Y00743256D01*
X01041450Y00624049D02*
X01043841Y00626440D01*
X01040370Y00616010D02*
Y00621810D01*
X01041450Y00622890D02*
Y00624049D01*
X01040370Y00621810D02*
X01041450Y00622890D01*
X01103630Y00779780D02*
Y00809836D01*
X01096010Y00797560D02*
Y00866350D01*
X01089660Y00791210D02*
X01096010Y00797560D01*
Y00866350D02*
X01097960Y00868300D01*
X01053306Y00791210D02*
X01089660D01*
X01022960Y00790425D02*
Y00813300D01*
X01020505Y00787970D02*
X01022960Y00790425D01*
X01023620Y00761524D02*
X01053306Y00791210D01*
X00991960Y00733300D02*
X01022132D01*
X01023620Y00734788D01*
Y00761524D01*
X00914960Y00931300D02*
X00915460Y00930800D01*
X00892960Y00931300D02*
X00914960D01*
X00947960Y00708300D02*
X00990330Y00665930D01*
X01000980D01*
X00847940Y00628320D02*
Y00857080D01*
X00857960Y00867100D01*
X00939327Y00753300D02*
X00968197Y00724430D01*
X00974439D01*
X01030460Y00668409D01*
Y00616450D02*
Y00668409D01*
X00857960Y00762500D02*
X00858977Y00761483D01*
X01070460Y00655800D02*
X01084810D01*
X01062960Y00648300D02*
X01070460Y00655800D01*
X01062960Y00668300D02*
X01070460Y00660800D01*
X01084810D01*
X00902960Y00613300D02*
X00937960D01*
X01000980Y00665930D02*
X01001110Y00665800D01*
X01022960Y00813300D02*
X01083984D01*
X00930335Y00965770D02*
X00944145Y00951960D01*
X01051815D01*
X01066250Y00966395D01*
X01075655D01*
X01077560Y00968300D01*
X01023035D02*
X01052160D01*
X01020505Y00965770D02*
X01023035Y00968300D01*
X00858160Y00968500D02*
X00892760D01*
X00892960Y00968300D01*
X00857960Y00968700D02*
X00858160Y00968500D01*
X00981960Y00742300D02*
X00990960Y00733300D01*
X01022960Y00813300D02*
Y00869300D01*
X01074960Y00921300D01*
Y00937300D01*
X00950050Y00805710D02*
X01012960Y00742800D01*
X00875770Y00805710D02*
X00950050D01*
X00857960Y00787900D02*
X00875770Y00805710D01*
X01022667Y00721869D02*
X01024598Y00719938D01*
X01014891Y00721869D02*
X01022667D01*
X01012960Y00723800D02*
X01014891Y00721869D01*
X00919780Y00753300D02*
X00939327D01*
X00893370Y00779710D02*
X00919780Y00753300D01*
X00904120Y00820710D02*
X00905120Y00821710D01*
X00921370D01*
X00904120Y00845710D02*
X00906120Y00847710D01*
X00921370D01*
X00904120Y00871710D02*
X00905120Y00872710D01*
X00921370D01*
D33*
X00937960Y00613300D02*
D03*
Y00708300D02*
D03*
D34*
X00930200Y00791910D02*
D03*
Y00969710D02*
D03*
X01020370Y00791910D02*
D03*
Y00969710D02*
D03*
D35*
X01130440Y00809760D02*
D03*
X01107440D02*
D03*
X01084440D02*
D03*
D36*
X01107440Y00746760D02*
D03*
D37*
X01015370Y00616010D02*
D03*
X01020370D02*
D03*
X01025370D02*
D03*
X01030370D02*
D03*
X01035370D02*
D03*
X01040370D02*
D03*
X01045370D02*
D03*
X01050370D02*
D03*
X01055370D02*
D03*
X01060370D02*
D03*
X01065370D02*
D03*
X01070370D02*
D03*
Y00699710D02*
D03*
X01065370D02*
D03*
X01060370D02*
D03*
X01055370D02*
D03*
X01050370D02*
D03*
X01045370D02*
D03*
X01040370D02*
D03*
X01035370D02*
D03*
X01030370D02*
D03*
X01025370D02*
D03*
X01020370D02*
D03*
X01015370D02*
D03*
D38*
X01001020Y00685360D02*
D03*
Y00680360D02*
D03*
Y00675360D02*
D03*
Y00670360D02*
D03*
Y00665360D02*
D03*
Y00660360D02*
D03*
Y00655360D02*
D03*
Y00650360D02*
D03*
Y00645360D02*
D03*
Y00640360D02*
D03*
Y00635360D02*
D03*
Y00630360D02*
D03*
X01084720D02*
D03*
Y00635360D02*
D03*
Y00640360D02*
D03*
Y00645360D02*
D03*
Y00650360D02*
D03*
Y00655360D02*
D03*
Y00660360D02*
D03*
Y00665360D02*
D03*
Y00670360D02*
D03*
Y00675360D02*
D03*
Y00680360D02*
D03*
Y00685360D02*
D03*
D39*
X01097960Y00868300D02*
D03*
D40*
X01074960Y00937300D02*
D03*
X01120960D02*
D03*
D41*
X00991960Y00733300D02*
D03*
X01012960Y00742800D02*
D03*
Y00723800D02*
D03*
D42*
X00904120Y00871710D02*
D03*
X00884620D02*
D03*
X00904120Y00845710D02*
D03*
X00884620D02*
D03*
X00904120Y00820710D02*
D03*
X00884620D02*
D03*
D43*
X00897960Y00634300D02*
D03*
Y00612300D02*
D03*
Y00687300D02*
D03*
Y00709300D02*
D03*
X01035370Y00758710D02*
D03*
Y00736710D02*
D03*
D44*
X01122960Y00694550D02*
D03*
Y00623300D02*
D03*
D45*
X00892960Y00931300D02*
D03*
Y00968300D02*
D03*
D46*
X01052160D02*
D03*
X01077560D02*
D03*
X01102960D02*
D03*
X00857960Y00762500D02*
D03*
Y00787900D02*
D03*
Y00813300D02*
D03*
Y00657900D02*
D03*
Y00683300D02*
D03*
Y00708700D02*
D03*
Y00968700D02*
D03*
Y00943300D02*
D03*
Y00917900D02*
D03*
Y00892500D02*
D03*
D47*
X01128360Y00968300D02*
D03*
D48*
X00857960Y00838700D02*
D03*
Y00734100D02*
D03*
Y00867100D02*
D03*
D49*
X01051000Y00752000D02*
D03*
X01063000Y00734000D02*
D03*
X01115000Y00594870D02*
D03*
X00962000Y00598000D02*
D03*
X01046000Y00865000D02*
D03*
X01095000Y00602000D02*
D03*
X01140000Y00593000D02*
D03*
X01104900Y00652780D02*
D03*
X01083350Y00617570D02*
D03*
X01082960Y00703300D02*
D03*
X01070460Y00718970D02*
D03*
X01075690Y00772160D02*
D03*
X01103630Y00779780D02*
D03*
X00870460Y00623300D02*
D03*
X00915210Y00931050D02*
D03*
X01062960Y00648300D02*
D03*
Y00668300D02*
D03*
X00978370Y00744710D02*
D03*
X01024598Y00719938D02*
D03*
X00893370Y00779710D02*
D03*
X00921370Y00821710D02*
D03*
Y00847710D02*
D03*
Y00872710D02*
D03*
D50*
X01160000Y01010000D02*
D03*
Y00570000D02*
D03*
X00820000D02*
D03*
Y01010000D02*
D03*
M02*
