G04*
G04 #@! TF.GenerationSoftware,Altium Limited,Altium Designer,22.7.1 (60)*
G04*
G04 Layer_Color=32896*
%FSAX44Y44*%
%MOMM*%
G71*
G04*
G04 #@! TF.SameCoordinates,EF1B45EE-5991-4E0F-B012-367B3C428A9F*
G04*
G04*
G04 #@! TF.FilePolarity,Positive*
G04*
G01*
G75*
%ADD11C,0.1000*%
%ADD12C,0.2540*%
D11*
X00946120Y00814960D02*
X00956620D01*
X00946120Y00828460D02*
X00956620D01*
X00946120Y00840960D02*
X00956620D01*
X00946120Y00854460D02*
X00956620D01*
X01018120Y00707460D02*
X01028620D01*
X01018120Y00693960D02*
X01028620D01*
X00946120Y00865960D02*
X00956620D01*
X00946120Y00879460D02*
X00956620D01*
X01003620Y00731460D02*
Y00741960D01*
X01017120Y00731460D02*
Y00741960D01*
X00971210Y00603050D02*
Y00613550D01*
X00984710Y00603050D02*
Y00613550D01*
X00996210Y00603050D02*
Y00613550D01*
X01009710Y00603050D02*
Y00613550D01*
X01021210Y00603050D02*
Y00613550D01*
X01034710Y00603050D02*
Y00613550D01*
X01046210Y00603050D02*
Y00613550D01*
X01059710Y00603050D02*
Y00613550D01*
X01134510Y00628910D02*
Y00639410D01*
X01121010Y00628910D02*
Y00639410D01*
X01071210Y00603050D02*
Y00613550D01*
X01084710Y00603050D02*
Y00613550D01*
D12*
X01002566Y00693092D02*
Y00708327D01*
X00994948D01*
X00992409Y00705788D01*
Y00700710D01*
X00994948Y00698171D01*
X01002566D01*
X00997487D02*
X00992409Y00693092D01*
X00987331Y00705788D02*
X00984792Y00708327D01*
X00979713D01*
X00977174Y00705788D01*
Y00703249D01*
X00979713Y00700710D01*
X00982252D01*
X00979713D01*
X00977174Y00698171D01*
Y00695632D01*
X00979713Y00693092D01*
X00984792D01*
X00987331Y00695632D01*
X00963422Y00887476D02*
Y00902711D01*
X00955805D01*
X00953265Y00900172D01*
Y00895094D01*
X00955805Y00892554D01*
X00963422D01*
X00958344D02*
X00953265Y00887476D01*
X00938030D02*
X00948187D01*
X00938030Y00897633D01*
Y00900172D01*
X00940569Y00902711D01*
X00945648D01*
X00948187Y00900172D01*
X01022753Y00736553D02*
X01037988D01*
Y00744171D01*
X01035448Y00746710D01*
X01030370D01*
X01027831Y00744171D01*
Y00736553D01*
Y00741632D02*
X01022753Y00746710D01*
Y00751788D02*
Y00756867D01*
Y00754328D01*
X01037988D01*
X01035448Y00751788D01*
X00980499Y00585878D02*
X00983038Y00588418D01*
X00988117D01*
X00990656Y00585878D01*
Y00575722D01*
X00988117Y00573182D01*
X00983038D01*
X00980499Y00575722D01*
X00975421Y00585878D02*
X00972882Y00588418D01*
X00967803D01*
X00965264Y00585878D01*
Y00583339D01*
X00967803Y00580800D01*
X00965264Y00578261D01*
Y00575722D01*
X00967803Y00573182D01*
X00972882D01*
X00975421Y00575722D01*
Y00578261D01*
X00972882Y00580800D01*
X00975421Y00583339D01*
Y00585878D01*
X00972882Y00580800D02*
X00967803D01*
X01005499Y00640878D02*
X01008038Y00643418D01*
X01013117D01*
X01015656Y00640878D01*
Y00630722D01*
X01013117Y00628182D01*
X01008038D01*
X01005499Y00630722D01*
X01000421Y00643418D02*
X00990264D01*
Y00640878D01*
X01000421Y00630722D01*
Y00628182D01*
X01030499Y00585878D02*
X01033038Y00588418D01*
X01038117D01*
X01040656Y00585878D01*
Y00575722D01*
X01038117Y00573182D01*
X01033038D01*
X01030499Y00575722D01*
X01015264Y00588418D02*
X01020342Y00585878D01*
X01025421Y00580800D01*
Y00575722D01*
X01022882Y00573182D01*
X01017803D01*
X01015264Y00575722D01*
Y00578261D01*
X01017803Y00580800D01*
X01025421D01*
X01055499Y00640878D02*
X01058038Y00643418D01*
X01063117D01*
X01065656Y00640878D01*
Y00630722D01*
X01063117Y00628182D01*
X01058038D01*
X01055499Y00630722D01*
X01040264Y00643418D02*
X01050421D01*
Y00635800D01*
X01045342Y00638339D01*
X01042803D01*
X01040264Y00635800D01*
Y00630722D01*
X01042803Y00628182D01*
X01047882D01*
X01050421Y00630722D01*
X01155338Y00631621D02*
X01157878Y00629082D01*
Y00624003D01*
X01155338Y00621464D01*
X01145182D01*
X01142643Y00624003D01*
Y00629082D01*
X01145182Y00631621D01*
X01142643Y00644317D02*
X01157878D01*
X01150260Y00636699D01*
Y00646856D01*
X01080499Y00585878D02*
X01083038Y00588418D01*
X01088117D01*
X01090656Y00585878D01*
Y00575722D01*
X01088117Y00573182D01*
X01083038D01*
X01080499Y00575722D01*
X01075421Y00585878D02*
X01072882Y00588418D01*
X01067803D01*
X01065264Y00585878D01*
Y00583339D01*
X01067803Y00580800D01*
X01070342D01*
X01067803D01*
X01065264Y00578261D01*
Y00575722D01*
X01067803Y00573182D01*
X01072882D01*
X01075421Y00575722D01*
X00906696Y00838382D02*
Y00853617D01*
X00899078D01*
X00896539Y00851078D01*
Y00846000D01*
X00899078Y00843461D01*
X00906696D01*
X00901618D02*
X00896539Y00838382D01*
X00883843D02*
Y00853617D01*
X00891461Y00846000D01*
X00881304D01*
X00907696Y00814382D02*
Y00829617D01*
X00900078D01*
X00897539Y00827078D01*
Y00822000D01*
X00900078Y00819461D01*
X00907696D01*
X00902617D02*
X00897539Y00814382D01*
X00882304Y00829617D02*
X00892461D01*
Y00822000D01*
X00887383Y00824539D01*
X00884843D01*
X00882304Y00822000D01*
Y00816922D01*
X00884843Y00814382D01*
X00889922D01*
X00892461Y00816922D01*
M02*
