G04*
G04 #@! TF.GenerationSoftware,Altium Limited,Altium Designer,22.7.1 (60)*
G04*
G04 Layer_Physical_Order=1*
G04 Layer_Color=255*
%FSAX44Y44*%
%MOMM*%
G71*
G04*
G04 #@! TF.SameCoordinates,B67A478A-0272-44D9-A9C4-7CC6AF38DCCD*
G04*
G04*
G04 #@! TF.FilePolarity,Positive*
G04*
G01*
G75*
%ADD13C,0.2540*%
%ADD32R,0.9000X0.7000*%
%ADD33R,1.3000X0.9000*%
G04:AMPARAMS|DCode=34|XSize=1.44mm|YSize=0.28mm|CornerRadius=0.035mm|HoleSize=0mm|Usage=FLASHONLY|Rotation=0.000|XOffset=0mm|YOffset=0mm|HoleType=Round|Shape=RoundedRectangle|*
%AMROUNDEDRECTD34*
21,1,1.4400,0.2100,0,0,0.0*
21,1,1.3700,0.2800,0,0,0.0*
1,1,0.0700,0.6850,-0.1050*
1,1,0.0700,-0.6850,-0.1050*
1,1,0.0700,-0.6850,0.1050*
1,1,0.0700,0.6850,0.1050*
%
%ADD34ROUNDEDRECTD34*%
G04:AMPARAMS|DCode=35|XSize=0.28mm|YSize=1.44mm|CornerRadius=0.035mm|HoleSize=0mm|Usage=FLASHONLY|Rotation=0.000|XOffset=0mm|YOffset=0mm|HoleType=Round|Shape=RoundedRectangle|*
%AMROUNDEDRECTD35*
21,1,0.2800,1.3700,0,0,0.0*
21,1,0.2100,1.4400,0,0,0.0*
1,1,0.0700,0.1050,-0.6850*
1,1,0.0700,-0.1050,-0.6850*
1,1,0.0700,-0.1050,0.6850*
1,1,0.0700,0.1050,0.6850*
%
%ADD35ROUNDEDRECTD35*%
G04:AMPARAMS|DCode=36|XSize=1.6mm|YSize=1.8mm|CornerRadius=0.16mm|HoleSize=0mm|Usage=FLASHONLY|Rotation=0.000|XOffset=0mm|YOffset=0mm|HoleType=Round|Shape=RoundedRectangle|*
%AMROUNDEDRECTD36*
21,1,1.6000,1.4800,0,0,0.0*
21,1,1.2800,1.8000,0,0,0.0*
1,1,0.3200,0.6400,-0.7400*
1,1,0.3200,-0.6400,-0.7400*
1,1,0.3200,-0.6400,0.7400*
1,1,0.3200,0.6400,0.7400*
%
%ADD36ROUNDEDRECTD36*%
G04:AMPARAMS|DCode=37|XSize=3.8mm|YSize=2mm|CornerRadius=0.2mm|HoleSize=0mm|Usage=FLASHONLY|Rotation=180.000|XOffset=0mm|YOffset=0mm|HoleType=Round|Shape=RoundedRectangle|*
%AMROUNDEDRECTD37*
21,1,3.8000,1.6000,0,0,180.0*
21,1,3.4000,2.0000,0,0,180.0*
1,1,0.4000,-1.7000,0.8000*
1,1,0.4000,1.7000,0.8000*
1,1,0.4000,1.7000,-0.8000*
1,1,0.4000,-1.7000,-0.8000*
%
%ADD37ROUNDEDRECTD37*%
G04:AMPARAMS|DCode=38|XSize=1.5mm|YSize=2mm|CornerRadius=0.15mm|HoleSize=0mm|Usage=FLASHONLY|Rotation=180.000|XOffset=0mm|YOffset=0mm|HoleType=Round|Shape=RoundedRectangle|*
%AMROUNDEDRECTD38*
21,1,1.5000,1.7000,0,0,180.0*
21,1,1.2000,2.0000,0,0,180.0*
1,1,0.3000,-0.6000,0.8500*
1,1,0.3000,0.6000,0.8500*
1,1,0.3000,0.6000,-0.8500*
1,1,0.3000,-0.6000,-0.8500*
%
%ADD38ROUNDEDRECTD38*%
G04:AMPARAMS|DCode=39|XSize=1.5mm|YSize=2.5mm|CornerRadius=0.15mm|HoleSize=0mm|Usage=FLASHONLY|Rotation=180.000|XOffset=0mm|YOffset=0mm|HoleType=Round|Shape=RoundedRectangle|*
%AMROUNDEDRECTD39*
21,1,1.5000,2.2000,0,0,180.0*
21,1,1.2000,2.5000,0,0,180.0*
1,1,0.3000,-0.6000,1.1000*
1,1,0.3000,0.6000,1.1000*
1,1,0.3000,0.6000,-1.1000*
1,1,0.3000,-0.6000,-1.1000*
%
%ADD39ROUNDEDRECTD39*%
G04:AMPARAMS|DCode=40|XSize=7mm|YSize=7mm|CornerRadius=0.35mm|HoleSize=0mm|Usage=FLASHONLY|Rotation=180.000|XOffset=0mm|YOffset=0mm|HoleType=Round|Shape=RoundedRectangle|*
%AMROUNDEDRECTD40*
21,1,7.0000,6.3000,0,0,180.0*
21,1,6.3000,7.0000,0,0,180.0*
1,1,0.7000,-3.1500,3.1500*
1,1,0.7000,3.1500,3.1500*
1,1,0.7000,3.1500,-3.1500*
1,1,0.7000,-3.1500,-3.1500*
%
%ADD40ROUNDEDRECTD40*%
%ADD41R,2.0000X2.0000*%
%ADD42R,1.2000X0.7000*%
G04:AMPARAMS|DCode=43|XSize=4.5mm|YSize=1.5mm|CornerRadius=0.375mm|HoleSize=0mm|Usage=FLASHONLY|Rotation=90.000|XOffset=0mm|YOffset=0mm|HoleType=Round|Shape=RoundedRectangle|*
%AMROUNDEDRECTD43*
21,1,4.5000,0.7500,0,0,90.0*
21,1,3.7500,1.5000,0,0,90.0*
1,1,0.7500,0.3750,1.8750*
1,1,0.7500,0.3750,-1.8750*
1,1,0.7500,-0.3750,-1.8750*
1,1,0.7500,-0.3750,1.8750*
%
%ADD43ROUNDEDRECTD43*%
%ADD44R,1.5000X1.5000*%
%ADD45C,1.5000*%
%ADD46R,1.5000X1.5000*%
%ADD47C,1.2700*%
%ADD48C,3.0000*%
G36*
X00677451Y01214924D02*
X00676181Y01214736D01*
X00675944Y01215518D01*
X00674365Y01218471D01*
X00672241Y01221059D01*
X00669652Y01223184D01*
X00666699Y01224762D01*
X00663495Y01225734D01*
X00660162Y01226063D01*
X00656829Y01225734D01*
X00653625Y01224762D01*
X00650672Y01223184D01*
X00648083Y01221059D01*
X00645959Y01218471D01*
X00644380Y01215518D01*
X00643408Y01212313D01*
X00643080Y01208980D01*
X00643408Y01205648D01*
X00644380Y01202443D01*
X00645959Y01199490D01*
X00648083Y01196901D01*
X00650672Y01194777D01*
X00653625Y01193199D01*
X00656829Y01192226D01*
X00660162Y01191898D01*
X00663495Y01192226D01*
X00666699Y01193199D01*
X00669652Y01194777D01*
X00672241Y01196901D01*
X00674365Y01199490D01*
X00675944Y01202443D01*
X00676181Y01203225D01*
X00677451Y01203037D01*
Y00774924D01*
X00676181Y00774736D01*
X00675944Y00775518D01*
X00674365Y00778471D01*
X00672241Y00781059D01*
X00669652Y00783184D01*
X00666699Y00784762D01*
X00663495Y00785734D01*
X00660162Y00786063D01*
X00656829Y00785734D01*
X00653625Y00784762D01*
X00650672Y00783184D01*
X00648083Y00781059D01*
X00645959Y00778471D01*
X00644380Y00775518D01*
X00643408Y00772313D01*
X00643080Y00768980D01*
X00643408Y00765648D01*
X00644380Y00762443D01*
X00645959Y00759490D01*
X00648083Y00756902D01*
X00650672Y00754777D01*
X00652465Y00753819D01*
X00652146Y00752549D01*
X00328178D01*
X00327859Y00753819D01*
X00329652Y00754777D01*
X00332241Y00756902D01*
X00334365Y00759490D01*
X00335944Y00762443D01*
X00336916Y00765648D01*
X00337244Y00768980D01*
X00336916Y00772313D01*
X00335944Y00775518D01*
X00334365Y00778471D01*
X00332241Y00781059D01*
X00329652Y00783184D01*
X00326699Y00784762D01*
X00323495Y00785734D01*
X00320162Y00786063D01*
X00316829Y00785734D01*
X00313625Y00784762D01*
X00310672Y00783184D01*
X00308083Y00781059D01*
X00305959Y00778471D01*
X00304380Y00775518D01*
X00303819Y00773668D01*
X00302549Y00773856D01*
Y01204591D01*
X00303819Y01204779D01*
X00304218Y01203463D01*
X00305797Y01200510D01*
X00307921Y01197921D01*
X00310510Y01195797D01*
X00313463Y01194218D01*
X00316667Y01193246D01*
X00320000Y01192918D01*
X00323333Y01193246D01*
X00326537Y01194218D01*
X00329490Y01195797D01*
X00332079Y01197921D01*
X00334203Y01200510D01*
X00335782Y01203463D01*
X00336754Y01206667D01*
X00337082Y01210000D01*
X00336754Y01213333D01*
X00335782Y01216537D01*
X00334203Y01219490D01*
X00332079Y01222079D01*
X00329490Y01224203D01*
X00326537Y01225782D01*
X00325221Y01226181D01*
X00325409Y01227451D01*
X00677451D01*
Y01214924D01*
D02*
G37*
%LPC*%
G36*
X00574600Y01184582D02*
X00572120Y01184256D01*
X00569809Y01183298D01*
X00567825Y01181776D01*
X00566302Y01179791D01*
X00565345Y01177480D01*
X00565206Y01176429D01*
X00563290D01*
X00562014Y01176176D01*
X00560933Y01175453D01*
X00559919Y01174439D01*
X00559142Y01174822D01*
X00558770Y01175087D01*
X00558455Y01177480D01*
X00557498Y01179791D01*
X00555975Y01181776D01*
X00553991Y01183298D01*
X00551680Y01184256D01*
X00549200Y01184582D01*
X00546720Y01184256D01*
X00544409Y01183298D01*
X00542425Y01181776D01*
X00540902Y01179791D01*
X00540298Y01178334D01*
X00529545D01*
Y01184470D01*
X00505545D01*
Y01161994D01*
X00442566D01*
X00439375Y01165185D01*
Y01184470D01*
X00415375D01*
Y01160470D01*
X00434660D01*
X00438827Y01156302D01*
X00439909Y01155580D01*
X00441185Y01155326D01*
X00548855D01*
X00550131Y01155580D01*
X00551212Y01156302D01*
X00564671Y01169761D01*
X00566646D01*
X00567825Y01168225D01*
X00569809Y01166702D01*
X00572120Y01165745D01*
X00574600Y01165418D01*
X00577080Y01165745D01*
X00579391Y01166702D01*
X00581375Y01168225D01*
X00582898Y01170209D01*
X00583855Y01172520D01*
X00584182Y01175000D01*
X00583855Y01177480D01*
X00582898Y01179791D01*
X00581375Y01181776D01*
X00579391Y01183298D01*
X00577080Y01184256D01*
X00574600Y01184582D01*
D02*
G37*
G36*
X00355000Y01184982D02*
X00352520Y01184656D01*
X00350209Y01183698D01*
X00348225Y01182176D01*
X00346702Y01180191D01*
X00345745Y01177880D01*
X00345418Y01175400D01*
X00345745Y01172920D01*
X00346702Y01170609D01*
X00348225Y01168625D01*
X00350209Y01167102D01*
X00352520Y01166145D01*
X00355000Y01165818D01*
X00357480Y01166145D01*
X00359791Y01167102D01*
X00361776Y01168625D01*
X00363298Y01170609D01*
X00363819Y01171866D01*
X00382000D01*
Y01169500D01*
X00398000D01*
Y01180500D01*
X00382000D01*
Y01178534D01*
X00363984D01*
X00363298Y01180191D01*
X00361776Y01182176D01*
X00359791Y01183698D01*
X00357480Y01184656D01*
X00355000Y01184982D01*
D02*
G37*
G36*
X00634900Y01184500D02*
X00615900D01*
Y01165500D01*
X00634900D01*
Y01184500D01*
D02*
G37*
G36*
X00600000Y01184582D02*
X00597520Y01184256D01*
X00595209Y01183298D01*
X00593224Y01181776D01*
X00591702Y01179791D01*
X00590745Y01177480D01*
X00590418Y01175000D01*
X00590745Y01172520D01*
X00591702Y01170209D01*
X00593224Y01168225D01*
X00595209Y01166702D01*
X00597520Y01165745D01*
X00600000Y01165418D01*
X00602480Y01165745D01*
X00604791Y01166702D01*
X00606775Y01168225D01*
X00608298Y01170209D01*
X00609255Y01172520D01*
X00609582Y01175000D01*
X00609255Y01177480D01*
X00608298Y01179791D01*
X00606775Y01181776D01*
X00604791Y01183298D01*
X00602480Y01184256D01*
X00600000Y01184582D01*
D02*
G37*
G36*
X00624000Y01158569D02*
X00619270D01*
Y01145270D01*
X00627569D01*
Y01155000D01*
X00627297Y01156366D01*
X00626523Y01157523D01*
X00625366Y01158297D01*
X00624000Y01158569D01*
D02*
G37*
G36*
X00616730D02*
X00612000D01*
X00610634Y01158297D01*
X00609477Y01157523D01*
X00608703Y01156366D01*
X00608431Y01155000D01*
Y01145270D01*
X00616730D01*
Y01158569D01*
D02*
G37*
G36*
X00412250Y01146172D02*
X00410070Y01145885D01*
X00408039Y01145044D01*
X00406295Y01143705D01*
X00404956Y01141961D01*
X00404697Y01141334D01*
X00398000D01*
Y01143500D01*
X00382000D01*
Y01132500D01*
X00398000D01*
Y01134666D01*
X00404490D01*
X00404956Y01133539D01*
X00406295Y01131795D01*
X00408039Y01130456D01*
X00410070Y01129615D01*
X00412250Y01129328D01*
X00414430Y01129615D01*
X00416461Y01130456D01*
X00418205Y01131795D01*
X00419544Y01133539D01*
X00420385Y01135570D01*
X00420672Y01137750D01*
X00420385Y01139930D01*
X00419544Y01141961D01*
X00418205Y01143705D01*
X00416461Y01145044D01*
X00414430Y01145885D01*
X00412250Y01146172D01*
D02*
G37*
G36*
X00355000Y01159582D02*
X00352520Y01159256D01*
X00350209Y01158298D01*
X00348225Y01156776D01*
X00346702Y01154791D01*
X00345745Y01152480D01*
X00345418Y01150000D01*
X00345745Y01147520D01*
X00346702Y01145209D01*
X00348225Y01143225D01*
X00350209Y01141702D01*
X00352520Y01140745D01*
X00355000Y01140418D01*
X00357480Y01140745D01*
X00359791Y01141702D01*
X00361776Y01143225D01*
X00363298Y01145209D01*
X00364255Y01147520D01*
X00364582Y01150000D01*
X00364255Y01152480D01*
X00363298Y01154791D01*
X00361776Y01156776D01*
X00359791Y01158298D01*
X00357480Y01159256D01*
X00355000Y01159582D01*
D02*
G37*
G36*
X00627569Y01142730D02*
X00619270D01*
Y01129431D01*
X00624000D01*
X00625366Y01129703D01*
X00626523Y01130477D01*
X00627297Y01131634D01*
X00627569Y01133000D01*
Y01142730D01*
D02*
G37*
G36*
X00616730D02*
X00608431D01*
Y01133000D01*
X00608703Y01131634D01*
X00609477Y01130477D01*
X00610634Y01129703D01*
X00612000Y01129431D01*
X00616730D01*
Y01142730D01*
D02*
G37*
G36*
X00356270Y01134015D02*
Y01125870D01*
X00364415D01*
X00364255Y01127080D01*
X00363298Y01129391D01*
X00361776Y01131376D01*
X00359791Y01132898D01*
X00357480Y01133856D01*
X00356270Y01134015D01*
D02*
G37*
G36*
X00353730Y01134015D02*
X00352520Y01133856D01*
X00350209Y01132898D01*
X00348225Y01131376D01*
X00346702Y01129391D01*
X00345745Y01127080D01*
X00345585Y01125870D01*
X00353730D01*
Y01134015D01*
D02*
G37*
G36*
X00364415Y01123330D02*
X00356270D01*
Y01115185D01*
X00357480Y01115345D01*
X00359791Y01116302D01*
X00361776Y01117825D01*
X00363298Y01119809D01*
X00364255Y01122120D01*
X00364415Y01123330D01*
D02*
G37*
G36*
X00353730D02*
X00345585D01*
X00345745Y01122120D01*
X00346702Y01119809D01*
X00348225Y01117825D01*
X00350209Y01116302D01*
X00352520Y01115345D01*
X00353730Y01115185D01*
Y01123330D01*
D02*
G37*
G36*
X00355000Y01108782D02*
X00352520Y01108456D01*
X00350209Y01107498D01*
X00348225Y01105975D01*
X00346702Y01103991D01*
X00345745Y01101680D01*
X00345418Y01099200D01*
X00345745Y01096720D01*
X00346702Y01094409D01*
X00348225Y01092425D01*
X00350209Y01090902D01*
X00352520Y01089945D01*
X00355000Y01089618D01*
X00357480Y01089945D01*
X00359791Y01090902D01*
X00361776Y01092425D01*
X00363298Y01094409D01*
X00364255Y01096720D01*
X00364582Y01099200D01*
X00364255Y01101680D01*
X00363298Y01103991D01*
X00361776Y01105975D01*
X00359791Y01107498D01*
X00357480Y01108456D01*
X00355000Y01108782D01*
D02*
G37*
G36*
X00364500Y01054900D02*
X00356270D01*
Y01046670D01*
X00364500D01*
Y01054900D01*
D02*
G37*
G36*
Y01044130D02*
X00356270D01*
Y01035900D01*
X00364500D01*
Y01044130D01*
D02*
G37*
G36*
X00624000Y01030069D02*
X00619270D01*
Y01019270D01*
X00627569D01*
Y01026500D01*
X00627297Y01027866D01*
X00626523Y01029023D01*
X00625366Y01029797D01*
X00624000Y01030069D01*
D02*
G37*
G36*
X00616730D02*
X00612000D01*
X00610634Y01029797D01*
X00609477Y01029023D01*
X00608703Y01027866D01*
X00608431Y01026500D01*
Y01019270D01*
X00616730D01*
Y01030069D01*
D02*
G37*
G36*
X00627569Y01016730D02*
X00619270D01*
Y01005931D01*
X00624000D01*
X00625366Y01006203D01*
X00626523Y01006977D01*
X00627297Y01008134D01*
X00627569Y01009500D01*
Y01016730D01*
D02*
G37*
G36*
X00616730D02*
X00608431D01*
Y01009500D01*
X00608703Y01008134D01*
X00609477Y01006977D01*
X00610634Y01006203D01*
X00612000Y01005931D01*
X00616730D01*
Y01016730D01*
D02*
G37*
G36*
X00578000Y01158569D02*
X00566000D01*
X00564634Y01158297D01*
X00563477Y01157523D01*
X00562703Y01156366D01*
X00562431Y01155000D01*
Y01134146D01*
X00517643Y01089358D01*
X00516920Y01088276D01*
X00516666Y01087000D01*
Y01020000D01*
Y01006670D01*
X00505545D01*
Y00982670D01*
X00529545D01*
Y01006670D01*
X00523334D01*
Y01016666D01*
X00562431D01*
Y01009500D01*
X00562703Y01008134D01*
X00563477Y01006977D01*
X00564634Y01006203D01*
X00566000Y01005931D01*
X00576516D01*
X00577042Y01004661D01*
X00518673Y00946292D01*
X00517500Y00946778D01*
Y00955000D01*
X00509215D01*
X00441857Y01022357D01*
X00440776Y01023080D01*
X00439500Y01023334D01*
X00380400D01*
X00379124Y01023080D01*
X00378042Y01022357D01*
X00358937Y01003252D01*
X00357480Y01003855D01*
X00355000Y01004182D01*
X00352520Y01003855D01*
X00350209Y01002898D01*
X00349453Y01002318D01*
X00348314Y01002880D01*
Y01011720D01*
X00349453Y01012282D01*
X00350209Y01011702D01*
X00352520Y01010744D01*
X00355000Y01010418D01*
X00357480Y01010744D01*
X00359791Y01011702D01*
X00361776Y01013224D01*
X00363298Y01015209D01*
X00364255Y01017520D01*
X00364582Y01020000D01*
X00364255Y01022480D01*
X00363298Y01024791D01*
X00361776Y01026775D01*
X00359791Y01028298D01*
X00357480Y01029255D01*
X00355000Y01029582D01*
X00352520Y01029255D01*
X00350209Y01028298D01*
X00349453Y01027718D01*
X00348314Y01028280D01*
Y01035900D01*
X00353730D01*
Y01045400D01*
Y01054900D01*
X00348314D01*
Y01062399D01*
X00350215Y01064300D01*
X00364500D01*
Y01083300D01*
X00345500D01*
Y01069015D01*
X00342622Y01066137D01*
X00341900Y01065056D01*
X00341646Y01063780D01*
Y00835020D01*
X00341900Y00833744D01*
X00342622Y00832663D01*
X00387643Y00787643D01*
X00388724Y00786920D01*
X00390000Y00786666D01*
X00605000D01*
X00606276Y00786920D01*
X00607357Y00787643D01*
X00616943Y00797228D01*
X00617820Y00796865D01*
X00620000Y00796578D01*
X00622180Y00796865D01*
X00624211Y00797706D01*
X00625955Y00799045D01*
X00627294Y00800789D01*
X00628135Y00802820D01*
X00628422Y00805000D01*
X00628135Y00807180D01*
X00627294Y00809211D01*
X00625955Y00810955D01*
X00624211Y00812294D01*
X00623334Y00812657D01*
Y00818930D01*
X00626400D01*
X00627805Y00819209D01*
X00628995Y00820005D01*
X00629791Y00821195D01*
X00630070Y00822600D01*
Y00837400D01*
X00629791Y00838805D01*
X00628995Y00839995D01*
X00627805Y00840791D01*
X00626400Y00841070D01*
X00613600D01*
X00612195Y00840791D01*
X00611005Y00839995D01*
X00610209Y00838805D01*
X00609930Y00837400D01*
Y00824644D01*
X00602037Y00816752D01*
X00600053D01*
X00599622Y00818022D01*
X00600955Y00819045D01*
X00602294Y00820789D01*
X00603135Y00822820D01*
X00603422Y00825000D01*
X00603135Y00827180D01*
X00602313Y00829165D01*
X00606753Y00833605D01*
X00607475Y00834687D01*
X00607729Y00835963D01*
Y00942922D01*
X00612000D01*
X00613561Y00943232D01*
X00614884Y00944116D01*
X00615768Y00945439D01*
X00616078Y00947000D01*
Y00963000D01*
X00615768Y00964561D01*
X00614884Y00965884D01*
X00613561Y00966768D01*
X00612000Y00967078D01*
X00598334D01*
Y00979843D01*
X00599211Y00980206D01*
X00600955Y00981545D01*
X00602294Y00983289D01*
X00603135Y00985320D01*
X00603422Y00987500D01*
X00603135Y00989680D01*
X00602294Y00991711D01*
X00600955Y00993455D01*
X00599211Y00994794D01*
X00598334Y00995157D01*
Y01005931D01*
X00601000D01*
X00602366Y01006203D01*
X00603523Y01006977D01*
X00604297Y01008134D01*
X00604569Y01009500D01*
Y01026500D01*
X00604297Y01027866D01*
X00603523Y01029023D01*
X00602366Y01029797D01*
X00601000Y01030069D01*
X00589000D01*
X00588334Y01030615D01*
Y01037892D01*
X00626500D01*
X00628646Y01038319D01*
X00630465Y01039535D01*
X00631681Y01041354D01*
X00632108Y01043500D01*
Y01106500D01*
X00631681Y01108646D01*
X00630465Y01110465D01*
X00628646Y01111681D01*
X00626500Y01112108D01*
X00563500D01*
X00561354Y01111681D01*
X00559535Y01110465D01*
X00558319Y01108646D01*
X00557892Y01106500D01*
Y01043500D01*
X00558319Y01041354D01*
X00559535Y01039535D01*
X00561354Y01038319D01*
X00563500Y01037892D01*
X00581666D01*
Y01029599D01*
X00580983Y01029255D01*
X00580396Y01029109D01*
X00579366Y01029797D01*
X00578000Y01030069D01*
X00566000D01*
X00564634Y01029797D01*
X00563477Y01029023D01*
X00562703Y01027866D01*
X00562431Y01026500D01*
Y01023334D01*
X00523334D01*
Y01085619D01*
X00567146Y01129431D01*
X00578000D01*
X00579366Y01129703D01*
X00580523Y01130477D01*
X00581297Y01131634D01*
X00581569Y01133000D01*
Y01155000D01*
X00581297Y01156366D01*
X00580523Y01157523D01*
X00579366Y01158297D01*
X00578000Y01158569D01*
D02*
G37*
G36*
X00626400Y00912320D02*
X00621270D01*
Y00902520D01*
X00630070D01*
Y00908650D01*
X00629791Y00910055D01*
X00628995Y00911245D01*
X00627805Y00912041D01*
X00626400Y00912320D01*
D02*
G37*
G36*
X00618730D02*
X00613600D01*
X00612195Y00912041D01*
X00611005Y00911245D01*
X00610209Y00910055D01*
X00609930Y00908650D01*
Y00902520D01*
X00618730D01*
Y00912320D01*
D02*
G37*
G36*
X00630070Y00899980D02*
X00621270D01*
Y00890180D01*
X00626400D01*
X00627805Y00890459D01*
X00628995Y00891255D01*
X00629791Y00892445D01*
X00630070Y00893850D01*
Y00899980D01*
D02*
G37*
G36*
X00618730D02*
X00609930D01*
Y00893850D01*
X00610209Y00892445D01*
X00611005Y00891255D01*
X00612195Y00890459D01*
X00613600Y00890180D01*
X00618730D01*
Y00899980D01*
D02*
G37*
%LPD*%
G36*
X00504500Y00950285D02*
Y00944000D01*
X00503506Y00943334D01*
X00496500D01*
Y00945500D01*
X00488215D01*
X00483165Y00950550D01*
X00483422Y00952500D01*
X00483135Y00954680D01*
X00482294Y00956711D01*
X00480955Y00958455D01*
X00479211Y00959794D01*
X00477180Y00960635D01*
X00475000Y00960922D01*
X00472820Y00960635D01*
X00470789Y00959794D01*
X00469045Y00958455D01*
X00467706Y00956711D01*
X00466865Y00954680D01*
X00466578Y00952500D01*
X00466865Y00950320D01*
X00467706Y00948289D01*
X00469045Y00946545D01*
X00470789Y00945206D01*
X00472820Y00944365D01*
X00475000Y00944078D01*
X00477180Y00944365D01*
X00479117Y00945167D01*
X00483500Y00940785D01*
Y00934500D01*
X00496500D01*
Y00936666D01*
X00503506D01*
X00504500Y00936000D01*
Y00925000D01*
X00517500D01*
Y00926916D01*
X00522999D01*
X00523076Y00926931D01*
X00524216Y00925863D01*
X00524100Y00924978D01*
X00524387Y00922798D01*
X00525228Y00920767D01*
X00526567Y00919023D01*
X00528311Y00917684D01*
X00528465Y00917621D01*
X00528496Y00917366D01*
X00527373Y00916096D01*
X00526450D01*
X00525533Y00915914D01*
X00525000Y00915557D01*
X00524467Y00915914D01*
X00523550Y00916096D01*
X00521450D01*
X00520533Y00915914D01*
X00520000Y00915557D01*
X00519467Y00915914D01*
X00518770Y00916052D01*
Y00906850D01*
Y00897648D01*
X00519467Y00897786D01*
X00520000Y00898143D01*
X00520533Y00897786D01*
X00521450Y00897604D01*
X00523550D01*
X00524467Y00897786D01*
X00525000Y00898142D01*
X00525533Y00897786D01*
X00526450Y00897604D01*
X00528550D01*
X00529467Y00897786D01*
X00530000Y00898142D01*
X00530533Y00897786D01*
X00531450Y00897604D01*
X00533550D01*
X00534467Y00897786D01*
X00535000Y00898143D01*
X00535533Y00897786D01*
X00536450Y00897604D01*
X00538550D01*
X00539467Y00897786D01*
X00540000Y00898142D01*
X00540533Y00897786D01*
X00541450Y00897604D01*
X00543550D01*
X00544467Y00897786D01*
X00545000Y00898143D01*
X00545533Y00897786D01*
X00546450Y00897604D01*
X00548550D01*
X00549467Y00897786D01*
X00550000Y00898142D01*
X00550533Y00897786D01*
X00551450Y00897604D01*
X00553550D01*
X00554467Y00897786D01*
X00555000Y00898142D01*
X00555533Y00897786D01*
X00556450Y00897604D01*
X00558550D01*
X00559467Y00897786D01*
X00560000Y00898143D01*
X00560533Y00897786D01*
X00561450Y00897604D01*
X00563550D01*
X00564467Y00897786D01*
X00565000Y00898142D01*
X00565533Y00897786D01*
X00566450Y00897604D01*
X00568086D01*
Y00885971D01*
X00568340Y00884695D01*
X00569062Y00883614D01*
X00571454Y00881223D01*
X00572535Y00880500D01*
X00572737Y00879218D01*
X00572604Y00878550D01*
Y00876450D01*
X00572786Y00875533D01*
X00573143Y00875000D01*
X00572786Y00874467D01*
X00572604Y00873550D01*
Y00871450D01*
X00572098Y00870834D01*
X00568881D01*
X00567772Y00871943D01*
X00568135Y00872820D01*
X00568422Y00875000D01*
X00568135Y00877180D01*
X00567294Y00879211D01*
X00565955Y00880955D01*
X00564211Y00882294D01*
X00562180Y00883135D01*
X00560000Y00883422D01*
X00557820Y00883135D01*
X00555789Y00882294D01*
X00554045Y00880955D01*
X00552706Y00879211D01*
X00551865Y00877180D01*
X00551578Y00875000D01*
X00551865Y00872820D01*
X00552706Y00870789D01*
X00554045Y00869045D01*
X00555789Y00867706D01*
X00557820Y00866865D01*
X00560000Y00866578D01*
X00562180Y00866865D01*
X00563057Y00867228D01*
X00564411Y00865874D01*
X00564446Y00865825D01*
Y00864175D01*
X00564411Y00864126D01*
X00563057Y00862772D01*
X00562180Y00863135D01*
X00560000Y00863422D01*
X00557820Y00863135D01*
X00555789Y00862294D01*
X00554045Y00860955D01*
X00552706Y00859211D01*
X00551865Y00857180D01*
X00551578Y00855000D01*
X00551865Y00852820D01*
X00552706Y00850789D01*
X00554045Y00849045D01*
X00555789Y00847706D01*
X00557820Y00846865D01*
X00560000Y00846578D01*
X00562180Y00846865D01*
X00564211Y00847706D01*
X00565955Y00849045D01*
X00567294Y00850789D01*
X00568135Y00852820D01*
X00568422Y00855000D01*
X00568135Y00857180D01*
X00567772Y00858057D01*
X00568881Y00859166D01*
X00572098D01*
X00572604Y00858550D01*
Y00856450D01*
X00572786Y00855533D01*
X00573143Y00855000D01*
X00572786Y00854467D01*
X00572604Y00853550D01*
Y00851450D01*
X00572786Y00850533D01*
X00573143Y00850000D01*
X00572786Y00849467D01*
X00572604Y00848550D01*
Y00846450D01*
X00572786Y00845533D01*
X00573143Y00845000D01*
X00572786Y00844467D01*
X00572604Y00843550D01*
Y00841450D01*
X00572786Y00840533D01*
X00573143Y00840000D01*
X00572786Y00839467D01*
X00572604Y00838550D01*
Y00836450D01*
X00572786Y00835533D01*
X00573306Y00834756D01*
X00574083Y00834236D01*
X00575000Y00834054D01*
X00588700D01*
X00589617Y00834236D01*
X00590394Y00834756D01*
X00590914Y00835533D01*
X00591096Y00836450D01*
Y00838550D01*
X00590914Y00839467D01*
X00590558Y00840000D01*
X00590914Y00840533D01*
X00591096Y00841450D01*
Y00843550D01*
X00590914Y00844467D01*
X00590558Y00845000D01*
X00590914Y00845533D01*
X00591096Y00846450D01*
Y00848550D01*
X00590914Y00849467D01*
X00590558Y00850000D01*
X00590914Y00850533D01*
X00591096Y00851450D01*
Y00853550D01*
X00590963Y00854218D01*
X00591165Y00855500D01*
X00592246Y00856223D01*
X00599888Y00863864D01*
X00601061Y00863378D01*
Y00837344D01*
X00596890Y00833173D01*
X00595000Y00833422D01*
X00592820Y00833135D01*
X00590789Y00832294D01*
X00589045Y00830955D01*
X00587706Y00829211D01*
X00586865Y00827180D01*
X00586773Y00826484D01*
X00570946D01*
Y00830000D01*
X00570764Y00830917D01*
X00570244Y00831694D01*
X00569467Y00832214D01*
X00568550Y00832396D01*
X00566450D01*
X00565533Y00832214D01*
X00565000Y00831858D01*
X00564467Y00832214D01*
X00563770Y00832352D01*
Y00823150D01*
X00561230D01*
Y00832352D01*
X00560533Y00832214D01*
X00560000Y00831857D01*
X00559467Y00832214D01*
X00558550Y00832396D01*
X00556450D01*
X00555533Y00832214D01*
X00555000Y00831858D01*
X00554467Y00832214D01*
X00553550Y00832396D01*
X00551450D01*
X00550533Y00832214D01*
X00550000Y00831858D01*
X00549467Y00832214D01*
X00548550Y00832396D01*
X00546450D01*
X00545533Y00832214D01*
X00545000Y00831857D01*
X00544467Y00832214D01*
X00543550Y00832396D01*
X00541450D01*
X00540533Y00832214D01*
X00540000Y00831858D01*
X00539467Y00832214D01*
X00538550Y00832396D01*
X00536450D01*
X00535533Y00832214D01*
X00535000Y00831857D01*
X00534467Y00832214D01*
X00533550Y00832396D01*
X00531450D01*
X00530834Y00832902D01*
Y00875109D01*
X00530580Y00876385D01*
X00529857Y00877466D01*
X00510907Y00896417D01*
X00511382Y00897455D01*
X00511516Y00897604D01*
X00513550D01*
X00514467Y00897786D01*
X00515000Y00898142D01*
X00515533Y00897786D01*
X00516230Y00897648D01*
Y00906850D01*
Y00916052D01*
X00515533Y00915914D01*
X00515000Y00915557D01*
X00514467Y00915914D01*
X00513550Y00916096D01*
X00511450D01*
X00510533Y00915914D01*
X00509756Y00915394D01*
X00509236Y00914617D01*
X00509054Y00913700D01*
Y00900066D01*
X00508905Y00899932D01*
X00507867Y00899457D01*
X00473836Y00933487D01*
X00472755Y00934210D01*
X00471479Y00934464D01*
X00466618D01*
X00438725Y00962357D01*
X00437643Y00963080D01*
X00436367Y00963334D01*
X00431381D01*
X00407772Y00986943D01*
X00408135Y00987820D01*
X00408422Y00990000D01*
X00408135Y00992180D01*
X00407294Y00994211D01*
X00405955Y00995955D01*
X00404211Y00997294D01*
X00402180Y00998135D01*
X00400000Y00998422D01*
X00397820Y00998135D01*
X00395789Y00997294D01*
X00394045Y00995955D01*
X00392706Y00994211D01*
X00391865Y00992180D01*
X00391578Y00990000D01*
X00391865Y00987820D01*
X00392706Y00985789D01*
X00394045Y00984045D01*
X00395789Y00982706D01*
X00397820Y00981865D01*
X00400000Y00981578D01*
X00402180Y00981865D01*
X00403057Y00982228D01*
X00427642Y00957643D01*
X00428724Y00956920D01*
X00430000Y00956666D01*
X00434986D01*
X00462880Y00928773D01*
X00463961Y00928050D01*
X00465237Y00927796D01*
X00470098D01*
X00500774Y00897119D01*
X00500288Y00895946D01*
X00491300D01*
X00490383Y00895764D01*
X00489606Y00895244D01*
X00489086Y00894467D01*
X00488904Y00893550D01*
Y00891450D01*
X00489086Y00890533D01*
X00489442Y00890000D01*
X00489086Y00889467D01*
X00488904Y00888550D01*
Y00886450D01*
X00489086Y00885533D01*
X00489443Y00885000D01*
X00489086Y00884467D01*
X00488904Y00883550D01*
Y00881450D01*
X00489086Y00880533D01*
X00489442Y00880000D01*
X00489086Y00879467D01*
X00488904Y00878550D01*
Y00877607D01*
X00487634Y00877081D01*
X00447357Y00917357D01*
X00446276Y00918080D01*
X00445000Y00918334D01*
X00444613D01*
Y00933750D01*
X00444166Y00935993D01*
X00442896Y00937896D01*
X00440993Y00939166D01*
X00438750Y00939613D01*
X00431250D01*
X00429007Y00939166D01*
X00427104Y00937896D01*
X00425834Y00935993D01*
X00425387Y00933750D01*
Y00918334D01*
X00403500D01*
Y00922500D01*
X00386500D01*
Y00909500D01*
X00403500D01*
Y00911666D01*
X00425387D01*
Y00896250D01*
X00425834Y00894007D01*
X00427104Y00892104D01*
X00429007Y00890834D01*
X00431250Y00890387D01*
X00438750D01*
X00440993Y00890834D01*
X00442896Y00892104D01*
X00444166Y00894007D01*
X00444613Y00896250D01*
Y00909013D01*
X00445786Y00909499D01*
X00484411Y00870874D01*
X00484942Y00870136D01*
X00484423Y00869139D01*
X00445786Y00830501D01*
X00444613Y00830987D01*
Y00838750D01*
X00444166Y00840993D01*
X00442896Y00842896D01*
X00440993Y00844166D01*
X00438750Y00844613D01*
X00431250D01*
X00429007Y00844166D01*
X00427104Y00842896D01*
X00425834Y00840993D01*
X00425387Y00838750D01*
Y00823334D01*
X00403500D01*
Y00825500D01*
X00386500D01*
Y00812500D01*
X00403500D01*
Y00816666D01*
X00425387D01*
Y00801250D01*
X00425834Y00799007D01*
X00427104Y00797104D01*
X00429007Y00795834D01*
X00431250Y00795387D01*
X00438750D01*
X00440993Y00795834D01*
X00442896Y00797104D01*
X00444166Y00799007D01*
X00444613Y00801250D01*
Y00821488D01*
X00444822D01*
X00446098Y00821742D01*
X00447180Y00822465D01*
X00480493Y00855778D01*
X00481666Y00855292D01*
Y00814905D01*
X00481920Y00813630D01*
X00482643Y00812548D01*
X00484130Y00811060D01*
X00485212Y00810337D01*
X00486488Y00810083D01*
X00603418D01*
X00604693Y00810337D01*
X00605775Y00811060D01*
X00613644Y00818930D01*
X00616666D01*
Y00812657D01*
X00615789Y00812294D01*
X00614045Y00810955D01*
X00612706Y00809211D01*
X00611865Y00807180D01*
X00611578Y00805000D01*
X00611865Y00802820D01*
X00612228Y00801943D01*
X00603619Y00793334D01*
X00391381D01*
X00348314Y00836401D01*
Y00856320D01*
X00349453Y00856882D01*
X00350209Y00856302D01*
X00352520Y00855344D01*
X00355000Y00855018D01*
X00357480Y00855344D01*
X00359791Y00856302D01*
X00361776Y00857824D01*
X00363298Y00859809D01*
X00364255Y00862120D01*
X00364582Y00864600D01*
X00364255Y00867080D01*
X00363298Y00869391D01*
X00361776Y00871375D01*
X00359791Y00872898D01*
X00357480Y00873856D01*
X00355000Y00874182D01*
X00352520Y00873856D01*
X00350209Y00872898D01*
X00349453Y00872318D01*
X00348314Y00872880D01*
Y00881720D01*
X00349453Y00882282D01*
X00350209Y00881702D01*
X00352520Y00880744D01*
X00355000Y00880418D01*
X00357480Y00880744D01*
X00359791Y00881702D01*
X00361776Y00883224D01*
X00363298Y00885209D01*
X00364255Y00887520D01*
X00364582Y00890000D01*
X00364255Y00892480D01*
X00363298Y00894791D01*
X00361776Y00896775D01*
X00359791Y00898298D01*
X00357480Y00899256D01*
X00355000Y00899582D01*
X00352520Y00899256D01*
X00350209Y00898298D01*
X00349453Y00897718D01*
X00348314Y00898280D01*
Y00907120D01*
X00349453Y00907682D01*
X00350209Y00907102D01*
X00352520Y00906144D01*
X00355000Y00905818D01*
X00357480Y00906144D01*
X00359791Y00907102D01*
X00361776Y00908624D01*
X00363298Y00910609D01*
X00364255Y00912920D01*
X00364582Y00915400D01*
X00364255Y00917880D01*
X00363298Y00920191D01*
X00361776Y00922175D01*
X00359791Y00923698D01*
X00357480Y00924656D01*
X00355000Y00924982D01*
X00352520Y00924656D01*
X00350209Y00923698D01*
X00349453Y00923118D01*
X00348314Y00923680D01*
Y00931300D01*
X00353730D01*
Y00940800D01*
Y00950300D01*
X00348314D01*
Y00960920D01*
X00349453Y00961482D01*
X00350209Y00960902D01*
X00352520Y00959945D01*
X00355000Y00959618D01*
X00357480Y00959945D01*
X00359791Y00960902D01*
X00361776Y00962424D01*
X00363298Y00964409D01*
X00364255Y00966720D01*
X00364582Y00969200D01*
X00364255Y00971680D01*
X00363298Y00973991D01*
X00361776Y00975975D01*
X00359791Y00977498D01*
X00357480Y00978455D01*
X00355000Y00978782D01*
X00352520Y00978455D01*
X00350209Y00977498D01*
X00349453Y00976918D01*
X00348314Y00977480D01*
Y00986320D01*
X00349453Y00986882D01*
X00350209Y00986302D01*
X00352520Y00985344D01*
X00355000Y00985018D01*
X00357480Y00985344D01*
X00359791Y00986302D01*
X00361776Y00987824D01*
X00363298Y00989809D01*
X00364255Y00992120D01*
X00364582Y00994600D01*
X00364255Y00997080D01*
X00363652Y00998537D01*
X00381781Y01016666D01*
X00438119D01*
X00504500Y00950285D01*
D02*
G37*
G36*
X00589000Y01005931D02*
X00591666D01*
Y00995157D01*
X00590789Y00994794D01*
X00589045Y00993455D01*
X00587706Y00991711D01*
X00586865Y00989680D01*
X00586578Y00987500D01*
X00586865Y00985320D01*
X00587706Y00983289D01*
X00589045Y00981545D01*
X00590789Y00980206D01*
X00591666Y00979843D01*
Y00967078D01*
X00578000D01*
X00576439Y00966768D01*
X00575116Y00965884D01*
X00574232Y00964561D01*
X00573922Y00963000D01*
Y00947000D01*
X00574232Y00945439D01*
X00575116Y00944116D01*
X00576439Y00943232D01*
X00578000Y00942922D01*
X00601061D01*
Y00937475D01*
X00599791Y00936849D01*
X00599211Y00937294D01*
X00597180Y00938135D01*
X00595000Y00938422D01*
X00592820Y00938135D01*
X00590789Y00937294D01*
X00589045Y00935955D01*
X00587706Y00934211D01*
X00586865Y00932180D01*
X00586578Y00930000D01*
X00586865Y00927820D01*
X00587706Y00925789D01*
X00589045Y00924045D01*
X00590789Y00922706D01*
X00592820Y00921865D01*
X00595000Y00921578D01*
X00595711Y00921672D01*
X00596666Y00920834D01*
Y00870072D01*
X00592229Y00865635D01*
X00591058Y00866261D01*
X00591096Y00866450D01*
Y00868550D01*
X00590914Y00869467D01*
X00590558Y00870000D01*
X00590914Y00870533D01*
X00591096Y00871450D01*
Y00873550D01*
X00590914Y00874467D01*
X00590558Y00875000D01*
X00590914Y00875533D01*
X00591096Y00876450D01*
Y00878550D01*
X00590914Y00879467D01*
X00590558Y00880000D01*
X00590914Y00880533D01*
X00591096Y00881450D01*
Y00883550D01*
X00590914Y00884467D01*
X00590558Y00885000D01*
X00590914Y00885533D01*
X00591052Y00886230D01*
X00581850D01*
Y00888770D01*
X00591052D01*
X00590914Y00889467D01*
X00590558Y00890000D01*
X00590914Y00890533D01*
X00591096Y00891450D01*
Y00893550D01*
X00590914Y00894467D01*
X00590394Y00895244D01*
X00589617Y00895764D01*
X00588700Y00895946D01*
X00575000D01*
X00574754Y00896148D01*
Y00900039D01*
X00576943Y00902228D01*
X00577820Y00901865D01*
X00580000Y00901578D01*
X00582180Y00901865D01*
X00584211Y00902706D01*
X00585955Y00904045D01*
X00587294Y00905789D01*
X00588135Y00907820D01*
X00588422Y00910000D01*
X00588135Y00912180D01*
X00587294Y00914211D01*
X00585955Y00915955D01*
X00584211Y00917294D01*
X00582180Y00918135D01*
X00580000Y00918422D01*
X00577820Y00918135D01*
X00575789Y00917294D01*
X00574045Y00915955D01*
X00572706Y00914211D01*
X00572216Y00913027D01*
X00570946Y00913280D01*
Y00913700D01*
X00570834Y00914263D01*
Y00950000D01*
X00570580Y00951276D01*
X00569857Y00952357D01*
X00567772Y00954443D01*
X00568135Y00955320D01*
X00568422Y00957500D01*
X00568135Y00959680D01*
X00567294Y00961711D01*
X00565955Y00963455D01*
X00564211Y00964794D01*
X00562180Y00965635D01*
X00560000Y00965922D01*
X00557820Y00965635D01*
X00555789Y00964794D01*
X00554045Y00963455D01*
X00552706Y00961711D01*
X00551865Y00959680D01*
X00551578Y00957500D01*
X00551865Y00955320D01*
X00552706Y00953289D01*
X00554045Y00951545D01*
X00555789Y00950206D01*
X00557820Y00949365D01*
X00560000Y00949078D01*
X00562180Y00949365D01*
X00563057Y00949728D01*
X00564166Y00948619D01*
Y00916601D01*
X00563550Y00916096D01*
X00561450D01*
X00560533Y00915914D01*
X00560000Y00915557D01*
X00559467Y00915914D01*
X00558550Y00916096D01*
X00556450D01*
X00555533Y00915914D01*
X00555000Y00915557D01*
X00554467Y00915914D01*
X00553550Y00916096D01*
X00551450D01*
X00550533Y00915914D01*
X00550000Y00915557D01*
X00549467Y00915914D01*
X00548550Y00916096D01*
X00546450D01*
X00545533Y00915914D01*
X00545000Y00915557D01*
X00544467Y00915914D01*
X00543550Y00916096D01*
X00541450D01*
X00540533Y00915914D01*
X00540000Y00915557D01*
X00539467Y00915914D01*
X00538550Y00916096D01*
X00537644D01*
X00536516Y00917366D01*
X00536545Y00917606D01*
X00536733Y00917684D01*
X00538477Y00919023D01*
X00539816Y00920767D01*
X00540657Y00922798D01*
X00540944Y00924978D01*
X00540657Y00927158D01*
X00539816Y00929189D01*
X00538477Y00930933D01*
X00536733Y00932272D01*
X00534702Y00933113D01*
X00534680Y00934365D01*
X00536711Y00935206D01*
X00538455Y00936545D01*
X00539794Y00938289D01*
X00540635Y00940320D01*
X00540922Y00942500D01*
X00540635Y00944680D01*
X00539794Y00946711D01*
X00538455Y00948455D01*
X00536711Y00949794D01*
X00534680Y00950635D01*
X00534129Y00950707D01*
X00533721Y00951910D01*
X00587337Y01005526D01*
X00587771Y01006176D01*
X00589000Y01005931D01*
D02*
G37*
G36*
X00524166Y00873728D02*
Y00832902D01*
X00523550Y00832396D01*
X00521450D01*
X00520533Y00832214D01*
X00520000Y00831857D01*
X00519467Y00832214D01*
X00518550Y00832396D01*
X00516450D01*
X00515533Y00832214D01*
X00515000Y00831858D01*
X00514467Y00832214D01*
X00513550Y00832396D01*
X00511450D01*
X00510533Y00832214D01*
X00509756Y00831694D01*
X00509236Y00830917D01*
X00509054Y00830000D01*
Y00816752D01*
X00488334D01*
Y00834373D01*
X00489604Y00834758D01*
X00489606Y00834756D01*
X00490383Y00834236D01*
X00491300Y00834054D01*
X00505000D01*
X00505917Y00834236D01*
X00506694Y00834756D01*
X00507214Y00835533D01*
X00507396Y00836450D01*
Y00838550D01*
X00507214Y00839467D01*
X00506857Y00840000D01*
X00507214Y00840533D01*
X00507396Y00841450D01*
Y00843550D01*
X00507214Y00844467D01*
X00506857Y00845000D01*
X00507214Y00845533D01*
X00507396Y00846450D01*
Y00848550D01*
X00507214Y00849467D01*
X00506857Y00850000D01*
X00507214Y00850533D01*
X00507396Y00851450D01*
Y00853550D01*
X00507214Y00854467D01*
X00506857Y00855000D01*
X00507214Y00855533D01*
X00507352Y00856230D01*
X00498150D01*
Y00858770D01*
X00507352D01*
X00507214Y00859467D01*
X00506857Y00860000D01*
X00507214Y00860533D01*
X00507396Y00861450D01*
Y00863550D01*
X00507214Y00864467D01*
X00506857Y00865000D01*
X00507214Y00865533D01*
X00507396Y00866450D01*
Y00868550D01*
X00507214Y00869467D01*
X00506857Y00870000D01*
X00507214Y00870533D01*
X00507396Y00871450D01*
Y00873550D01*
X00507214Y00874467D01*
X00506857Y00875000D01*
X00507214Y00875533D01*
X00507396Y00876450D01*
Y00878550D01*
X00507214Y00879467D01*
X00506857Y00880000D01*
X00507214Y00880533D01*
X00507396Y00881450D01*
Y00883550D01*
X00507214Y00884467D01*
X00506857Y00885000D01*
X00507214Y00885533D01*
X00507396Y00886450D01*
Y00888550D01*
X00507358Y00888739D01*
X00508529Y00889365D01*
X00524166Y00873728D01*
D02*
G37*
%LPC*%
G36*
X00439375Y01006670D02*
X00428645D01*
Y00995940D01*
X00439375D01*
Y01006670D01*
D02*
G37*
G36*
X00426105D02*
X00415375D01*
Y00995940D01*
X00426105D01*
Y01006670D01*
D02*
G37*
G36*
X00439375Y00993400D02*
X00428645D01*
Y00982670D01*
X00439375D01*
Y00993400D01*
D02*
G37*
G36*
X00426105D02*
X00415375D01*
Y00982670D01*
X00426105D01*
Y00993400D01*
D02*
G37*
G36*
X00364500Y00950300D02*
X00356270D01*
Y00942070D01*
X00364500D01*
Y00950300D01*
D02*
G37*
G36*
Y00939530D02*
X00356270D01*
Y00931300D01*
X00364500D01*
Y00939530D01*
D02*
G37*
G36*
X00403500Y00900500D02*
X00396270D01*
Y00895270D01*
X00403500D01*
Y00900500D01*
D02*
G37*
G36*
X00393730D02*
X00386500D01*
Y00895270D01*
X00393730D01*
Y00900500D01*
D02*
G37*
G36*
X00403500Y00892730D02*
X00396270D01*
Y00887500D01*
X00403500D01*
Y00892730D01*
D02*
G37*
G36*
X00393730D02*
X00386500D01*
Y00887500D01*
X00393730D01*
Y00892730D01*
D02*
G37*
G36*
X00403500Y00847500D02*
X00396270D01*
Y00842270D01*
X00403500D01*
Y00847500D01*
D02*
G37*
G36*
X00393730D02*
X00386500D01*
Y00842270D01*
X00393730D01*
Y00847500D01*
D02*
G37*
G36*
X00403500Y00839730D02*
X00396270D01*
Y00834500D01*
X00403500D01*
Y00839730D01*
D02*
G37*
G36*
X00393730D02*
X00386500D01*
Y00834500D01*
X00393730D01*
Y00839730D01*
D02*
G37*
%LPD*%
D13*
X00475000Y00952500D02*
X00476500D01*
X00489000Y00940000D01*
X00517096D01*
X00522999Y00930250D02*
X00532500Y00939751D01*
X00511250Y00930250D02*
X00522999D01*
X00532500Y00939751D02*
Y00942500D01*
X00532511Y00906861D02*
Y00924967D01*
X00532522Y00924978D01*
X00532500Y00906850D02*
X00532511Y00906861D01*
X00511000Y00930500D02*
X00511250Y00930250D01*
X00567500Y00906850D02*
Y00950000D01*
X00560000Y00957500D02*
X00567500Y00950000D01*
X00595000Y00987500D02*
Y01018000D01*
Y00955721D02*
Y00987500D01*
X00412000Y01138000D02*
X00412500Y01137500D01*
X00390000Y01138000D02*
X00412000D01*
X00595000Y00928432D02*
Y00930000D01*
Y00928432D02*
X00600000Y00923432D01*
Y00868691D02*
Y00923432D01*
X00589889Y00858580D02*
X00600000Y00868691D01*
X00581850Y00857500D02*
X00587650D01*
X00588730Y00858580D01*
X00571420Y00901420D02*
X00580000Y00910000D01*
X00571420Y00885971D02*
Y00901420D01*
X00435000Y00820000D02*
X00439822Y00824822D01*
X00444822D01*
X00487500Y00867500D01*
X00400000Y00915000D02*
X00445000D01*
X00487370Y00872630D01*
X00498020D01*
X00487500Y00867500D02*
X00498150D01*
X00485000Y00814905D02*
Y00859640D01*
X00487730Y00862370D02*
X00498020D01*
X00485000Y00859640D02*
X00487730Y00862370D01*
X00595000Y00826568D02*
X00604395Y00835963D01*
X00595000Y00955721D02*
X00604395Y00946326D01*
Y00835963D02*
Y00946326D01*
X00593150Y00823150D02*
X00595000Y00825000D01*
Y00826568D01*
X00588730Y00858580D02*
X00589889D01*
X00344980Y00835020D02*
X00390000Y00790000D01*
X00605000D01*
X00344980Y00835020D02*
Y01063780D01*
X00605000Y00790000D02*
X00620000Y00805000D01*
X00344980Y01063780D02*
X00355000Y01073800D01*
X00400000Y00990000D02*
X00430000Y00960000D01*
X00380400Y01020000D02*
X00439500D01*
X00510000Y00949500D01*
X00355000Y00994600D02*
X00380400Y01020000D01*
X00430000Y00960000D02*
X00436367D01*
X00465237Y00931130D01*
X00471479D01*
X00527500Y00875109D01*
Y00823150D02*
Y00875109D01*
X00485000Y00814905D02*
X00486488Y00813418D01*
X00603418D01*
X00620000Y00830000D01*
X00571420Y00885971D02*
X00573811Y00883580D01*
X00576050Y00882500D02*
X00581850D01*
X00574970Y00883580D02*
X00576050Y00882500D01*
X00573811Y00883580D02*
X00574970D01*
X00517096Y00940000D02*
X00584980Y01007884D01*
Y01028165D01*
X00585000Y01028185D01*
Y01065000D02*
X00595000Y01075000D01*
X00585000Y01028185D02*
Y01065000D01*
X00510000Y00949500D02*
X00511000D01*
X00355000Y00969200D02*
X00356017Y00968183D01*
X00567500Y00862500D02*
X00581850D01*
X00560000Y00855000D02*
X00567500Y00862500D01*
X00560000Y00875000D02*
X00567500Y00867500D01*
X00581850D01*
X00567500Y00823150D02*
X00593150D01*
X00498020Y00862370D02*
X00498150Y00862500D01*
X00620000Y00805000D02*
Y00830000D01*
X00400000Y00820000D02*
X00435000D01*
X00498020Y00872630D02*
X00498150Y00872500D01*
X00517545Y00994670D02*
X00520000Y00997125D01*
Y01020000D01*
Y01087000D01*
X00572000Y01139000D01*
X00520000Y01020000D02*
X00570000D01*
X00572000Y01018000D01*
Y01139000D02*
Y01144000D01*
X00427375Y01172470D02*
X00441185Y01158660D01*
X00548855D01*
X00563290Y01173095D01*
X00572695D01*
X00574600Y01175000D01*
X00520075D02*
X00549200D01*
X00517545Y01172470D02*
X00520075Y01175000D01*
X00355200Y01175200D02*
X00389800D01*
X00390000Y01175000D01*
X00355000Y01175400D02*
X00355200Y01175200D01*
D32*
X00511000Y00930500D02*
D03*
Y00949500D02*
D03*
X00490000Y00940000D02*
D03*
D33*
X00395000Y00819000D02*
D03*
Y00841000D02*
D03*
Y00916000D02*
D03*
Y00894000D02*
D03*
D34*
X00581850Y00892500D02*
D03*
Y00887500D02*
D03*
Y00882500D02*
D03*
Y00877500D02*
D03*
Y00872500D02*
D03*
Y00867500D02*
D03*
Y00862500D02*
D03*
Y00857500D02*
D03*
Y00852500D02*
D03*
Y00847500D02*
D03*
Y00842500D02*
D03*
Y00837500D02*
D03*
X00498150D02*
D03*
Y00842500D02*
D03*
Y00847500D02*
D03*
Y00852500D02*
D03*
Y00857500D02*
D03*
Y00862500D02*
D03*
Y00867500D02*
D03*
Y00872500D02*
D03*
Y00877500D02*
D03*
Y00882500D02*
D03*
Y00887500D02*
D03*
Y00892500D02*
D03*
D35*
X00512500Y00906850D02*
D03*
X00517500D02*
D03*
X00522500D02*
D03*
X00527500D02*
D03*
X00532500D02*
D03*
X00537500D02*
D03*
X00542500D02*
D03*
X00547500D02*
D03*
X00552500D02*
D03*
X00557500D02*
D03*
X00562500D02*
D03*
X00567500D02*
D03*
Y00823150D02*
D03*
X00562500D02*
D03*
X00557500D02*
D03*
X00552500D02*
D03*
X00547500D02*
D03*
X00542500D02*
D03*
X00537500D02*
D03*
X00532500D02*
D03*
X00527500D02*
D03*
X00522500D02*
D03*
X00517500D02*
D03*
X00512500D02*
D03*
D36*
X00620000Y00830000D02*
D03*
Y00901250D02*
D03*
D37*
X00595000Y00955000D02*
D03*
D38*
X00572000Y01018000D02*
D03*
X00595000D02*
D03*
X00618000D02*
D03*
D39*
Y01144000D02*
D03*
X00572000D02*
D03*
D40*
X00595000Y01075000D02*
D03*
D41*
X00517545Y01172470D02*
D03*
Y00994670D02*
D03*
X00427375Y01172470D02*
D03*
Y00994670D02*
D03*
D42*
X00390000Y01175000D02*
D03*
Y01138000D02*
D03*
D43*
X00435000Y00915000D02*
D03*
Y00820000D02*
D03*
D44*
X00355000Y01045400D02*
D03*
Y00940800D02*
D03*
Y01073800D02*
D03*
D45*
Y01020000D02*
D03*
Y00994600D02*
D03*
Y00969200D02*
D03*
Y00915400D02*
D03*
Y00890000D02*
D03*
Y00864600D02*
D03*
X00600000Y01175000D02*
D03*
X00574600D02*
D03*
X00549200D02*
D03*
X00355000Y01099200D02*
D03*
Y01124600D02*
D03*
Y01150000D02*
D03*
Y01175400D02*
D03*
D46*
X00625400Y01175000D02*
D03*
D47*
X00475000Y00952500D02*
D03*
X00630000Y00940000D02*
D03*
X00532500Y00942500D02*
D03*
X00532522Y00924978D02*
D03*
X00560000Y00957500D02*
D03*
X00517500Y00842500D02*
D03*
X00395000Y01067500D02*
D03*
X00367500Y00830000D02*
D03*
X00575000Y00977500D02*
D03*
X00412250Y01137750D02*
D03*
X00595000Y00930000D02*
D03*
Y00987500D02*
D03*
X00580000Y00910000D02*
D03*
X00400000Y00990000D02*
D03*
X00595000Y00825000D02*
D03*
X00560000Y00855000D02*
D03*
Y00875000D02*
D03*
X00620000Y00805000D02*
D03*
D48*
X00660162Y01208980D02*
D03*
Y00768980D02*
D03*
X00320162D02*
D03*
X00320000Y01210000D02*
D03*
M02*
