M48
;Layer_Color=9474304
;FILE_FORMAT=4:4
METRIC
;TYPE=PLATED
T1F00S00C0.7112
T2F00S00C0.9000
T3F00S00C2.5000
%
T01
X00367500Y00830000
X00395000Y01067500
X00400000Y00990000
X00475000Y00952500
X00532500Y00942500
X00532522Y00924978
X00560000Y00957500
X00575000Y00977500
X00595000Y00987500
Y00930000
X00580000Y00910000
X00560000Y00875000
Y00855000
X00517500Y00842500
X00595000Y00825000
X00620000Y00805000
X00630000Y00940000
X00412250Y01137750
T02
X00355000Y00864600
Y00890000
Y00915400
Y00940800
Y00969200
Y00994600
Y01020000
Y01045400
Y01073800
Y01099200
Y01124600
Y01150000
Y01175400
X00549200Y01175000
X00574600
X00600000
X00625400
T03
X00660162Y00768980
X00320162
X00660162Y01208980
X00320000Y01210000
M30
