G04*
G04 #@! TF.GenerationSoftware,Altium Limited,Altium Designer,22.7.1 (60)*
G04*
G04 Layer_Color=255*
%FSLAX44Y44*%
%MOMM*%
G71*
G04*
G04 #@! TF.SameCoordinates,970EA138-478C-41D8-9FC6-09D8BA0D9F19*
G04*
G04*
G04 #@! TF.FilePolarity,Positive*
G04*
G01*
G75*
%ADD16R,1.3000X0.9000*%
%ADD44R,1.5000X1.5000*%
%ADD45C,1.5000*%
%ADD46R,1.5000X1.5000*%
%ADD49R,0.9000X1.3000*%
D16*
X620000Y829000D02*
D03*
Y851000D02*
D03*
X575000Y826000D02*
D03*
Y804000D02*
D03*
X550000Y826000D02*
D03*
Y804000D02*
D03*
X525000Y826000D02*
D03*
Y804000D02*
D03*
X500000Y826000D02*
D03*
Y804000D02*
D03*
X475000Y826000D02*
D03*
Y804000D02*
D03*
X510000Y951000D02*
D03*
Y929000D02*
D03*
D44*
X355000Y1045400D02*
D03*
Y940800D02*
D03*
Y1073800D02*
D03*
D45*
Y1020000D02*
D03*
Y994600D02*
D03*
Y969200D02*
D03*
Y915400D02*
D03*
Y890000D02*
D03*
Y864600D02*
D03*
X600000Y1175000D02*
D03*
X574600D02*
D03*
X549200D02*
D03*
X355000Y1099200D02*
D03*
Y1124600D02*
D03*
Y1150000D02*
D03*
Y1175400D02*
D03*
D46*
X625400Y1175000D02*
D03*
D49*
X554000Y930000D02*
D03*
X576000D02*
D03*
X532000Y905000D02*
D03*
X510000D02*
D03*
M02*
