G04*
G04 #@! TF.GenerationSoftware,Altium Limited,Altium Designer,22.7.1 (60)*
G04*
G04 Layer_Color=8388736*
%FSAX44Y44*%
%MOMM*%
G71*
G04*
G04 #@! TF.SameCoordinates,B67A478A-0272-44D9-A9C4-7CC6AF38DCCD*
G04*
G04*
G04 #@! TF.FilePolarity,Negative*
G04*
G01*
G75*
%ADD15R,1.0000X0.8000*%
%ADD16R,1.4000X1.0000*%
G04:AMPARAMS|DCode=17|XSize=1.54mm|YSize=0.38mm|CornerRadius=0.085mm|HoleSize=0mm|Usage=FLASHONLY|Rotation=0.000|XOffset=0mm|YOffset=0mm|HoleType=Round|Shape=RoundedRectangle|*
%AMROUNDEDRECTD17*
21,1,1.5400,0.2100,0,0,0.0*
21,1,1.3700,0.3800,0,0,0.0*
1,1,0.1700,0.6850,-0.1050*
1,1,0.1700,-0.6850,-0.1050*
1,1,0.1700,-0.6850,0.1050*
1,1,0.1700,0.6850,0.1050*
%
%ADD17ROUNDEDRECTD17*%
G04:AMPARAMS|DCode=18|XSize=0.38mm|YSize=1.54mm|CornerRadius=0.085mm|HoleSize=0mm|Usage=FLASHONLY|Rotation=0.000|XOffset=0mm|YOffset=0mm|HoleType=Round|Shape=RoundedRectangle|*
%AMROUNDEDRECTD18*
21,1,0.3800,1.3700,0,0,0.0*
21,1,0.2100,1.5400,0,0,0.0*
1,1,0.1700,0.1050,-0.6850*
1,1,0.1700,-0.1050,-0.6850*
1,1,0.1700,-0.1050,0.6850*
1,1,0.1700,0.1050,0.6850*
%
%ADD18ROUNDEDRECTD18*%
G04:AMPARAMS|DCode=19|XSize=1.7mm|YSize=1.9mm|CornerRadius=0.21mm|HoleSize=0mm|Usage=FLASHONLY|Rotation=0.000|XOffset=0mm|YOffset=0mm|HoleType=Round|Shape=RoundedRectangle|*
%AMROUNDEDRECTD19*
21,1,1.7000,1.4800,0,0,0.0*
21,1,1.2800,1.9000,0,0,0.0*
1,1,0.4200,0.6400,-0.7400*
1,1,0.4200,-0.6400,-0.7400*
1,1,0.4200,-0.6400,0.7400*
1,1,0.4200,0.6400,0.7400*
%
%ADD19ROUNDEDRECTD19*%
G04:AMPARAMS|DCode=20|XSize=3.9mm|YSize=2.1mm|CornerRadius=0.25mm|HoleSize=0mm|Usage=FLASHONLY|Rotation=180.000|XOffset=0mm|YOffset=0mm|HoleType=Round|Shape=RoundedRectangle|*
%AMROUNDEDRECTD20*
21,1,3.9000,1.6000,0,0,180.0*
21,1,3.4000,2.1000,0,0,180.0*
1,1,0.5000,-1.7000,0.8000*
1,1,0.5000,1.7000,0.8000*
1,1,0.5000,1.7000,-0.8000*
1,1,0.5000,-1.7000,-0.8000*
%
%ADD20ROUNDEDRECTD20*%
G04:AMPARAMS|DCode=21|XSize=1.6mm|YSize=2.1mm|CornerRadius=0.2mm|HoleSize=0mm|Usage=FLASHONLY|Rotation=180.000|XOffset=0mm|YOffset=0mm|HoleType=Round|Shape=RoundedRectangle|*
%AMROUNDEDRECTD21*
21,1,1.6000,1.7000,0,0,180.0*
21,1,1.2000,2.1000,0,0,180.0*
1,1,0.4000,-0.6000,0.8500*
1,1,0.4000,0.6000,0.8500*
1,1,0.4000,0.6000,-0.8500*
1,1,0.4000,-0.6000,-0.8500*
%
%ADD21ROUNDEDRECTD21*%
G04:AMPARAMS|DCode=22|XSize=1.6mm|YSize=2.6mm|CornerRadius=0.2mm|HoleSize=0mm|Usage=FLASHONLY|Rotation=180.000|XOffset=0mm|YOffset=0mm|HoleType=Round|Shape=RoundedRectangle|*
%AMROUNDEDRECTD22*
21,1,1.6000,2.2000,0,0,180.0*
21,1,1.2000,2.6000,0,0,180.0*
1,1,0.4000,-0.6000,1.1000*
1,1,0.4000,0.6000,1.1000*
1,1,0.4000,0.6000,-1.1000*
1,1,0.4000,-0.6000,-1.1000*
%
%ADD22ROUNDEDRECTD22*%
G04:AMPARAMS|DCode=23|XSize=7.1mm|YSize=7.1mm|CornerRadius=0.4mm|HoleSize=0mm|Usage=FLASHONLY|Rotation=180.000|XOffset=0mm|YOffset=0mm|HoleType=Round|Shape=RoundedRectangle|*
%AMROUNDEDRECTD23*
21,1,7.1000,6.3000,0,0,180.0*
21,1,6.3000,7.1000,0,0,180.0*
1,1,0.8000,-3.1500,3.1500*
1,1,0.8000,3.1500,3.1500*
1,1,0.8000,3.1500,-3.1500*
1,1,0.8000,-3.1500,-3.1500*
%
%ADD23ROUNDEDRECTD23*%
%ADD24R,2.1000X2.1000*%
%ADD25R,1.3000X0.8000*%
G04:AMPARAMS|DCode=26|XSize=4.6mm|YSize=1.6mm|CornerRadius=0.425mm|HoleSize=0mm|Usage=FLASHONLY|Rotation=90.000|XOffset=0mm|YOffset=0mm|HoleType=Round|Shape=RoundedRectangle|*
%AMROUNDEDRECTD26*
21,1,4.6000,0.7500,0,0,90.0*
21,1,3.7500,1.6000,0,0,90.0*
1,1,0.8500,0.3750,1.8750*
1,1,0.8500,0.3750,-1.8750*
1,1,0.8500,-0.3750,-1.8750*
1,1,0.8500,-0.3750,1.8750*
%
%ADD26ROUNDEDRECTD26*%
%ADD27R,1.6000X1.6000*%
%ADD28C,1.6000*%
%ADD29R,1.6000X1.6000*%
%ADD30C,1.3700*%
%ADD31C,3.1000*%
D15*
X00511000Y00930500D02*
D03*
Y00949500D02*
D03*
X00490000Y00940000D02*
D03*
D16*
X00395000Y00819000D02*
D03*
Y00841000D02*
D03*
Y00916000D02*
D03*
Y00894000D02*
D03*
D17*
X00581850Y00892500D02*
D03*
Y00887500D02*
D03*
Y00882500D02*
D03*
Y00877500D02*
D03*
Y00872500D02*
D03*
Y00867500D02*
D03*
Y00862500D02*
D03*
Y00857500D02*
D03*
Y00852500D02*
D03*
Y00847500D02*
D03*
Y00842500D02*
D03*
Y00837500D02*
D03*
X00498150D02*
D03*
Y00842500D02*
D03*
Y00847500D02*
D03*
Y00852500D02*
D03*
Y00857500D02*
D03*
Y00862500D02*
D03*
Y00867500D02*
D03*
Y00872500D02*
D03*
Y00877500D02*
D03*
Y00882500D02*
D03*
Y00887500D02*
D03*
Y00892500D02*
D03*
D18*
X00512500Y00906850D02*
D03*
X00517500D02*
D03*
X00522500D02*
D03*
X00527500D02*
D03*
X00532500D02*
D03*
X00537500D02*
D03*
X00542500D02*
D03*
X00547500D02*
D03*
X00552500D02*
D03*
X00557500D02*
D03*
X00562500D02*
D03*
X00567500D02*
D03*
Y00823150D02*
D03*
X00562500D02*
D03*
X00557500D02*
D03*
X00552500D02*
D03*
X00547500D02*
D03*
X00542500D02*
D03*
X00537500D02*
D03*
X00532500D02*
D03*
X00527500D02*
D03*
X00522500D02*
D03*
X00517500D02*
D03*
X00512500D02*
D03*
D19*
X00620000Y00830000D02*
D03*
Y00901250D02*
D03*
D20*
X00595000Y00955000D02*
D03*
D21*
X00572000Y01018000D02*
D03*
X00595000D02*
D03*
X00618000D02*
D03*
D22*
Y01144000D02*
D03*
X00572000D02*
D03*
D23*
X00595000Y01075000D02*
D03*
D24*
X00517545Y01172470D02*
D03*
Y00994670D02*
D03*
X00427375Y01172470D02*
D03*
Y00994670D02*
D03*
D25*
X00390000Y01175000D02*
D03*
Y01138000D02*
D03*
D26*
X00435000Y00915000D02*
D03*
Y00820000D02*
D03*
D27*
X00355000Y01045400D02*
D03*
Y00940800D02*
D03*
Y01073800D02*
D03*
D28*
Y01020000D02*
D03*
Y00994600D02*
D03*
Y00969200D02*
D03*
Y00915400D02*
D03*
Y00890000D02*
D03*
Y00864600D02*
D03*
X00600000Y01175000D02*
D03*
X00574600D02*
D03*
X00549200D02*
D03*
X00355000Y01099200D02*
D03*
Y01124600D02*
D03*
Y01150000D02*
D03*
Y01175400D02*
D03*
D29*
X00625400Y01175000D02*
D03*
D30*
X00475000Y00952500D02*
D03*
X00630000Y00940000D02*
D03*
X00532500Y00942500D02*
D03*
X00532522Y00924978D02*
D03*
X00560000Y00957500D02*
D03*
X00517500Y00842500D02*
D03*
X00395000Y01067500D02*
D03*
X00367500Y00830000D02*
D03*
X00575000Y00977500D02*
D03*
X00412250Y01137750D02*
D03*
X00595000Y00930000D02*
D03*
Y00987500D02*
D03*
X00580000Y00910000D02*
D03*
X00400000Y00990000D02*
D03*
X00595000Y00825000D02*
D03*
X00560000Y00855000D02*
D03*
Y00875000D02*
D03*
X00620000Y00805000D02*
D03*
D31*
X00660162Y01208980D02*
D03*
Y00768980D02*
D03*
X00320162D02*
D03*
X00320000Y01210000D02*
D03*
M02*
