G04*
G04 #@! TF.GenerationSoftware,Altium Limited,Altium Designer,22.7.1 (60)*
G04*
G04 Layer_Color=16711935*
%FSLAX44Y44*%
%MOMM*%
G71*
G04*
G04 #@! TF.SameCoordinates,970EA138-478C-41D8-9FC6-09D8BA0D9F19*
G04*
G04*
G04 #@! TF.FilePolarity,Positive*
G04*
G01*
G75*
%ADD10C,0.2000*%
%ADD11C,0.1000*%
%ADD12C,0.1270*%
D10*
X513230Y891230D02*
G03*
X513230Y891230I-1000J0D01*
G01*
D11*
X488750Y925003D02*
X512750D01*
Y955000D01*
X488750D02*
X512750D01*
X488750Y925003D02*
Y955000D01*
X554499Y936750D02*
X575498D01*
X554499Y923250D02*
Y936750D01*
Y923250D02*
X575498D01*
Y936750D01*
X613248Y850498D02*
X626749D01*
Y829499D02*
Y850498D01*
X613248Y829499D02*
X626749D01*
X613248D02*
Y850498D01*
X568251Y804502D02*
X581752D01*
X568251D02*
Y825501D01*
X581752D01*
Y804502D02*
Y825501D01*
X543251Y804502D02*
X556752D01*
X543251D02*
Y825501D01*
X556752D01*
Y804502D02*
Y825501D01*
X518251Y804502D02*
X531752D01*
X518251D02*
Y825501D01*
X531752D01*
Y804502D02*
Y825501D01*
X493251Y804502D02*
X506752D01*
X493251D02*
Y825501D01*
X506752D01*
Y804502D02*
Y825501D01*
X468251Y804502D02*
X481752D01*
X468251D02*
Y825501D01*
X481752D01*
Y804502D02*
Y825501D01*
X516750Y929502D02*
Y950501D01*
X503250D02*
X516750D01*
X503250Y929502D02*
Y950501D01*
Y929502D02*
X516750D01*
X367750Y956400D02*
Y1058150D01*
X342250D02*
X367750D01*
X342250Y956400D02*
Y1058150D01*
Y956400D02*
X367750D01*
Y851800D02*
Y953550D01*
X342250D02*
X367750D01*
X342250Y851800D02*
Y953550D01*
Y851800D02*
X367750D01*
X388251Y840498D02*
X401752D01*
X388251Y819499D02*
Y840498D01*
Y819499D02*
X401752D01*
Y840498D01*
X388248Y894502D02*
X401749D01*
Y915501D01*
X388248D02*
X401749D01*
X388248Y894502D02*
Y915501D01*
X637500Y826000D02*
Y906000D01*
X602500Y826000D02*
X637500D01*
X603250Y906000D02*
X637500D01*
X602500Y826000D02*
Y906000D01*
X603250D01*
X562500Y950700D02*
X627500D01*
X562500D02*
Y1020250D01*
X627500D01*
Y950700D02*
Y1020250D01*
X561500Y1049500D02*
X628839D01*
X561500D02*
Y1150500D01*
X628839D01*
Y1049500D02*
Y1150500D01*
X536400Y1162250D02*
X638150D01*
Y1187750D01*
X536400D02*
X638150D01*
X536400Y1162250D02*
Y1187750D01*
X342250Y1061050D02*
Y1188050D01*
Y1061050D02*
X367750D01*
Y1188050D01*
X342250D02*
X367750D01*
X382000Y1175000D02*
X398001D01*
X382000Y1138000D02*
Y1175000D01*
Y1138000D02*
X398001D01*
Y1175000D01*
X510502Y898250D02*
X531501D01*
Y911750D01*
X510502D02*
X531501D01*
X510502Y898250D02*
Y911750D01*
X411098Y803002D02*
X459398D01*
Y931001D01*
X411098D02*
X459398D01*
X411098Y803002D02*
Y931001D01*
D12*
X505000Y830000D02*
Y900000D01*
X575000Y830000D02*
Y900000D01*
X505000D02*
X575000D01*
X505000Y830000D02*
X575000D01*
M02*
