G04*
G04 #@! TF.GenerationSoftware,Altium Limited,Altium Designer,22.7.1 (60)*
G04*
G04 Layer_Color=32896*
%FSAX44Y44*%
%MOMM*%
G71*
G04*
G04 #@! TF.SameCoordinates,B67A478A-0272-44D9-A9C4-7CC6AF38DCCD*
G04*
G04*
G04 #@! TF.FilePolarity,Positive*
G04*
G01*
G75*
%ADD11C,0.1000*%
%ADD13C,0.2540*%
D11*
X00559750Y00936750D02*
X00570250D01*
X00559750Y00923250D02*
X00570250D01*
X00613250Y00834750D02*
Y00845250D01*
X00626750Y00834750D02*
Y00845250D01*
X00581750Y00809750D02*
Y00820250D01*
X00568250Y00809750D02*
Y00820250D01*
X00556750Y00809750D02*
Y00820250D01*
X00543250Y00809750D02*
Y00820250D01*
X00531750Y00809750D02*
Y00820250D01*
X00518250Y00809750D02*
Y00820250D01*
X00506750Y00809750D02*
Y00820250D01*
X00493250Y00809750D02*
Y00820250D01*
X00481750Y00809750D02*
Y00820250D01*
X00468250Y00809750D02*
Y00820250D01*
X00516750Y00934750D02*
Y00945250D01*
X00503250Y00934750D02*
Y00945250D01*
X00515750Y00898250D02*
X00526250D01*
X00515750Y00911750D02*
X00526250D01*
D13*
X00500196Y00897383D02*
Y00912617D01*
X00492578D01*
X00490039Y00910078D01*
Y00905000D01*
X00492578Y00902461D01*
X00500196D01*
X00495117D02*
X00490039Y00897383D01*
X00484961Y00910078D02*
X00482422Y00912617D01*
X00477343D01*
X00474804Y00910078D01*
Y00907539D01*
X00477343Y00905000D01*
X00479883D01*
X00477343D01*
X00474804Y00902461D01*
Y00899922D01*
X00477343Y00897383D01*
X00482422D01*
X00484961Y00899922D01*
X00576834Y00944880D02*
Y00960115D01*
X00569216D01*
X00566677Y00957576D01*
Y00952497D01*
X00569216Y00949958D01*
X00576834D01*
X00571756D02*
X00566677Y00944880D01*
X00551442D02*
X00561599D01*
X00551442Y00955037D01*
Y00957576D01*
X00553981Y00960115D01*
X00559060D01*
X00561599Y00957576D01*
X00522383Y00939843D02*
X00537618D01*
Y00947461D01*
X00535078Y00950000D01*
X00530000D01*
X00527461Y00947461D01*
Y00939843D01*
Y00944922D02*
X00522383Y00950000D01*
Y00955078D02*
Y00960157D01*
Y00957617D01*
X00537618D01*
X00535078Y00955078D01*
X00477539Y00792578D02*
X00480078Y00795117D01*
X00485157D01*
X00487696Y00792578D01*
Y00782422D01*
X00485157Y00779883D01*
X00480078D01*
X00477539Y00782422D01*
X00472461Y00792578D02*
X00469922Y00795117D01*
X00464843D01*
X00462304Y00792578D01*
Y00790039D01*
X00464843Y00787500D01*
X00462304Y00784961D01*
Y00782422D01*
X00464843Y00779883D01*
X00469922D01*
X00472461Y00782422D01*
Y00784961D01*
X00469922Y00787500D01*
X00472461Y00790039D01*
Y00792578D01*
X00469922Y00787500D02*
X00464843D01*
X00502539Y00847578D02*
X00505078Y00850117D01*
X00510157D01*
X00512696Y00847578D01*
Y00837422D01*
X00510157Y00834883D01*
X00505078D01*
X00502539Y00837422D01*
X00497461Y00850117D02*
X00487304D01*
Y00847578D01*
X00497461Y00837422D01*
Y00834883D01*
X00527539Y00792578D02*
X00530078Y00795117D01*
X00535157D01*
X00537696Y00792578D01*
Y00782422D01*
X00535157Y00779883D01*
X00530078D01*
X00527539Y00782422D01*
X00512304Y00795117D02*
X00517383Y00792578D01*
X00522461Y00787500D01*
Y00782422D01*
X00519922Y00779883D01*
X00514843D01*
X00512304Y00782422D01*
Y00784961D01*
X00514843Y00787500D01*
X00522461D01*
X00552539Y00847578D02*
X00555078Y00850117D01*
X00560157D01*
X00562696Y00847578D01*
Y00837422D01*
X00560157Y00834883D01*
X00555078D01*
X00552539Y00837422D01*
X00537304Y00850117D02*
X00547461D01*
Y00842500D01*
X00542383Y00845039D01*
X00539843D01*
X00537304Y00842500D01*
Y00837422D01*
X00539843Y00834883D01*
X00544922D01*
X00547461Y00837422D01*
X00647578Y00837461D02*
X00650117Y00834922D01*
Y00829843D01*
X00647578Y00827304D01*
X00637422D01*
X00634883Y00829843D01*
Y00834922D01*
X00637422Y00837461D01*
X00634883Y00850157D02*
X00650117D01*
X00642500Y00842539D01*
Y00852696D01*
X00577539Y00792578D02*
X00580078Y00795117D01*
X00585157D01*
X00587696Y00792578D01*
Y00782422D01*
X00585157Y00779883D01*
X00580078D01*
X00577539Y00782422D01*
X00572461Y00792578D02*
X00569922Y00795117D01*
X00564843D01*
X00562304Y00792578D01*
Y00790039D01*
X00564843Y00787500D01*
X00567383D01*
X00564843D01*
X00562304Y00784961D01*
Y00782422D01*
X00564843Y00779883D01*
X00569922D01*
X00572461Y00782422D01*
M02*
