G04*
G04 #@! TF.GenerationSoftware,Altium Limited,Altium Designer,22.7.1 (60)*
G04*
G04 Layer_Color=65535*
%FSAX44Y44*%
%MOMM*%
G71*
G04*
G04 #@! TF.SameCoordinates,B67A478A-0272-44D9-A9C4-7CC6AF38DCCD*
G04*
G04*
G04 #@! TF.FilePolarity,Positive*
G04*
G01*
G75*
%ADD10C,0.2000*%
%ADD11C,0.1000*%
%ADD12C,0.1270*%
%ADD13C,0.2540*%
%ADD14R,0.4750X0.7250*%
D10*
X00513230Y00891230D02*
G03*
X00513230Y00891230I-00001000J00000000D01*
G01*
X00383000Y01132500D02*
X00397000D01*
D11*
X00492750Y00926500D02*
X00504500D01*
X00492750Y00953500D02*
X00504500D01*
X00492750Y00945250D02*
Y00953500D01*
Y00926500D02*
Y00934750D01*
X00342300Y00956400D02*
X00367700D01*
X00342300D02*
Y01058100D01*
X00367700Y00956400D02*
Y01058100D01*
X00342300D02*
X00367700D01*
X00342300Y00851800D02*
X00367700D01*
X00342300D02*
Y00953500D01*
X00367700Y00851800D02*
Y00953500D01*
X00342300D02*
X00367700D01*
X00401750Y00824750D02*
Y00835250D01*
X00388250Y00824750D02*
Y00835250D01*
Y00899750D02*
Y00910250D01*
X00401750Y00899750D02*
Y00910250D01*
X00602500Y00896250D02*
X00610750D01*
X00602500Y00835250D02*
Y00896250D01*
Y00835250D02*
X00610750D01*
X00629500Y00835000D02*
X00637500D01*
Y00896500D01*
X00629250D02*
X00637500D01*
X00562000Y01006000D02*
X00628000D01*
X00562000Y00967250D02*
Y01006000D01*
Y00967250D02*
X00628000D01*
Y01006000D01*
X00632250Y01055250D02*
Y01126750D01*
X00557500Y01055250D02*
Y01126750D01*
X00632250D01*
X00536400Y01162300D02*
Y01187700D01*
X00638100D01*
X00536400Y01162300D02*
X00638100D01*
Y01187700D01*
X00342300Y01188100D02*
X00367700D01*
Y01061100D02*
Y01188100D01*
X00342300Y01061100D02*
Y01188100D01*
Y01061100D02*
X00367700D01*
X00397750Y01141500D02*
X00398750D01*
X00381000D02*
X00382250D01*
X00381000Y01171500D02*
X00382250D01*
X00397750D02*
X00398750D01*
X00381000Y01141500D02*
Y01171500D01*
X00398750Y01141500D02*
Y01171500D01*
X00411000Y00925500D02*
X00424750D01*
X00445250D02*
X00459500D01*
X00445250Y00807750D02*
X00459500D01*
X00411000D02*
X00424750D01*
X00411000D02*
Y00925500D01*
X00459500Y00807750D02*
Y00925500D01*
D12*
X00505000Y00897100D02*
Y00900000D01*
Y00830000D02*
Y00832900D01*
X00575000Y00897100D02*
Y00900000D01*
Y00830000D02*
Y00832900D01*
X00505000Y00900000D02*
X00507900D01*
X00505000Y00830000D02*
X00507900D01*
X00572100Y00900000D02*
X00575000D01*
X00572100Y00830000D02*
X00575000D01*
D13*
X00531515Y00980700D02*
Y01186440D01*
X00413405Y00980700D02*
X00531515D01*
X00413405D02*
Y01186440D01*
X00531515D01*
X00413004Y00960877D02*
Y00958338D01*
X00418082Y00953260D01*
X00423161Y00958338D01*
Y00960877D01*
X00418082Y00953260D02*
Y00945642D01*
X00428239D02*
X00433317D01*
X00430778D01*
Y00960877D01*
X00428239Y00958338D01*
X00417304Y01207617D02*
Y01194922D01*
X00419843Y01192383D01*
X00424922D01*
X00427461Y01194922D01*
Y01207617D01*
X00440157Y01192383D02*
Y01207617D01*
X00432539Y01200000D01*
X00442696D01*
X00647617Y01002696D02*
X00634922D01*
X00632383Y01000157D01*
Y00995078D01*
X00634922Y00992539D01*
X00647617D01*
X00645078Y00987461D02*
X00647617Y00984922D01*
Y00979843D01*
X00645078Y00977304D01*
X00642539D01*
X00640000Y00979843D01*
Y00982383D01*
Y00979843D01*
X00637461Y00977304D01*
X00634922D01*
X00632383Y00979843D01*
Y00984922D01*
X00634922Y00987461D01*
X00652617Y01125196D02*
X00639922D01*
X00637383Y01122657D01*
Y01117578D01*
X00639922Y01115039D01*
X00652617D01*
X00637383Y01099804D02*
Y01109961D01*
X00647539Y01099804D01*
X00650078D01*
X00652617Y01102343D01*
Y01107422D01*
X00650078Y01109961D01*
X00532343Y00895117D02*
Y00882422D01*
X00534883Y00879883D01*
X00539961D01*
X00542500Y00882422D01*
Y00895117D01*
X00547578Y00879883D02*
X00552657D01*
X00550118D01*
Y00895117D01*
X00547578Y00892578D01*
X00502500Y00962422D02*
Y00972578D01*
X00499961Y00975117D01*
X00494883D01*
X00492343Y00972578D01*
Y00962422D01*
X00494883Y00959883D01*
X00499961D01*
X00497422Y00964961D02*
X00502500Y00959883D01*
X00499961D02*
X00502500Y00962422D01*
X00507578Y00959883D02*
X00512657D01*
X00510118D01*
Y00975117D01*
X00507578Y00972578D01*
X00549961Y01207617D02*
X00544883D01*
X00547422D01*
Y01194922D01*
X00544883Y01192383D01*
X00542343D01*
X00539804Y01194922D01*
X00562657Y01192383D02*
Y01207617D01*
X00555039Y01200000D01*
X00565196D01*
X00322383Y01004961D02*
Y00999883D01*
Y01002422D01*
X00335078D01*
X00337617Y00999883D01*
Y00997343D01*
X00335078Y00994804D01*
X00324922Y01010039D02*
X00322383Y01012578D01*
Y01017657D01*
X00324922Y01020196D01*
X00327461D01*
X00330000Y01017657D01*
Y01015117D01*
Y01017657D01*
X00332539Y01020196D01*
X00335078D01*
X00337617Y01017657D01*
Y01012578D01*
X00335078Y01010039D01*
X00322383Y00897461D02*
Y00892383D01*
Y00894922D01*
X00335078D01*
X00337617Y00892383D01*
Y00889843D01*
X00335078Y00887304D01*
X00337617Y00912696D02*
Y00902539D01*
X00327461Y00912696D01*
X00324922D01*
X00322383Y00910157D01*
Y00905078D01*
X00324922Y00902539D01*
X00355000Y01207617D02*
X00349922D01*
X00352461D01*
Y01194922D01*
X00349922Y01192383D01*
X00347383D01*
X00344843Y01194922D01*
X00360078Y01192383D02*
X00365157D01*
X00362618D01*
Y01207617D01*
X00360078Y01205078D01*
X00382343Y01200117D02*
Y01184883D01*
X00389961D01*
X00392500Y01187422D01*
Y01197578D01*
X00389961Y01200117D01*
X00382343D01*
X00397578Y01184883D02*
X00402657D01*
X00400118D01*
Y01200117D01*
X00397578Y01197578D01*
X00384961Y00862578D02*
X00382422Y00865117D01*
X00377343D01*
X00374804Y00862578D01*
Y00852422D01*
X00377343Y00849883D01*
X00382422D01*
X00384961Y00852422D01*
X00400196Y00849883D02*
X00390039D01*
X00400196Y00860039D01*
Y00862578D01*
X00397657Y00865117D01*
X00392578D01*
X00390039Y00862578D01*
X00390000Y00937578D02*
X00387461Y00940117D01*
X00382383D01*
X00379843Y00937578D01*
Y00927422D01*
X00382383Y00924883D01*
X00387461D01*
X00390000Y00927422D01*
X00395078Y00924883D02*
X00400157D01*
X00397618D01*
Y00940117D01*
X00395078Y00937578D01*
X00657617Y00877657D02*
X00642383D01*
Y00870039D01*
X00644922Y00867500D01*
X00647461D01*
X00650000Y00870039D01*
Y00877657D01*
Y00870039D01*
X00652539Y00867500D01*
X00655078D01*
X00657617Y00870039D01*
Y00877657D01*
X00642383Y00862422D02*
Y00857343D01*
Y00859882D01*
X00657617D01*
X00655078Y00862422D01*
D14*
X00595000Y01130125D02*
D03*
M02*
