G04*
G04 #@! TF.GenerationSoftware,Altium Limited,Altium Designer,22.7.1 (60)*
G04*
G04 Layer_Color=16711935*
%FSAX44Y44*%
%MOMM*%
G71*
G04*
G04 #@! TF.SameCoordinates,B67A478A-0272-44D9-A9C4-7CC6AF38DCCD*
G04*
G04*
G04 #@! TF.FilePolarity,Negative*
G04*
G01*
G75*
%ADD16R,1.4000X1.0000*%
%ADD27R,1.6000X1.6000*%
%ADD28C,1.6000*%
%ADD29R,1.6000X1.6000*%
%ADD30C,1.3700*%
%ADD31C,3.1000*%
%ADD50R,1.0000X1.4000*%
D16*
X00620000Y00829000D02*
D03*
Y00851000D02*
D03*
X00575000Y00826000D02*
D03*
Y00804000D02*
D03*
X00550000Y00826000D02*
D03*
Y00804000D02*
D03*
X00525000Y00826000D02*
D03*
Y00804000D02*
D03*
X00500000Y00826000D02*
D03*
Y00804000D02*
D03*
X00475000Y00826000D02*
D03*
Y00804000D02*
D03*
X00510000Y00951000D02*
D03*
Y00929000D02*
D03*
D27*
X00355000Y01045400D02*
D03*
Y00940800D02*
D03*
Y01073800D02*
D03*
D28*
Y01020000D02*
D03*
Y00994600D02*
D03*
Y00969200D02*
D03*
Y00915400D02*
D03*
Y00890000D02*
D03*
Y00864600D02*
D03*
X00600000Y01175000D02*
D03*
X00574600D02*
D03*
X00549200D02*
D03*
X00355000Y01099200D02*
D03*
Y01124600D02*
D03*
Y01150000D02*
D03*
Y01175400D02*
D03*
D29*
X00625400Y01175000D02*
D03*
D30*
X00475000Y00952500D02*
D03*
X00630000Y00940000D02*
D03*
X00532500Y00942500D02*
D03*
X00532522Y00924978D02*
D03*
X00560000Y00957500D02*
D03*
X00517500Y00842500D02*
D03*
X00395000Y01067500D02*
D03*
X00367500Y00830000D02*
D03*
X00575000Y00977500D02*
D03*
X00412250Y01137750D02*
D03*
X00595000Y00930000D02*
D03*
Y00987500D02*
D03*
X00580000Y00910000D02*
D03*
X00400000Y00990000D02*
D03*
X00595000Y00825000D02*
D03*
X00560000Y00855000D02*
D03*
Y00875000D02*
D03*
X00620000Y00805000D02*
D03*
D31*
X00660162Y01208980D02*
D03*
Y00768980D02*
D03*
X00320162D02*
D03*
X00320000Y01210000D02*
D03*
D50*
X00554000Y00930000D02*
D03*
X00576000D02*
D03*
X00532000Y00905000D02*
D03*
X00510000D02*
D03*
M02*
